%TF.GenerationSoftware,KiCad,Pcbnew,7.0.10-7.0.10~ubuntu22.04.1*%
%TF.CreationDate,2024-09-29T13:00:56+02:00*%
%TF.ProjectId,kicad,6b696361-642e-46b6-9963-61645f706362,rev?*%
%TF.SameCoordinates,Original*%
%TF.FileFunction,Copper,L2,Bot*%
%TF.FilePolarity,Positive*%
%FSLAX46Y46*%
G04 Gerber Fmt 4.6, Leading zero omitted, Abs format (unit mm)*
G04 Created by KiCad (PCBNEW 7.0.10-7.0.10~ubuntu22.04.1) date 2024-09-29 13:00:56*
%MOMM*%
%LPD*%
G01*
G04 APERTURE LIST*
G04 Aperture macros list*
%AMRoundRect*
0 Rectangle with rounded corners*
0 $1 Rounding radius*
0 $2 $3 $4 $5 $6 $7 $8 $9 X,Y pos of 4 corners*
0 Add a 4 corners polygon primitive as box body*
4,1,4,$2,$3,$4,$5,$6,$7,$8,$9,$2,$3,0*
0 Add four circle primitives for the rounded corners*
1,1,$1+$1,$2,$3*
1,1,$1+$1,$4,$5*
1,1,$1+$1,$6,$7*
1,1,$1+$1,$8,$9*
0 Add four rect primitives between the rounded corners*
20,1,$1+$1,$2,$3,$4,$5,0*
20,1,$1+$1,$4,$5,$6,$7,0*
20,1,$1+$1,$6,$7,$8,$9,0*
20,1,$1+$1,$8,$9,$2,$3,0*%
G04 Aperture macros list end*
%TA.AperFunction,ComponentPad*%
%ADD10R,1.700000X1.700000*%
%TD*%
%TA.AperFunction,ComponentPad*%
%ADD11O,1.700000X1.700000*%
%TD*%
%TA.AperFunction,ComponentPad*%
%ADD12C,1.530000*%
%TD*%
%TA.AperFunction,ComponentPad*%
%ADD13R,1.530000X1.530000*%
%TD*%
%TA.AperFunction,ComponentPad*%
%ADD14R,1.778000X1.778000*%
%TD*%
%TA.AperFunction,ComponentPad*%
%ADD15C,1.778000*%
%TD*%
%TA.AperFunction,ComponentPad*%
%ADD16C,3.200000*%
%TD*%
%TA.AperFunction,ComponentPad*%
%ADD17C,2.184400*%
%TD*%
%TA.AperFunction,ComponentPad*%
%ADD18RoundRect,1.500000X-1.500000X1.500000X-1.500000X-1.500000X1.500000X-1.500000X1.500000X1.500000X0*%
%TD*%
%TA.AperFunction,ComponentPad*%
%ADD19C,6.000000*%
%TD*%
%TA.AperFunction,ComponentPad*%
%ADD20RoundRect,1.500000X1.500000X-1.500000X1.500000X1.500000X-1.500000X1.500000X-1.500000X-1.500000X0*%
%TD*%
%TA.AperFunction,ViaPad*%
%ADD21C,0.800000*%
%TD*%
%TA.AperFunction,ViaPad*%
%ADD22C,1.600000*%
%TD*%
%TA.AperFunction,Conductor*%
%ADD23C,0.400000*%
%TD*%
%TA.AperFunction,Conductor*%
%ADD24C,0.800000*%
%TD*%
%TA.AperFunction,Conductor*%
%ADD25C,1.600000*%
%TD*%
G04 APERTURE END LIST*
D10*
%TO.P,J9,1,Pin_1*%
%TO.N,GND*%
X112268000Y-127127000D03*
D11*
%TO.P,J9,2,Pin_2*%
%TO.N,VCP_RX*%
X112268000Y-124587000D03*
%TO.P,J9,3,Pin_3*%
%TO.N,VCP_TX*%
X112268000Y-122047000D03*
%TD*%
D12*
%TO.P,U5,CN3_15,PB4*%
%TO.N,LED_RED*%
X131572000Y-83820000D03*
%TO.P,U5,CN3_14,PB5*%
%TO.N,MOTOR_EN*%
X131572000Y-86360000D03*
%TO.P,U5,CN3_13,PA11*%
%TO.N,PPM_OUT_1*%
X131572000Y-88900000D03*
%TO.P,U5,CN3_12,PA8*%
%TO.N,PPM_OUT_0*%
X131572000Y-91440000D03*
%TO.P,U5,CN3_11,PC15*%
%TO.N,unconnected-(U5A-PC15-PadCN3_11)*%
X131572000Y-93980000D03*
%TO.P,U5,CN3_10,PC14*%
%TO.N,unconnected-(U5A-PC14-PadCN3_10)*%
X131572000Y-96520000D03*
%TO.P,U5,CN3_9,PB1*%
%TO.N,PB1*%
X131572000Y-99060000D03*
%TO.P,U5,CN3_8,PB6*%
%TO.N,SCL*%
X131572000Y-101600000D03*
%TO.P,U5,CN3_7,PB7*%
%TO.N,SDA*%
X131572000Y-104140000D03*
%TO.P,U5,CN3_6,PB0*%
%TO.N,LED_GREEN*%
X131572000Y-106680000D03*
%TO.P,U5,CN3_5,PA12*%
%TO.N,BUTTON*%
X131572000Y-109220000D03*
%TO.P,U5,CN3_4,GND_CN3*%
%TO.N,GND*%
X131572000Y-111760000D03*
%TO.P,U5,CN3_3,NRST_CN3*%
%TO.N,NRST*%
X131572000Y-114300000D03*
%TO.P,U5,CN3_2,PA10*%
%TO.N,UART_RX*%
X131572000Y-116840000D03*
D13*
%TO.P,U5,CN3_1,PA9*%
%TO.N,UART_TX*%
X131572000Y-119380000D03*
D12*
%TO.P,U5,CN4_15,PB3*%
%TO.N,PB3*%
X116332000Y-83820000D03*
%TO.P,U5,CN4_14,+3V3*%
%TO.N,3V3*%
X116332000Y-86360000D03*
%TO.P,U5,CN4_13,AREF*%
X116332000Y-88900000D03*
%TO.P,U5,CN4_12,PA0*%
%TO.N,PPM_IN_0*%
X116332000Y-91440000D03*
%TO.P,U5,CN4_11,PA1*%
%TO.N,PPM_IN_1*%
X116332000Y-93980000D03*
%TO.P,U5,CN4_10,PA3*%
%TO.N,VCP_RX*%
X116332000Y-96520000D03*
%TO.P,U5,CN4_9,PA4*%
%TO.N,PA4*%
X116332000Y-99060000D03*
%TO.P,U5,CN4_8,PA5*%
%TO.N,PA5*%
X116332000Y-101600000D03*
%TO.P,U5,CN4_7,PA6*%
%TO.N,PA6*%
X116332000Y-104140000D03*
%TO.P,U5,CN4_6,PA7*%
%TO.N,PA7*%
X116332000Y-106680000D03*
%TO.P,U5,CN4_5,PA2*%
%TO.N,VCP_TX*%
X116332000Y-109220000D03*
%TO.P,U5,CN4_4,+5V*%
%TO.N,5V*%
X116332000Y-111760000D03*
%TO.P,U5,CN4_3,NRST_CN4*%
%TO.N,NRST*%
X116332000Y-114300000D03*
%TO.P,U5,CN4_2,GND_CN4*%
%TO.N,GND*%
X116332000Y-116840000D03*
D13*
%TO.P,U5,CN4_1,VIN*%
%TO.N,3V3*%
X116332000Y-119380000D03*
%TD*%
D14*
%TO.P,U1,1,VCC*%
%TO.N,5V*%
X117602000Y-73357500D03*
D15*
%TO.P,U1,2,GND*%
%TO.N,GND*%
X120142000Y-73357500D03*
%TO.P,U1,3,SCL*%
%TO.N,SCL*%
X122682000Y-73357500D03*
%TO.P,U1,4,SDA*%
%TO.N,SDA*%
X125222000Y-73357500D03*
%TO.P,U1,5,VIN-*%
%TO.N,MOTOR_OUT*%
X127762000Y-73357500D03*
%TO.P,U1,6,VIN+*%
%TO.N,SOLAR_IN*%
X130302000Y-73357500D03*
D16*
%TO.P,U1,SH1,SHIELD*%
%TO.N,unconnected-(U1-SHIELD-PadSH1)*%
X113792000Y-58117500D03*
%TO.P,U1,SH2,SHIELD*%
X134112000Y-58117500D03*
%TO.P,U1,SH3,SHIELD*%
X113792000Y-73357500D03*
%TO.P,U1,SH4,SHIELD*%
X134112000Y-73357500D03*
D17*
%TO.P,U1,VIN+,VIN+*%
%TO.N,SOLAR_IN*%
X125652000Y-59387500D03*
%TO.P,U1,VIN-,VIN-*%
%TO.N,MOTOR_OUT*%
X122152000Y-59387500D03*
%TD*%
D10*
%TO.P,J5,1,Pin_1*%
%TO.N,5V*%
X146812000Y-89916000D03*
D11*
%TO.P,J5,2,Pin_2*%
%TO.N,PPM_OUT_1*%
X144272000Y-89916000D03*
%TO.P,J5,3,Pin_3*%
%TO.N,GND*%
X141732000Y-89916000D03*
%TD*%
%TO.P,J6,10,Pin_10*%
%TO.N,5V*%
X101092000Y-86360000D03*
%TO.P,J6,9,Pin_9*%
%TO.N,3V3*%
X101092000Y-88900000D03*
%TO.P,J6,8,Pin_8*%
%TO.N,GND*%
X101092000Y-91440000D03*
%TO.P,J6,7,Pin_7*%
%TO.N,PB1*%
X101092000Y-93980000D03*
%TO.P,J6,6,Pin_6*%
%TO.N,PB3*%
X101092000Y-96520000D03*
%TO.P,J6,5,Pin_5*%
%TO.N,PA4*%
X101092000Y-99060000D03*
%TO.P,J6,4,Pin_4*%
%TO.N,PA5*%
X101092000Y-101600000D03*
%TO.P,J6,3,Pin_3*%
%TO.N,PA6*%
X101092000Y-104140000D03*
%TO.P,J6,2,Pin_2*%
%TO.N,PA7*%
X101092000Y-106680000D03*
D10*
%TO.P,J6,1,Pin_1*%
%TO.N,GND*%
X101092000Y-109220000D03*
%TD*%
%TO.P,J3,1,Pin_1*%
%TO.N,5V*%
X146827000Y-82042000D03*
D11*
%TO.P,J3,2,Pin_2*%
%TO.N,PPM_IN_1*%
X144287000Y-82042000D03*
%TO.P,J3,3,Pin_3*%
%TO.N,GND*%
X141747000Y-82042000D03*
%TD*%
D18*
%TO.P,J1,1,Pin_1*%
%TO.N,GND*%
X103632000Y-117260000D03*
D19*
%TO.P,J1,2,Pin_2*%
%TO.N,VIN*%
X103632000Y-124460000D03*
%TD*%
D20*
%TO.P,J7,1,Pin_1*%
%TO.N,GND*%
X144272000Y-68160000D03*
D19*
%TO.P,J7,2,Pin_2*%
%TO.N,SOLAR_IN*%
X144272000Y-60960000D03*
%TD*%
D11*
%TO.P,J2,3,Pin_3*%
%TO.N,GND*%
X141747000Y-78232000D03*
%TO.P,J2,2,Pin_2*%
%TO.N,PPM_IN_0*%
X144287000Y-78232000D03*
D10*
%TO.P,J2,1,Pin_1*%
%TO.N,5V*%
X146827000Y-78232000D03*
%TD*%
D11*
%TO.P,J11,3,Pin_3*%
%TO.N,SDA*%
X147320000Y-104125000D03*
%TO.P,J11,2,Pin_2*%
%TO.N,SCL*%
X147320000Y-106665000D03*
D10*
%TO.P,J11,1,Pin_1*%
%TO.N,GND*%
X147320000Y-109205000D03*
%TD*%
%TO.P,J4,1,Pin_1*%
%TO.N,5V*%
X146812000Y-85852000D03*
D11*
%TO.P,J4,2,Pin_2*%
%TO.N,PPM_OUT_0*%
X144272000Y-85852000D03*
%TO.P,J4,3,Pin_3*%
%TO.N,GND*%
X141732000Y-85852000D03*
%TD*%
D10*
%TO.P,J10,1,Pin_1*%
%TO.N,unconnected-(J10-Pin_1-Pad1)*%
X147320000Y-114808000D03*
D11*
%TO.P,J10,2,Pin_2*%
%TO.N,Net-(J10-Pin_2)*%
X147320000Y-117348000D03*
%TO.P,J10,3,Pin_3*%
%TO.N,UART_TX*%
X147320000Y-119888000D03*
%TO.P,J10,4,Pin_4*%
%TO.N,GND*%
X147320000Y-122428000D03*
%TO.P,J10,5,Pin_5*%
%TO.N,5V*%
X147320000Y-124968000D03*
%TO.P,J10,6,Pin_6*%
%TO.N,unconnected-(J10-Pin_6-Pad6)*%
X147320000Y-127508000D03*
%TD*%
D20*
%TO.P,J8,1,Pin_1*%
%TO.N,GND*%
X103632000Y-68580000D03*
D19*
%TO.P,J8,2,Pin_2*%
%TO.N,MOTOR_OUT*%
X103632000Y-61380000D03*
%TD*%
D10*
%TO.P,J12,1,Pin_1*%
%TO.N,GND*%
X147320000Y-97790000D03*
D11*
%TO.P,J12,2,Pin_2*%
%TO.N,MOTOR_EN*%
X147320000Y-95250000D03*
%TD*%
D21*
%TO.N,NRST*%
X124968000Y-114300000D03*
X128524000Y-114300000D03*
D22*
%TO.N,5V*%
X132588000Y-121920000D03*
%TO.N,GND*%
X137160000Y-115824000D03*
%TO.N,VIN*%
X144272000Y-105156000D03*
%TO.N,GND*%
X119380000Y-117856000D03*
X136652000Y-109728000D03*
X136652000Y-104140000D03*
X143256000Y-102108000D03*
X146812000Y-100584000D03*
%TO.N,5V*%
X134620000Y-101600000D03*
%TO.N,3V3*%
X113284000Y-108712000D03*
X113792000Y-117348000D03*
D21*
%TO.N,LED_RED*%
X120396000Y-77216000D03*
X129032000Y-77216000D03*
%TO.N,SCL*%
X125984000Y-100076000D03*
%TD*%
D23*
%TO.N,NRST*%
X124968000Y-114300000D02*
X116332000Y-114300000D01*
X131572000Y-114300000D02*
X128524000Y-114300000D01*
D24*
%TO.N,5V*%
X134620000Y-101600000D02*
X134112000Y-102108000D01*
X134112000Y-102108000D02*
X134112000Y-120396000D01*
X134112000Y-120396000D02*
X131572000Y-122936000D01*
X131572000Y-122936000D02*
X127000000Y-122936000D01*
X124968000Y-111760000D02*
X116332000Y-111760000D01*
X127000000Y-122936000D02*
X126492000Y-122428000D01*
X126492000Y-122428000D02*
X126492000Y-113284000D01*
X126492000Y-113284000D02*
X124968000Y-111760000D01*
%TO.N,VIN*%
X107749000Y-128577000D02*
X113718000Y-128577000D01*
X136144000Y-107696000D02*
X141732000Y-107696000D01*
X103632000Y-124460000D02*
X107749000Y-128577000D01*
X113718000Y-128577000D02*
X113771000Y-128524000D01*
X130556000Y-128524000D02*
X135636000Y-123444000D01*
X113771000Y-128524000D02*
X130556000Y-128524000D01*
X135636000Y-123444000D02*
X135636000Y-120904000D01*
X135252000Y-108588000D02*
X136144000Y-107696000D01*
X135636000Y-120904000D02*
X135252000Y-120520000D01*
X135252000Y-120520000D02*
X135252000Y-108588000D01*
X141732000Y-107696000D02*
X144272000Y-105156000D01*
%TO.N,GND*%
X109220000Y-124079000D02*
X109220000Y-125984000D01*
X103632000Y-118491000D02*
X109220000Y-124079000D01*
X103632000Y-117260000D02*
X103632000Y-118491000D01*
X109220000Y-125984000D02*
X110363000Y-127127000D01*
X110363000Y-127127000D02*
X112268000Y-127127000D01*
X116332000Y-116840000D02*
X118364000Y-116840000D01*
X118364000Y-116840000D02*
X119380000Y-117856000D01*
X137160000Y-110236000D02*
X136652000Y-109728000D01*
X137160000Y-116840000D02*
X137160000Y-110236000D01*
X103632000Y-117260000D02*
X103632000Y-111760000D01*
X103632000Y-111760000D02*
X101092000Y-109220000D01*
X142748000Y-122428000D02*
X137160000Y-116840000D01*
X147320000Y-122428000D02*
X142748000Y-122428000D01*
X148770000Y-107755000D02*
X148770000Y-120978000D01*
X148770000Y-120978000D02*
X147320000Y-122428000D01*
X138684000Y-102108000D02*
X136652000Y-104140000D01*
X143256000Y-102108000D02*
X138684000Y-102108000D01*
X146812000Y-100584000D02*
X148770000Y-102542000D01*
X148770000Y-102542000D02*
X148770000Y-107755000D01*
X148770000Y-107755000D02*
X147320000Y-109205000D01*
X145288000Y-102108000D02*
X143256000Y-102108000D01*
X146812000Y-100584000D02*
X145288000Y-102108000D01*
%TO.N,5V*%
X115799750Y-75159750D02*
X117602000Y-73357500D01*
X104599500Y-86360000D02*
X115799750Y-75159750D01*
X115799750Y-75159750D02*
X132802980Y-75159750D01*
X132802980Y-75159750D02*
X134351230Y-76708000D01*
X134351230Y-76708000D02*
X145303000Y-76708000D01*
X145303000Y-76708000D02*
X146827000Y-78232000D01*
X101092000Y-86360000D02*
X104599500Y-86360000D01*
%TO.N,3V3*%
X113284000Y-116840000D02*
X113284000Y-108712000D01*
X113792000Y-117348000D02*
X113284000Y-116840000D01*
D23*
%TO.N,PB1*%
X101092000Y-93980000D02*
X99842000Y-95230000D01*
X99842000Y-95230000D02*
X99842000Y-97037767D01*
X100574233Y-97770000D02*
X130282000Y-97770000D01*
X99842000Y-97037767D02*
X100574233Y-97770000D01*
X130282000Y-97770000D02*
X131572000Y-99060000D01*
%TO.N,PB3*%
X101092000Y-96520000D02*
X103632000Y-96520000D01*
X103632000Y-96520000D02*
X116332000Y-83820000D01*
%TO.N,PA7*%
X116332000Y-106680000D02*
X101092000Y-106680000D01*
%TO.N,PA6*%
X101092000Y-104140000D02*
X116332000Y-104140000D01*
%TO.N,PA5*%
X116332000Y-101600000D02*
X101092000Y-101600000D01*
%TO.N,PA4*%
X101092000Y-99060000D02*
X116332000Y-99060000D01*
%TO.N,LED_RED*%
X129032000Y-77216000D02*
X120396000Y-77216000D01*
%TO.N,MOTOR_EN*%
X131572000Y-86360000D02*
X130407000Y-87525000D01*
X130407000Y-87525000D02*
X130407000Y-92306999D01*
X130407000Y-92306999D02*
X130915001Y-92815000D01*
X130915001Y-92815000D02*
X132054559Y-92815000D01*
X132054559Y-92815000D02*
X134489559Y-95250000D01*
X134489559Y-95250000D02*
X147320000Y-95250000D01*
%TO.N,PPM_OUT_0*%
X144272000Y-85852000D02*
X144272000Y-88148233D01*
X144272000Y-88148233D02*
X145522000Y-89398233D01*
X145522000Y-89398233D02*
X145522000Y-90698000D01*
X145522000Y-90698000D02*
X144015000Y-92205000D01*
X132337000Y-92205000D02*
X131572000Y-91440000D01*
X144015000Y-92205000D02*
X132337000Y-92205000D01*
%TO.N,PPM_OUT_1*%
X144272000Y-89916000D02*
X143022000Y-91166000D01*
X143022000Y-91166000D02*
X133838000Y-91166000D01*
X133838000Y-91166000D02*
X131572000Y-88900000D01*
%TO.N,PPM_IN_1*%
X136632000Y-83292000D02*
X135128000Y-81788000D01*
X143037000Y-83292000D02*
X136632000Y-83292000D01*
X144287000Y-82042000D02*
X143037000Y-83292000D01*
X135128000Y-81788000D02*
X128524000Y-81788000D01*
X128524000Y-81788000D02*
X116332000Y-93980000D01*
%TO.N,PPM_IN_0*%
X144287000Y-78232000D02*
X141727000Y-80792000D01*
X141727000Y-80792000D02*
X126980000Y-80792000D01*
X126980000Y-80792000D02*
X116332000Y-91440000D01*
D25*
%TO.N,5V*%
X146812000Y-85852000D02*
X146812000Y-89916000D01*
X146827000Y-78232000D02*
X146827000Y-85837000D01*
X146827000Y-85837000D02*
X146812000Y-85852000D01*
%TO.N,unconnected-(U1-SHIELD-PadSH1)*%
X113792000Y-58117500D02*
X113792000Y-73357500D01*
X134112000Y-58117500D02*
X134112000Y-73357500D01*
X113792000Y-58117500D02*
X115392000Y-56517500D01*
X115392000Y-56517500D02*
X132512000Y-56517500D01*
X132512000Y-56517500D02*
X134112000Y-58117500D01*
D23*
%TO.N,SCL*%
X131572000Y-101600000D02*
X127508000Y-101600000D01*
X127508000Y-101600000D02*
X125984000Y-100076000D01*
%TD*%
%TA.AperFunction,Conductor*%
%TO.N,GND*%
G36*
X113155340Y-55900185D02*
G01*
X113201095Y-55952989D01*
X113211039Y-56022147D01*
X113182014Y-56085703D01*
X113123236Y-56123477D01*
X113121804Y-56123888D01*
X113086942Y-56133656D01*
X113086939Y-56133656D01*
X113086936Y-56133658D01*
X113086935Y-56133658D01*
X112823382Y-56248134D01*
X112577853Y-56397444D01*
X112354950Y-56578789D01*
X112158812Y-56788799D01*
X111993098Y-57023564D01*
X111860894Y-57278706D01*
X111764667Y-57549462D01*
X111764666Y-57549465D01*
X111706201Y-57830819D01*
X111686592Y-58117500D01*
X111706201Y-58404180D01*
X111764666Y-58685534D01*
X111764667Y-58685537D01*
X111860894Y-58956293D01*
X111860893Y-58956293D01*
X111993098Y-59211435D01*
X111993099Y-59211436D01*
X112158811Y-59446198D01*
X112354947Y-59656208D01*
X112445755Y-59730085D01*
X112485335Y-59787662D01*
X112491500Y-59826273D01*
X112491500Y-71648726D01*
X112471815Y-71715765D01*
X112445755Y-71744914D01*
X112354950Y-71818788D01*
X112158812Y-72028799D01*
X111993098Y-72263564D01*
X111860894Y-72518706D01*
X111764667Y-72789462D01*
X111764666Y-72789465D01*
X111706201Y-73070819D01*
X111686592Y-73357500D01*
X111706201Y-73644180D01*
X111706201Y-73644184D01*
X111706202Y-73644186D01*
X111708835Y-73656857D01*
X111764666Y-73925534D01*
X111764667Y-73925537D01*
X111860894Y-74196293D01*
X111860893Y-74196293D01*
X111993098Y-74451435D01*
X112158812Y-74686200D01*
X112243923Y-74777331D01*
X112354947Y-74896208D01*
X112577853Y-75077555D01*
X112823382Y-75226865D01*
X113010237Y-75308026D01*
X113086942Y-75341344D01*
X113363642Y-75418871D01*
X113613920Y-75453271D01*
X113648321Y-75458000D01*
X113928638Y-75458000D01*
X113995677Y-75477685D01*
X114041432Y-75530489D01*
X114051376Y-75599647D01*
X114022351Y-75663203D01*
X114016319Y-75669681D01*
X104262820Y-85423181D01*
X104201497Y-85456666D01*
X104175139Y-85459500D01*
X102152758Y-85459500D01*
X102085719Y-85439815D01*
X102065077Y-85423181D01*
X101963402Y-85321506D01*
X101963395Y-85321501D01*
X101769834Y-85185967D01*
X101769830Y-85185965D01*
X101727609Y-85166277D01*
X101555663Y-85086097D01*
X101555659Y-85086096D01*
X101555655Y-85086094D01*
X101327413Y-85024938D01*
X101327403Y-85024936D01*
X101092001Y-85004341D01*
X101091999Y-85004341D01*
X100856596Y-85024936D01*
X100856586Y-85024938D01*
X100628344Y-85086094D01*
X100628335Y-85086098D01*
X100414171Y-85185964D01*
X100414169Y-85185965D01*
X100220597Y-85321505D01*
X100053505Y-85488597D01*
X99917965Y-85682169D01*
X99917964Y-85682171D01*
X99818098Y-85896335D01*
X99818094Y-85896344D01*
X99756938Y-86124586D01*
X99756936Y-86124596D01*
X99736341Y-86359999D01*
X99736341Y-86360000D01*
X99756936Y-86595403D01*
X99756938Y-86595413D01*
X99818094Y-86823655D01*
X99818096Y-86823659D01*
X99818097Y-86823663D01*
X99876416Y-86948728D01*
X99917965Y-87037830D01*
X99917967Y-87037834D01*
X100025572Y-87191508D01*
X100048122Y-87223714D01*
X100053501Y-87231395D01*
X100053506Y-87231402D01*
X100220597Y-87398493D01*
X100220603Y-87398498D01*
X100406158Y-87528425D01*
X100449783Y-87583002D01*
X100456977Y-87652500D01*
X100425454Y-87714855D01*
X100406158Y-87731575D01*
X100220597Y-87861505D01*
X100053505Y-88028597D01*
X99917965Y-88222169D01*
X99917964Y-88222171D01*
X99818098Y-88436335D01*
X99818094Y-88436344D01*
X99756938Y-88664586D01*
X99756936Y-88664596D01*
X99736341Y-88899999D01*
X99736341Y-88900000D01*
X99756936Y-89135403D01*
X99756938Y-89135413D01*
X99818094Y-89363655D01*
X99818096Y-89363659D01*
X99818097Y-89363663D01*
X99859526Y-89452507D01*
X99917965Y-89577830D01*
X99917967Y-89577834D01*
X99979702Y-89666000D01*
X100053505Y-89771401D01*
X100220599Y-89938495D01*
X100368419Y-90042000D01*
X100406594Y-90068730D01*
X100450219Y-90123307D01*
X100457413Y-90192805D01*
X100425890Y-90255160D01*
X100406595Y-90271880D01*
X100220922Y-90401890D01*
X100220920Y-90401891D01*
X100053891Y-90568920D01*
X100053886Y-90568926D01*
X99918400Y-90762420D01*
X99918399Y-90762422D01*
X99818570Y-90976507D01*
X99818567Y-90976513D01*
X99761364Y-91189999D01*
X99761364Y-91190000D01*
X100658314Y-91190000D01*
X100632507Y-91230156D01*
X100592000Y-91368111D01*
X100592000Y-91511889D01*
X100632507Y-91649844D01*
X100658314Y-91690000D01*
X99761364Y-91690000D01*
X99818567Y-91903486D01*
X99818570Y-91903492D01*
X99918399Y-92117578D01*
X100053894Y-92311082D01*
X100220917Y-92478105D01*
X100406595Y-92608119D01*
X100450219Y-92662696D01*
X100457412Y-92732195D01*
X100425890Y-92794549D01*
X100406595Y-92811269D01*
X100220594Y-92941508D01*
X100053505Y-93108597D01*
X99917965Y-93302169D01*
X99917964Y-93302171D01*
X99818098Y-93516335D01*
X99818094Y-93516344D01*
X99756938Y-93744586D01*
X99756936Y-93744596D01*
X99736341Y-93979999D01*
X99736341Y-93980000D01*
X99756937Y-94215409D01*
X99756937Y-94215410D01*
X99761442Y-94232225D01*
X99759776Y-94302075D01*
X99729347Y-94351994D01*
X99364290Y-94717051D01*
X99358838Y-94722183D01*
X99313819Y-94762068D01*
X99279649Y-94811569D01*
X99275213Y-94817597D01*
X99238124Y-94864938D01*
X99238119Y-94864948D01*
X99233960Y-94874188D01*
X99222942Y-94893723D01*
X99217187Y-94902061D01*
X99217179Y-94902076D01*
X99195853Y-94958305D01*
X99192989Y-94965220D01*
X99168305Y-95020068D01*
X99166477Y-95030042D01*
X99160453Y-95051653D01*
X99156860Y-95061127D01*
X99156860Y-95061128D01*
X99149610Y-95120827D01*
X99148483Y-95128227D01*
X99137642Y-95187389D01*
X99137642Y-95187395D01*
X99141274Y-95247432D01*
X99141500Y-95254920D01*
X99141500Y-97012845D01*
X99141274Y-97020333D01*
X99137642Y-97080370D01*
X99137642Y-97080372D01*
X99148483Y-97139537D01*
X99149610Y-97146938D01*
X99156859Y-97206638D01*
X99156860Y-97206641D01*
X99160451Y-97216110D01*
X99166474Y-97237713D01*
X99168304Y-97247697D01*
X99192991Y-97302549D01*
X99195854Y-97309461D01*
X99217182Y-97365697D01*
X99217183Y-97365698D01*
X99222936Y-97374033D01*
X99233961Y-97393580D01*
X99238120Y-97402822D01*
X99238124Y-97402827D01*
X99275215Y-97450170D01*
X99279655Y-97456205D01*
X99313812Y-97505691D01*
X99313816Y-97505696D01*
X99358828Y-97545572D01*
X99364283Y-97550707D01*
X99958792Y-98145216D01*
X99992277Y-98206539D01*
X99987293Y-98276231D01*
X99972687Y-98304019D01*
X99917964Y-98382172D01*
X99818097Y-98596335D01*
X99818094Y-98596344D01*
X99756938Y-98824586D01*
X99756936Y-98824596D01*
X99736341Y-99059999D01*
X99736341Y-99060000D01*
X99756936Y-99295403D01*
X99756938Y-99295413D01*
X99818094Y-99523655D01*
X99818096Y-99523659D01*
X99818097Y-99523663D01*
X99898069Y-99695163D01*
X99917965Y-99737830D01*
X99917967Y-99737834D01*
X100053501Y-99931395D01*
X100053506Y-99931402D01*
X100220597Y-100098493D01*
X100220603Y-100098498D01*
X100406158Y-100228425D01*
X100449783Y-100283002D01*
X100456977Y-100352500D01*
X100425454Y-100414855D01*
X100406158Y-100431575D01*
X100220597Y-100561505D01*
X100053505Y-100728597D01*
X99917965Y-100922169D01*
X99917964Y-100922171D01*
X99818098Y-101136335D01*
X99818094Y-101136344D01*
X99756938Y-101364586D01*
X99756936Y-101364596D01*
X99736341Y-101599999D01*
X99736341Y-101600000D01*
X99756936Y-101835403D01*
X99756938Y-101835413D01*
X99818094Y-102063655D01*
X99818096Y-102063659D01*
X99818097Y-102063663D01*
X99893245Y-102224817D01*
X99917965Y-102277830D01*
X99917967Y-102277834D01*
X100053501Y-102471395D01*
X100053506Y-102471402D01*
X100220597Y-102638493D01*
X100220603Y-102638498D01*
X100406158Y-102768425D01*
X100449783Y-102823002D01*
X100456977Y-102892500D01*
X100425454Y-102954855D01*
X100406158Y-102971575D01*
X100220597Y-103101505D01*
X100053505Y-103268597D01*
X99917965Y-103462169D01*
X99917964Y-103462171D01*
X99818098Y-103676335D01*
X99818094Y-103676344D01*
X99756938Y-103904586D01*
X99756936Y-103904596D01*
X99736341Y-104139999D01*
X99736341Y-104140000D01*
X99756936Y-104375403D01*
X99756938Y-104375413D01*
X99818094Y-104603655D01*
X99818096Y-104603659D01*
X99818097Y-104603663D01*
X99867451Y-104709502D01*
X99917965Y-104817830D01*
X99917967Y-104817834D01*
X100053501Y-105011395D01*
X100053506Y-105011402D01*
X100220597Y-105178493D01*
X100220603Y-105178498D01*
X100406158Y-105308425D01*
X100449783Y-105363002D01*
X100456977Y-105432500D01*
X100425454Y-105494855D01*
X100406158Y-105511575D01*
X100220597Y-105641505D01*
X100053505Y-105808597D01*
X99917965Y-106002169D01*
X99917964Y-106002171D01*
X99818098Y-106216335D01*
X99818094Y-106216344D01*
X99756938Y-106444586D01*
X99756936Y-106444596D01*
X99736341Y-106679999D01*
X99736341Y-106680000D01*
X99756936Y-106915403D01*
X99756938Y-106915413D01*
X99818094Y-107143655D01*
X99818096Y-107143659D01*
X99818097Y-107143663D01*
X99869846Y-107254638D01*
X99917965Y-107357830D01*
X99917967Y-107357834D01*
X100053501Y-107551395D01*
X100053506Y-107551402D01*
X100175818Y-107673714D01*
X100209303Y-107735037D01*
X100204319Y-107804729D01*
X100162447Y-107860662D01*
X100131471Y-107877577D01*
X99999912Y-107926646D01*
X99999906Y-107926649D01*
X99884812Y-108012809D01*
X99884809Y-108012812D01*
X99798649Y-108127906D01*
X99798645Y-108127913D01*
X99748403Y-108262620D01*
X99748401Y-108262627D01*
X99742000Y-108322155D01*
X99742000Y-108970000D01*
X100658314Y-108970000D01*
X100632507Y-109010156D01*
X100592000Y-109148111D01*
X100592000Y-109291889D01*
X100632507Y-109429844D01*
X100658314Y-109470000D01*
X99742000Y-109470000D01*
X99742000Y-110117844D01*
X99748401Y-110177372D01*
X99748403Y-110177379D01*
X99798645Y-110312086D01*
X99798649Y-110312093D01*
X99884809Y-110427187D01*
X99884812Y-110427190D01*
X99999906Y-110513350D01*
X99999913Y-110513354D01*
X100134620Y-110563596D01*
X100134627Y-110563598D01*
X100194155Y-110569999D01*
X100194172Y-110570000D01*
X100842000Y-110570000D01*
X100842000Y-109655501D01*
X100949685Y-109704680D01*
X101056237Y-109720000D01*
X101127763Y-109720000D01*
X101234315Y-109704680D01*
X101342000Y-109655501D01*
X101342000Y-110570000D01*
X101989828Y-110570000D01*
X101989844Y-110569999D01*
X102049372Y-110563598D01*
X102049379Y-110563596D01*
X102184086Y-110513354D01*
X102184093Y-110513350D01*
X102299187Y-110427190D01*
X102299190Y-110427187D01*
X102385350Y-110312093D01*
X102385354Y-110312086D01*
X102435596Y-110177379D01*
X102435598Y-110177372D01*
X102441999Y-110117844D01*
X102442000Y-110117827D01*
X102442000Y-109470000D01*
X101525686Y-109470000D01*
X101551493Y-109429844D01*
X101592000Y-109291889D01*
X101592000Y-109148111D01*
X101551493Y-109010156D01*
X101525686Y-108970000D01*
X102442000Y-108970000D01*
X102442000Y-108322172D01*
X102441999Y-108322155D01*
X102435598Y-108262627D01*
X102435596Y-108262620D01*
X102385354Y-108127913D01*
X102385350Y-108127906D01*
X102299190Y-108012812D01*
X102299187Y-108012809D01*
X102184093Y-107926649D01*
X102184088Y-107926646D01*
X102052528Y-107877577D01*
X101996595Y-107835705D01*
X101972178Y-107770241D01*
X101987030Y-107701968D01*
X102008175Y-107673720D01*
X102130495Y-107551401D01*
X102213136Y-107433376D01*
X102267713Y-107389752D01*
X102314711Y-107380500D01*
X112524949Y-107380500D01*
X112591988Y-107400185D01*
X112637743Y-107452989D01*
X112647687Y-107522147D01*
X112618662Y-107585703D01*
X112596072Y-107606075D01*
X112444858Y-107711954D01*
X112283954Y-107872858D01*
X112153432Y-108059265D01*
X112153431Y-108059267D01*
X112057261Y-108265502D01*
X112057258Y-108265511D01*
X111998366Y-108485302D01*
X111998364Y-108485313D01*
X111978532Y-108711998D01*
X111978532Y-108712001D01*
X111998364Y-108938686D01*
X111998366Y-108938697D01*
X112057258Y-109158488D01*
X112057261Y-109158497D01*
X112153431Y-109364732D01*
X112153432Y-109364734D01*
X112283951Y-109551137D01*
X112283952Y-109551138D01*
X112283953Y-109551139D01*
X112347182Y-109614368D01*
X112380666Y-109675689D01*
X112383500Y-109702048D01*
X112383500Y-116759373D01*
X112381973Y-116778772D01*
X112379781Y-116792611D01*
X112383330Y-116860335D01*
X112383500Y-116866824D01*
X112383500Y-116887188D01*
X112385628Y-116907448D01*
X112386136Y-116913909D01*
X112389686Y-116981643D01*
X112389688Y-116981653D01*
X112393315Y-116995189D01*
X112396860Y-117014314D01*
X112398325Y-117028249D01*
X112398326Y-117028256D01*
X112398328Y-117028262D01*
X112419282Y-117092755D01*
X112421125Y-117098976D01*
X112438679Y-117164486D01*
X112438684Y-117164498D01*
X112445043Y-117176978D01*
X112452488Y-117194949D01*
X112456820Y-117208282D01*
X112473689Y-117237500D01*
X112490160Y-117305401D01*
X112489829Y-117310305D01*
X112486532Y-117347996D01*
X112486532Y-117348001D01*
X112506364Y-117574686D01*
X112506366Y-117574697D01*
X112565258Y-117794488D01*
X112565261Y-117794497D01*
X112661431Y-118000732D01*
X112661432Y-118000734D01*
X112791954Y-118187141D01*
X112952858Y-118348045D01*
X112952861Y-118348047D01*
X113139266Y-118478568D01*
X113345504Y-118574739D01*
X113565308Y-118633635D01*
X113727230Y-118647801D01*
X113791998Y-118653468D01*
X113792000Y-118653468D01*
X113792002Y-118653468D01*
X113848673Y-118648509D01*
X114018692Y-118633635D01*
X114238496Y-118574739D01*
X114444734Y-118478568D01*
X114631139Y-118348047D01*
X114792047Y-118187139D01*
X114922568Y-118000734D01*
X115018739Y-117794496D01*
X115070950Y-117599640D01*
X115107312Y-117539984D01*
X115170159Y-117509454D01*
X115239535Y-117517748D01*
X115266047Y-117539287D01*
X115278105Y-117540342D01*
X115840866Y-116977580D01*
X115863318Y-117054040D01*
X115942605Y-117177413D01*
X116053438Y-117273451D01*
X116186839Y-117334373D01*
X116190633Y-117334918D01*
X115631656Y-117893894D01*
X115632041Y-117898284D01*
X115668185Y-117943500D01*
X115675379Y-118012999D01*
X115643857Y-118075354D01*
X115583628Y-118110768D01*
X115553440Y-118114500D01*
X115519131Y-118114500D01*
X115519123Y-118114501D01*
X115459516Y-118120908D01*
X115324671Y-118171202D01*
X115324664Y-118171206D01*
X115209455Y-118257452D01*
X115209452Y-118257455D01*
X115123206Y-118372664D01*
X115123202Y-118372671D01*
X115072908Y-118507517D01*
X115066501Y-118567116D01*
X115066501Y-118567123D01*
X115066500Y-118567135D01*
X115066500Y-120192870D01*
X115066501Y-120192876D01*
X115072908Y-120252483D01*
X115123202Y-120387328D01*
X115123206Y-120387335D01*
X115209452Y-120502544D01*
X115209455Y-120502547D01*
X115324664Y-120588793D01*
X115324671Y-120588797D01*
X115459517Y-120639091D01*
X115459516Y-120639091D01*
X115466444Y-120639835D01*
X115519127Y-120645500D01*
X117144872Y-120645499D01*
X117204483Y-120639091D01*
X117339331Y-120588796D01*
X117454546Y-120502546D01*
X117540796Y-120387331D01*
X117591091Y-120252483D01*
X117597500Y-120192873D01*
X117597499Y-118567128D01*
X117591091Y-118507517D01*
X117580293Y-118478567D01*
X117540797Y-118372671D01*
X117540793Y-118372664D01*
X117454547Y-118257455D01*
X117454544Y-118257452D01*
X117339335Y-118171206D01*
X117339328Y-118171202D01*
X117204482Y-118120908D01*
X117204483Y-118120908D01*
X117144883Y-118114501D01*
X117144881Y-118114500D01*
X117144873Y-118114500D01*
X117144865Y-118114500D01*
X117110563Y-118114500D01*
X117043524Y-118094815D01*
X116997769Y-118042011D01*
X116987825Y-117972853D01*
X117016850Y-117909297D01*
X117032206Y-117895447D01*
X117032342Y-117893894D01*
X116473366Y-117334918D01*
X116477161Y-117334373D01*
X116610562Y-117273451D01*
X116721395Y-117177413D01*
X116800682Y-117054040D01*
X116823132Y-116977580D01*
X117385894Y-117540342D01*
X117431706Y-117474915D01*
X117525250Y-117274309D01*
X117525254Y-117274300D01*
X117582538Y-117060509D01*
X117582540Y-117060499D01*
X117601832Y-116840000D01*
X117601832Y-116839999D01*
X117582540Y-116619500D01*
X117582538Y-116619490D01*
X117525254Y-116405699D01*
X117525250Y-116405690D01*
X117431707Y-116205085D01*
X117431706Y-116205083D01*
X117385894Y-116139657D01*
X117385894Y-116139656D01*
X116823132Y-116702418D01*
X116800682Y-116625960D01*
X116721395Y-116502587D01*
X116610562Y-116406549D01*
X116477161Y-116345627D01*
X116473366Y-116345081D01*
X117032342Y-115786105D01*
X117032341Y-115786103D01*
X116966919Y-115740295D01*
X116843316Y-115682657D01*
X116790877Y-115636484D01*
X116771725Y-115569291D01*
X116791941Y-115502410D01*
X116843312Y-115457895D01*
X116967167Y-115400142D01*
X117148555Y-115273132D01*
X117305132Y-115116555D01*
X117349371Y-115053374D01*
X117403947Y-115009752D01*
X117450945Y-115000500D01*
X124359844Y-115000500D01*
X124426883Y-115020185D01*
X124432729Y-115024182D01*
X124515265Y-115084148D01*
X124515270Y-115084151D01*
X124688192Y-115161142D01*
X124688197Y-115161144D01*
X124873354Y-115200500D01*
X124873355Y-115200500D01*
X125062644Y-115200500D01*
X125062646Y-115200500D01*
X125247803Y-115161144D01*
X125417064Y-115085782D01*
X125486314Y-115076498D01*
X125549590Y-115106126D01*
X125586804Y-115165260D01*
X125591500Y-115199062D01*
X125591500Y-122347373D01*
X125589973Y-122366772D01*
X125587781Y-122380611D01*
X125591330Y-122448335D01*
X125591500Y-122454824D01*
X125591500Y-122475188D01*
X125593628Y-122495448D01*
X125594136Y-122501909D01*
X125597686Y-122569643D01*
X125597688Y-122569653D01*
X125601315Y-122583189D01*
X125604860Y-122602314D01*
X125606325Y-122616249D01*
X125606326Y-122616256D01*
X125606328Y-122616262D01*
X125627282Y-122680755D01*
X125629125Y-122686976D01*
X125646679Y-122752486D01*
X125646684Y-122752498D01*
X125653043Y-122764978D01*
X125660488Y-122782949D01*
X125664820Y-122796282D01*
X125698726Y-122855009D01*
X125701822Y-122860712D01*
X125732616Y-122921147D01*
X125732620Y-122921153D01*
X125741438Y-122932043D01*
X125752454Y-122948070D01*
X125759465Y-122960213D01*
X125759470Y-122960220D01*
X125804855Y-123010627D01*
X125809063Y-123015554D01*
X125821883Y-123031383D01*
X125836275Y-123045775D01*
X125840743Y-123050483D01*
X125873333Y-123086677D01*
X125886129Y-123100888D01*
X125894981Y-123107319D01*
X125897468Y-123109126D01*
X125912265Y-123121764D01*
X126306235Y-123515734D01*
X126318869Y-123530525D01*
X126327112Y-123541871D01*
X126327113Y-123541872D01*
X126377515Y-123587254D01*
X126382207Y-123591706D01*
X126389676Y-123599175D01*
X126396620Y-123606119D01*
X126412441Y-123618931D01*
X126417376Y-123623146D01*
X126467781Y-123668531D01*
X126467782Y-123668531D01*
X126467784Y-123668533D01*
X126467786Y-123668534D01*
X126479918Y-123675538D01*
X126495955Y-123686560D01*
X126506849Y-123695382D01*
X126506851Y-123695383D01*
X126567287Y-123726176D01*
X126572975Y-123729265D01*
X126631707Y-123763174D01*
X126631714Y-123763178D01*
X126631716Y-123763179D01*
X126645046Y-123767510D01*
X126663019Y-123774954D01*
X126675512Y-123781320D01*
X126722387Y-123793879D01*
X126741016Y-123798871D01*
X126747219Y-123800707D01*
X126811744Y-123821674D01*
X126822116Y-123822763D01*
X126825684Y-123823139D01*
X126844825Y-123826687D01*
X126858348Y-123830311D01*
X126858354Y-123830312D01*
X126926089Y-123833861D01*
X126932508Y-123834366D01*
X126952808Y-123836500D01*
X126973180Y-123836500D01*
X126979669Y-123836669D01*
X127047388Y-123840219D01*
X127061228Y-123838027D01*
X127080627Y-123836500D01*
X131491373Y-123836500D01*
X131510772Y-123838027D01*
X131524612Y-123840219D01*
X131592337Y-123836670D01*
X131598826Y-123836500D01*
X131619191Y-123836500D01*
X131619192Y-123836500D01*
X131630393Y-123835322D01*
X131639448Y-123834371D01*
X131645906Y-123833862D01*
X131713646Y-123830313D01*
X131727187Y-123826683D01*
X131746313Y-123823138D01*
X131760256Y-123821674D01*
X131824786Y-123800706D01*
X131830951Y-123798880D01*
X131896488Y-123781320D01*
X131908976Y-123774956D01*
X131926950Y-123767510D01*
X131940284Y-123763179D01*
X131999051Y-123729248D01*
X132004693Y-123726185D01*
X132065149Y-123695383D01*
X132076031Y-123686569D01*
X132092083Y-123675537D01*
X132092679Y-123675193D01*
X132104216Y-123668533D01*
X132154654Y-123623117D01*
X132159540Y-123618945D01*
X132175380Y-123606119D01*
X132189801Y-123591696D01*
X132194484Y-123587254D01*
X132244888Y-123541871D01*
X132253130Y-123530525D01*
X132265760Y-123515737D01*
X132521053Y-123260444D01*
X132582374Y-123226961D01*
X132597914Y-123224600D01*
X132814692Y-123205635D01*
X133034496Y-123146739D01*
X133240734Y-123050568D01*
X133427139Y-122920047D01*
X133588047Y-122759139D01*
X133718568Y-122572734D01*
X133814739Y-122366496D01*
X133873635Y-122146692D01*
X133892599Y-121929922D01*
X133918051Y-121864856D01*
X133928438Y-121853059D01*
X134523819Y-121257679D01*
X134585142Y-121224194D01*
X134654834Y-121229178D01*
X134710767Y-121271050D01*
X134735184Y-121336514D01*
X134735500Y-121345360D01*
X134735500Y-123019638D01*
X134715815Y-123086677D01*
X134699181Y-123107319D01*
X130219320Y-127587181D01*
X130157997Y-127620666D01*
X130131639Y-127623500D01*
X113851627Y-127623500D01*
X113832228Y-127621973D01*
X113818389Y-127619781D01*
X113818388Y-127619781D01*
X113776563Y-127621973D01*
X113750670Y-127623330D01*
X113744180Y-127623500D01*
X113742000Y-127623500D01*
X113674961Y-127603815D01*
X113629206Y-127551011D01*
X113618000Y-127499500D01*
X113618000Y-127377000D01*
X112701686Y-127377000D01*
X112727493Y-127336844D01*
X112768000Y-127198889D01*
X112768000Y-127055111D01*
X112727493Y-126917156D01*
X112701686Y-126877000D01*
X113618000Y-126877000D01*
X113618000Y-126229172D01*
X113617999Y-126229155D01*
X113611598Y-126169627D01*
X113611596Y-126169620D01*
X113561354Y-126034913D01*
X113561350Y-126034906D01*
X113475190Y-125919812D01*
X113475187Y-125919809D01*
X113360093Y-125833649D01*
X113360088Y-125833646D01*
X113228528Y-125784577D01*
X113172595Y-125742705D01*
X113148178Y-125677241D01*
X113163030Y-125608968D01*
X113184175Y-125580720D01*
X113306495Y-125458401D01*
X113442035Y-125264830D01*
X113541903Y-125050663D01*
X113603063Y-124822408D01*
X113623659Y-124587000D01*
X113603063Y-124351592D01*
X113543919Y-124130860D01*
X113541905Y-124123344D01*
X113541904Y-124123343D01*
X113541903Y-124123337D01*
X113442035Y-123909171D01*
X113419307Y-123876711D01*
X113306494Y-123715597D01*
X113139402Y-123548506D01*
X113139396Y-123548501D01*
X112953842Y-123418575D01*
X112910217Y-123363998D01*
X112903023Y-123294500D01*
X112934546Y-123232145D01*
X112953842Y-123215425D01*
X112976026Y-123199891D01*
X113139401Y-123085495D01*
X113306495Y-122918401D01*
X113442035Y-122724830D01*
X113541903Y-122510663D01*
X113603063Y-122282408D01*
X113623659Y-122047000D01*
X113603063Y-121811592D01*
X113541903Y-121583337D01*
X113442035Y-121369171D01*
X113425363Y-121345360D01*
X113306494Y-121175597D01*
X113139402Y-121008506D01*
X113139395Y-121008501D01*
X112945834Y-120872967D01*
X112945830Y-120872965D01*
X112898087Y-120850702D01*
X112731663Y-120773097D01*
X112731659Y-120773096D01*
X112731655Y-120773094D01*
X112503413Y-120711938D01*
X112503403Y-120711936D01*
X112268001Y-120691341D01*
X112267999Y-120691341D01*
X112032596Y-120711936D01*
X112032586Y-120711938D01*
X111804344Y-120773094D01*
X111804335Y-120773098D01*
X111590171Y-120872964D01*
X111590169Y-120872965D01*
X111396597Y-121008505D01*
X111229505Y-121175597D01*
X111093965Y-121369169D01*
X111093964Y-121369171D01*
X110994098Y-121583335D01*
X110994094Y-121583344D01*
X110932938Y-121811586D01*
X110932936Y-121811596D01*
X110912341Y-122046999D01*
X110912341Y-122047000D01*
X110932936Y-122282403D01*
X110932938Y-122282413D01*
X110994094Y-122510655D01*
X110994096Y-122510659D01*
X110994097Y-122510663D01*
X111076313Y-122686976D01*
X111093965Y-122724830D01*
X111093967Y-122724834D01*
X111229501Y-122918395D01*
X111229506Y-122918402D01*
X111396597Y-123085493D01*
X111396603Y-123085498D01*
X111582158Y-123215425D01*
X111625783Y-123270002D01*
X111632977Y-123339500D01*
X111601454Y-123401855D01*
X111582158Y-123418575D01*
X111396597Y-123548505D01*
X111229505Y-123715597D01*
X111093965Y-123909169D01*
X111093964Y-123909171D01*
X110994098Y-124123335D01*
X110994094Y-124123344D01*
X110932938Y-124351586D01*
X110932936Y-124351596D01*
X110912341Y-124586999D01*
X110912341Y-124587000D01*
X110932936Y-124822403D01*
X110932938Y-124822413D01*
X110994094Y-125050655D01*
X110994096Y-125050659D01*
X110994097Y-125050663D01*
X111065326Y-125203413D01*
X111093965Y-125264830D01*
X111093967Y-125264834D01*
X111202281Y-125419521D01*
X111229501Y-125458396D01*
X111229506Y-125458402D01*
X111351818Y-125580714D01*
X111385303Y-125642037D01*
X111380319Y-125711729D01*
X111338447Y-125767662D01*
X111307471Y-125784577D01*
X111175912Y-125833646D01*
X111175906Y-125833649D01*
X111060812Y-125919809D01*
X111060809Y-125919812D01*
X110974649Y-126034906D01*
X110974645Y-126034913D01*
X110924403Y-126169620D01*
X110924401Y-126169627D01*
X110918000Y-126229155D01*
X110918000Y-126877000D01*
X111834314Y-126877000D01*
X111808507Y-126917156D01*
X111768000Y-127055111D01*
X111768000Y-127198889D01*
X111808507Y-127336844D01*
X111834314Y-127377000D01*
X110918000Y-127377000D01*
X110918000Y-127552500D01*
X110898315Y-127619539D01*
X110845511Y-127665294D01*
X110794000Y-127676500D01*
X108173361Y-127676500D01*
X108106322Y-127656815D01*
X108085680Y-127640181D01*
X106728169Y-126282670D01*
X106694684Y-126221347D01*
X106699668Y-126151655D01*
X106705360Y-126138704D01*
X106834255Y-125885736D01*
X106965742Y-125543199D01*
X107060705Y-125188794D01*
X107118102Y-124826404D01*
X107137304Y-124460000D01*
X107118102Y-124093596D01*
X107060705Y-123731206D01*
X106965742Y-123376801D01*
X106960587Y-123363373D01*
X106900037Y-123205633D01*
X106834255Y-123034264D01*
X106667682Y-122707348D01*
X106667679Y-122707343D01*
X106467852Y-122399635D01*
X106263022Y-122146692D01*
X106236949Y-122114494D01*
X105977506Y-121855051D01*
X105692366Y-121624149D01*
X105692364Y-121624147D01*
X105384656Y-121424320D01*
X105057739Y-121257746D01*
X104715206Y-121126260D01*
X104659401Y-121111307D01*
X104360794Y-121031295D01*
X104360790Y-121031294D01*
X104360789Y-121031294D01*
X104216904Y-121008505D01*
X104204073Y-121006472D01*
X104140939Y-120976544D01*
X104104008Y-120917232D01*
X104105006Y-120847370D01*
X104143616Y-120789137D01*
X104207579Y-120761023D01*
X104223472Y-120760000D01*
X105203434Y-120760000D01*
X105203436Y-120759999D01*
X105417362Y-120744699D01*
X105696895Y-120683890D01*
X105964958Y-120583908D01*
X106216038Y-120446808D01*
X106216039Y-120446807D01*
X106445065Y-120275360D01*
X106445077Y-120275350D01*
X106647350Y-120073077D01*
X106647360Y-120073065D01*
X106818807Y-119844039D01*
X106818808Y-119844038D01*
X106955908Y-119592958D01*
X107055890Y-119324895D01*
X107116699Y-119045362D01*
X107131999Y-118831436D01*
X107132000Y-118831434D01*
X107132000Y-117510000D01*
X105871615Y-117510000D01*
X105875711Y-117485719D01*
X105885777Y-117184648D01*
X105868207Y-117010000D01*
X107132000Y-117010000D01*
X107132000Y-115688566D01*
X107131999Y-115688563D01*
X107116699Y-115474637D01*
X107055890Y-115195104D01*
X106955908Y-114927041D01*
X106818808Y-114675961D01*
X106818807Y-114675960D01*
X106647360Y-114446934D01*
X106647350Y-114446922D01*
X106445077Y-114244649D01*
X106445065Y-114244639D01*
X106216039Y-114073192D01*
X106216038Y-114073191D01*
X105964957Y-113936091D01*
X105964958Y-113936091D01*
X105696895Y-113836109D01*
X105417362Y-113775300D01*
X105203436Y-113760000D01*
X103882000Y-113760000D01*
X103882000Y-115023365D01*
X103782620Y-115010000D01*
X103556772Y-115010000D01*
X103382000Y-115021699D01*
X103382000Y-113760000D01*
X102060563Y-113760000D01*
X101846637Y-113775300D01*
X101567104Y-113836109D01*
X101299041Y-113936091D01*
X101047961Y-114073191D01*
X101047960Y-114073192D01*
X100818934Y-114244639D01*
X100818922Y-114244649D01*
X100616649Y-114446922D01*
X100616639Y-114446934D01*
X100445192Y-114675960D01*
X100445191Y-114675961D01*
X100308091Y-114927041D01*
X100208109Y-115195104D01*
X100147300Y-115474637D01*
X100132000Y-115688563D01*
X100132000Y-117010000D01*
X101392385Y-117010000D01*
X101388289Y-117034281D01*
X101378223Y-117335352D01*
X101395793Y-117510000D01*
X100132000Y-117510000D01*
X100132000Y-118831436D01*
X100147300Y-119045362D01*
X100208109Y-119324895D01*
X100308091Y-119592958D01*
X100445191Y-119844038D01*
X100445192Y-119844039D01*
X100616639Y-120073065D01*
X100616649Y-120073077D01*
X100818922Y-120275350D01*
X100818934Y-120275360D01*
X101047960Y-120446807D01*
X101047961Y-120446808D01*
X101299042Y-120583908D01*
X101299041Y-120583908D01*
X101567104Y-120683890D01*
X101846637Y-120744699D01*
X102060563Y-120759999D01*
X102060566Y-120760000D01*
X103040528Y-120760000D01*
X103107567Y-120779685D01*
X103153322Y-120832489D01*
X103163266Y-120901647D01*
X103134241Y-120965203D01*
X103075463Y-121002977D01*
X103059926Y-121006472D01*
X103047096Y-121008505D01*
X102903211Y-121031294D01*
X102903209Y-121031294D01*
X102548793Y-121126260D01*
X102206260Y-121257746D01*
X101879343Y-121424320D01*
X101571635Y-121624147D01*
X101286498Y-121855047D01*
X101286490Y-121855054D01*
X101027054Y-122114490D01*
X101027047Y-122114498D01*
X100796147Y-122399635D01*
X100596320Y-122707343D01*
X100429746Y-123034260D01*
X100298260Y-123376793D01*
X100203294Y-123731209D01*
X100203294Y-123731211D01*
X100145898Y-124093594D01*
X100144677Y-124116888D01*
X100126696Y-124460000D01*
X100145898Y-124826404D01*
X100203295Y-125188794D01*
X100207209Y-125203403D01*
X100298260Y-125543206D01*
X100429746Y-125885739D01*
X100596320Y-126212656D01*
X100796147Y-126520364D01*
X100894905Y-126642320D01*
X101027051Y-126805506D01*
X101286494Y-127064949D01*
X101286498Y-127064952D01*
X101571635Y-127295852D01*
X101879343Y-127495679D01*
X101879348Y-127495682D01*
X102206264Y-127662255D01*
X102548801Y-127793742D01*
X102903206Y-127888705D01*
X103265596Y-127946102D01*
X103611734Y-127964241D01*
X103631999Y-127965304D01*
X103632000Y-127965304D01*
X103632001Y-127965304D01*
X103651203Y-127964297D01*
X103998404Y-127946102D01*
X104360794Y-127888705D01*
X104715199Y-127793742D01*
X105057736Y-127662255D01*
X105310696Y-127533364D01*
X105379363Y-127520469D01*
X105444103Y-127546745D01*
X105454670Y-127556169D01*
X107055235Y-129156734D01*
X107067869Y-129171525D01*
X107076112Y-129182871D01*
X107076113Y-129182872D01*
X107126515Y-129228254D01*
X107131207Y-129232706D01*
X107145620Y-129247119D01*
X107161441Y-129259931D01*
X107166376Y-129264146D01*
X107216781Y-129309531D01*
X107222041Y-129313352D01*
X107220864Y-129314971D01*
X107262541Y-129358683D01*
X107275762Y-129427290D01*
X107249793Y-129492154D01*
X107192877Y-129532681D01*
X107152324Y-129539500D01*
X98676500Y-129539500D01*
X98609461Y-129519815D01*
X98563706Y-129467011D01*
X98552500Y-129415500D01*
X98552500Y-61380000D01*
X100126696Y-61380000D01*
X100145898Y-61746405D01*
X100203294Y-62108788D01*
X100203294Y-62108790D01*
X100298260Y-62463206D01*
X100429746Y-62805739D01*
X100596320Y-63132656D01*
X100796147Y-63440364D01*
X100796149Y-63440366D01*
X101027051Y-63725506D01*
X101286494Y-63984949D01*
X101299748Y-63995682D01*
X101571635Y-64215852D01*
X101879343Y-64415679D01*
X101879348Y-64415682D01*
X102206264Y-64582255D01*
X102548801Y-64713742D01*
X102903206Y-64808705D01*
X103059926Y-64833527D01*
X103123061Y-64863456D01*
X103159992Y-64922768D01*
X103158994Y-64992630D01*
X103120384Y-65050863D01*
X103056421Y-65078977D01*
X103040528Y-65080000D01*
X102060563Y-65080000D01*
X101846637Y-65095300D01*
X101567104Y-65156109D01*
X101299041Y-65256091D01*
X101047961Y-65393191D01*
X101047960Y-65393192D01*
X100818934Y-65564639D01*
X100818922Y-65564649D01*
X100616649Y-65766922D01*
X100616639Y-65766934D01*
X100445192Y-65995960D01*
X100445191Y-65995961D01*
X100308091Y-66247041D01*
X100208109Y-66515104D01*
X100147300Y-66794637D01*
X100132000Y-67008563D01*
X100132000Y-68330000D01*
X101392385Y-68330000D01*
X101388289Y-68354281D01*
X101378223Y-68655352D01*
X101395793Y-68830000D01*
X100132000Y-68830000D01*
X100132000Y-70151436D01*
X100147300Y-70365362D01*
X100208109Y-70644895D01*
X100308091Y-70912958D01*
X100445191Y-71164038D01*
X100445192Y-71164039D01*
X100616639Y-71393065D01*
X100616649Y-71393077D01*
X100818922Y-71595350D01*
X100818934Y-71595360D01*
X101047960Y-71766807D01*
X101047961Y-71766808D01*
X101299042Y-71903908D01*
X101299041Y-71903908D01*
X101567104Y-72003890D01*
X101846637Y-72064699D01*
X102060563Y-72079999D01*
X102060566Y-72080000D01*
X103382000Y-72080000D01*
X103382000Y-70816634D01*
X103481380Y-70830000D01*
X103707228Y-70830000D01*
X103882000Y-70818300D01*
X103882000Y-72080000D01*
X105203434Y-72080000D01*
X105203436Y-72079999D01*
X105417362Y-72064699D01*
X105696895Y-72003890D01*
X105964958Y-71903908D01*
X106216038Y-71766808D01*
X106216039Y-71766807D01*
X106445065Y-71595360D01*
X106445077Y-71595350D01*
X106647350Y-71393077D01*
X106647360Y-71393065D01*
X106818807Y-71164039D01*
X106818808Y-71164038D01*
X106955908Y-70912958D01*
X107055890Y-70644895D01*
X107116699Y-70365362D01*
X107131999Y-70151436D01*
X107132000Y-70151434D01*
X107132000Y-68830000D01*
X105871615Y-68830000D01*
X105875711Y-68805719D01*
X105885777Y-68504648D01*
X105868207Y-68330000D01*
X107132000Y-68330000D01*
X107132000Y-67008566D01*
X107131999Y-67008563D01*
X107116699Y-66794637D01*
X107055890Y-66515104D01*
X106955908Y-66247041D01*
X106818808Y-65995961D01*
X106818807Y-65995960D01*
X106647360Y-65766934D01*
X106647350Y-65766922D01*
X106445077Y-65564649D01*
X106445065Y-65564639D01*
X106216039Y-65393192D01*
X106216038Y-65393191D01*
X105964957Y-65256091D01*
X105964958Y-65256091D01*
X105696895Y-65156109D01*
X105417362Y-65095300D01*
X105203436Y-65080000D01*
X104223472Y-65080000D01*
X104156433Y-65060315D01*
X104110678Y-65007511D01*
X104100734Y-64938353D01*
X104129759Y-64874797D01*
X104188537Y-64837023D01*
X104204074Y-64833527D01*
X104360794Y-64808705D01*
X104715199Y-64713742D01*
X105057736Y-64582255D01*
X105384652Y-64415682D01*
X105692366Y-64215851D01*
X105977506Y-63984949D01*
X106236949Y-63725506D01*
X106467851Y-63440366D01*
X106667682Y-63132652D01*
X106834255Y-62805736D01*
X106965742Y-62463199D01*
X107060705Y-62108794D01*
X107118102Y-61746404D01*
X107137304Y-61380000D01*
X107118102Y-61013596D01*
X107060705Y-60651206D01*
X106965742Y-60296801D01*
X106834255Y-59954264D01*
X106667682Y-59627348D01*
X106607230Y-59534260D01*
X106467852Y-59319635D01*
X106236952Y-59034498D01*
X106236949Y-59034494D01*
X105977506Y-58775051D01*
X105692366Y-58544149D01*
X105692364Y-58544147D01*
X105384656Y-58344320D01*
X105057739Y-58177746D01*
X104715206Y-58046260D01*
X104715199Y-58046258D01*
X104360794Y-57951295D01*
X104360790Y-57951294D01*
X104360789Y-57951294D01*
X103998405Y-57893898D01*
X103632001Y-57874696D01*
X103631999Y-57874696D01*
X103265594Y-57893898D01*
X102903211Y-57951294D01*
X102903209Y-57951294D01*
X102548793Y-58046260D01*
X102206260Y-58177746D01*
X101879343Y-58344320D01*
X101571635Y-58544147D01*
X101286498Y-58775047D01*
X101286490Y-58775054D01*
X101027054Y-59034490D01*
X101027047Y-59034498D01*
X100796147Y-59319635D01*
X100596320Y-59627343D01*
X100429746Y-59954260D01*
X100298260Y-60296793D01*
X100203294Y-60651209D01*
X100203294Y-60651211D01*
X100145898Y-61013594D01*
X100126696Y-61379999D01*
X100126696Y-61380000D01*
X98552500Y-61380000D01*
X98552500Y-56004500D01*
X98572185Y-55937461D01*
X98624989Y-55891706D01*
X98676500Y-55880500D01*
X113088301Y-55880500D01*
X113155340Y-55900185D01*
G37*
%TD.AperFunction*%
%TA.AperFunction,Conductor*%
G36*
X149294539Y-55900185D02*
G01*
X149340294Y-55952989D01*
X149351500Y-56004500D01*
X149351500Y-129415500D01*
X149331815Y-129482539D01*
X149279011Y-129528294D01*
X149227500Y-129539500D01*
X131062987Y-129539500D01*
X130995948Y-129519815D01*
X130950193Y-129467011D01*
X130940249Y-129397853D01*
X130969274Y-129334297D01*
X131006694Y-129305014D01*
X131049149Y-129283383D01*
X131060031Y-129274569D01*
X131076083Y-129263537D01*
X131078787Y-129261976D01*
X131088216Y-129256533D01*
X131138654Y-129211117D01*
X131143540Y-129206945D01*
X131159380Y-129194119D01*
X131173801Y-129179696D01*
X131178472Y-129175264D01*
X131228888Y-129129871D01*
X131237130Y-129118525D01*
X131249760Y-129103737D01*
X132845497Y-127508000D01*
X145964341Y-127508000D01*
X145984936Y-127743403D01*
X145984938Y-127743413D01*
X146046094Y-127971655D01*
X146046096Y-127971659D01*
X146046097Y-127971663D01*
X146145965Y-128185830D01*
X146145967Y-128185834D01*
X146254281Y-128340521D01*
X146281505Y-128379401D01*
X146448599Y-128546495D01*
X146545384Y-128614265D01*
X146642165Y-128682032D01*
X146642167Y-128682033D01*
X146642170Y-128682035D01*
X146856337Y-128781903D01*
X147084592Y-128843063D01*
X147272918Y-128859539D01*
X147319999Y-128863659D01*
X147320000Y-128863659D01*
X147320001Y-128863659D01*
X147359234Y-128860226D01*
X147555408Y-128843063D01*
X147783663Y-128781903D01*
X147997830Y-128682035D01*
X148191401Y-128546495D01*
X148358495Y-128379401D01*
X148494035Y-128185830D01*
X148593903Y-127971663D01*
X148655063Y-127743408D01*
X148675659Y-127508000D01*
X148655063Y-127272592D01*
X148593903Y-127044337D01*
X148494035Y-126830171D01*
X148476765Y-126805506D01*
X148358494Y-126636597D01*
X148191402Y-126469506D01*
X148191396Y-126469501D01*
X148005842Y-126339575D01*
X147962217Y-126284998D01*
X147955023Y-126215500D01*
X147986546Y-126153145D01*
X148005842Y-126136425D01*
X148028026Y-126120891D01*
X148191401Y-126006495D01*
X148358495Y-125839401D01*
X148494035Y-125645830D01*
X148593903Y-125431663D01*
X148655063Y-125203408D01*
X148675659Y-124968000D01*
X148655063Y-124732592D01*
X148593903Y-124504337D01*
X148494035Y-124290171D01*
X148372702Y-124116888D01*
X148358494Y-124096597D01*
X148191402Y-123929506D01*
X148191401Y-123929505D01*
X148007470Y-123800715D01*
X148005405Y-123799269D01*
X147961781Y-123744692D01*
X147954588Y-123675193D01*
X147986110Y-123612839D01*
X148005405Y-123596119D01*
X148191082Y-123466105D01*
X148358105Y-123299082D01*
X148493600Y-123105578D01*
X148593429Y-122891492D01*
X148593432Y-122891486D01*
X148650636Y-122678000D01*
X147753686Y-122678000D01*
X147779493Y-122637844D01*
X147820000Y-122499889D01*
X147820000Y-122356111D01*
X147779493Y-122218156D01*
X147753686Y-122178000D01*
X148650636Y-122178000D01*
X148650635Y-122177999D01*
X148593432Y-121964513D01*
X148593429Y-121964507D01*
X148493600Y-121750422D01*
X148493599Y-121750420D01*
X148358113Y-121556926D01*
X148358108Y-121556920D01*
X148191078Y-121389890D01*
X148005405Y-121259879D01*
X147961780Y-121205302D01*
X147954588Y-121135804D01*
X147986110Y-121073449D01*
X148005406Y-121056730D01*
X148041731Y-121031295D01*
X148191401Y-120926495D01*
X148358495Y-120759401D01*
X148494035Y-120565830D01*
X148593903Y-120351663D01*
X148655063Y-120123408D01*
X148675659Y-119888000D01*
X148655063Y-119652592D01*
X148593903Y-119424337D01*
X148494035Y-119210171D01*
X148487080Y-119200237D01*
X148358494Y-119016597D01*
X148191402Y-118849506D01*
X148191396Y-118849501D01*
X148005842Y-118719575D01*
X147962217Y-118664998D01*
X147955023Y-118595500D01*
X147986546Y-118533145D01*
X148005842Y-118516425D01*
X148067295Y-118473395D01*
X148191401Y-118386495D01*
X148358495Y-118219401D01*
X148494035Y-118025830D01*
X148593903Y-117811663D01*
X148655063Y-117583408D01*
X148675659Y-117348000D01*
X148655063Y-117112592D01*
X148600959Y-116910671D01*
X148593905Y-116884344D01*
X148593904Y-116884343D01*
X148593903Y-116884337D01*
X148494035Y-116670171D01*
X148489328Y-116663449D01*
X148358496Y-116476600D01*
X148331419Y-116449523D01*
X148236567Y-116354671D01*
X148203084Y-116293351D01*
X148208068Y-116223659D01*
X148249939Y-116167725D01*
X148280915Y-116150810D01*
X148412331Y-116101796D01*
X148527546Y-116015546D01*
X148613796Y-115900331D01*
X148664091Y-115765483D01*
X148670500Y-115705873D01*
X148670499Y-113910128D01*
X148664091Y-113850517D01*
X148658717Y-113836109D01*
X148613797Y-113715671D01*
X148613793Y-113715664D01*
X148527547Y-113600455D01*
X148527544Y-113600452D01*
X148412335Y-113514206D01*
X148412328Y-113514202D01*
X148277482Y-113463908D01*
X148277483Y-113463908D01*
X148217883Y-113457501D01*
X148217881Y-113457500D01*
X148217873Y-113457500D01*
X148217864Y-113457500D01*
X146422129Y-113457500D01*
X146422123Y-113457501D01*
X146362516Y-113463908D01*
X146227671Y-113514202D01*
X146227664Y-113514206D01*
X146112455Y-113600452D01*
X146112452Y-113600455D01*
X146026206Y-113715664D01*
X146026202Y-113715671D01*
X145975908Y-113850517D01*
X145969501Y-113910116D01*
X145969501Y-113910123D01*
X145969500Y-113910135D01*
X145969500Y-115705870D01*
X145969501Y-115705876D01*
X145975908Y-115765483D01*
X146026202Y-115900328D01*
X146026206Y-115900335D01*
X146112452Y-116015544D01*
X146112455Y-116015547D01*
X146227664Y-116101793D01*
X146227671Y-116101797D01*
X146359081Y-116150810D01*
X146415015Y-116192681D01*
X146439432Y-116258145D01*
X146424580Y-116326418D01*
X146403430Y-116354673D01*
X146281503Y-116476600D01*
X146145965Y-116670169D01*
X146145964Y-116670171D01*
X146046098Y-116884335D01*
X146046094Y-116884344D01*
X145984938Y-117112586D01*
X145984936Y-117112596D01*
X145964341Y-117347999D01*
X145964341Y-117348000D01*
X145984936Y-117583403D01*
X145984938Y-117583413D01*
X146046094Y-117811655D01*
X146046096Y-117811659D01*
X146046097Y-117811663D01*
X146086489Y-117898284D01*
X146145965Y-118025830D01*
X146145967Y-118025834D01*
X146281501Y-118219395D01*
X146281506Y-118219402D01*
X146448597Y-118386493D01*
X146448603Y-118386498D01*
X146634158Y-118516425D01*
X146677783Y-118571002D01*
X146684977Y-118640500D01*
X146653454Y-118702855D01*
X146634158Y-118719575D01*
X146448597Y-118849505D01*
X146281505Y-119016597D01*
X146145965Y-119210169D01*
X146145964Y-119210171D01*
X146046098Y-119424335D01*
X146046094Y-119424344D01*
X145984938Y-119652586D01*
X145984936Y-119652596D01*
X145964341Y-119887999D01*
X145964341Y-119888000D01*
X145984936Y-120123403D01*
X145984938Y-120123413D01*
X146046094Y-120351655D01*
X146046096Y-120351659D01*
X146046097Y-120351663D01*
X146103224Y-120474172D01*
X146145965Y-120565830D01*
X146145967Y-120565834D01*
X146233849Y-120691341D01*
X146281505Y-120759401D01*
X146448599Y-120926495D01*
X146598267Y-121031294D01*
X146634594Y-121056730D01*
X146678219Y-121111307D01*
X146685413Y-121180805D01*
X146653890Y-121243160D01*
X146634595Y-121259880D01*
X146448922Y-121389890D01*
X146448920Y-121389891D01*
X146281891Y-121556920D01*
X146281886Y-121556926D01*
X146146400Y-121750420D01*
X146146399Y-121750422D01*
X146046570Y-121964507D01*
X146046567Y-121964513D01*
X145989364Y-122177999D01*
X145989364Y-122178000D01*
X146886314Y-122178000D01*
X146860507Y-122218156D01*
X146820000Y-122356111D01*
X146820000Y-122499889D01*
X146860507Y-122637844D01*
X146886314Y-122678000D01*
X145989364Y-122678000D01*
X146046567Y-122891486D01*
X146046570Y-122891492D01*
X146146399Y-123105578D01*
X146281894Y-123299082D01*
X146448917Y-123466105D01*
X146634595Y-123596119D01*
X146678219Y-123650696D01*
X146685412Y-123720195D01*
X146653890Y-123782549D01*
X146634595Y-123799269D01*
X146448594Y-123929508D01*
X146281505Y-124096597D01*
X146145965Y-124290169D01*
X146145964Y-124290171D01*
X146046098Y-124504335D01*
X146046094Y-124504344D01*
X145984938Y-124732586D01*
X145984936Y-124732596D01*
X145964341Y-124967999D01*
X145964341Y-124968000D01*
X145984936Y-125203403D01*
X145984938Y-125203413D01*
X146046094Y-125431655D01*
X146046096Y-125431659D01*
X146046097Y-125431663D01*
X146115601Y-125580714D01*
X146145965Y-125645830D01*
X146145967Y-125645834D01*
X146226632Y-125761035D01*
X146277477Y-125833649D01*
X146281501Y-125839395D01*
X146281506Y-125839402D01*
X146448597Y-126006493D01*
X146448603Y-126006498D01*
X146634158Y-126136425D01*
X146677783Y-126191002D01*
X146684977Y-126260500D01*
X146653454Y-126322855D01*
X146634158Y-126339575D01*
X146448597Y-126469505D01*
X146281505Y-126636597D01*
X146145965Y-126830169D01*
X146145964Y-126830171D01*
X146046098Y-127044335D01*
X146046094Y-127044344D01*
X145984938Y-127272586D01*
X145984936Y-127272596D01*
X145964341Y-127507999D01*
X145964341Y-127508000D01*
X132845497Y-127508000D01*
X136215742Y-124137756D01*
X136230525Y-124125130D01*
X136241871Y-124116888D01*
X136287256Y-124066481D01*
X136291687Y-124061811D01*
X136306120Y-124047380D01*
X136318958Y-124031523D01*
X136323128Y-124026641D01*
X136368533Y-123976216D01*
X136375537Y-123964083D01*
X136386563Y-123948041D01*
X136395382Y-123937150D01*
X136399277Y-123929506D01*
X136426185Y-123876693D01*
X136429248Y-123871051D01*
X136463179Y-123812284D01*
X136467509Y-123798956D01*
X136474960Y-123780969D01*
X136478022Y-123774960D01*
X136481320Y-123768488D01*
X136498872Y-123702980D01*
X136500704Y-123696792D01*
X136521674Y-123632256D01*
X136523139Y-123618317D01*
X136526687Y-123599175D01*
X136527506Y-123596119D01*
X136530313Y-123585645D01*
X136533862Y-123517903D01*
X136534371Y-123511448D01*
X136536499Y-123491199D01*
X136536500Y-123491191D01*
X136536500Y-123470824D01*
X136536670Y-123464335D01*
X136540219Y-123396612D01*
X136538027Y-123382772D01*
X136536500Y-123363373D01*
X136536500Y-120984626D01*
X136538027Y-120965225D01*
X136540219Y-120951388D01*
X136536670Y-120883663D01*
X136536500Y-120877174D01*
X136536500Y-120856809D01*
X136536499Y-120856800D01*
X136534371Y-120836552D01*
X136533862Y-120830095D01*
X136530313Y-120762354D01*
X136526684Y-120748812D01*
X136523138Y-120729684D01*
X136521674Y-120715744D01*
X136500715Y-120651241D01*
X136498876Y-120645028D01*
X136483808Y-120588797D01*
X136481320Y-120579512D01*
X136474956Y-120567022D01*
X136467511Y-120549050D01*
X136463179Y-120535716D01*
X136444027Y-120502544D01*
X136429265Y-120476975D01*
X136426178Y-120471292D01*
X136395383Y-120410851D01*
X136395382Y-120410849D01*
X136386560Y-120399955D01*
X136375538Y-120383918D01*
X136368532Y-120371783D01*
X136368531Y-120371781D01*
X136323146Y-120321376D01*
X136318931Y-120316441D01*
X136306119Y-120300620D01*
X136291706Y-120286207D01*
X136287254Y-120281515D01*
X136241872Y-120231113D01*
X136241871Y-120231112D01*
X136230525Y-120222869D01*
X136215734Y-120210235D01*
X136188819Y-120183320D01*
X136155334Y-120121997D01*
X136152500Y-120095639D01*
X136152500Y-109012361D01*
X136172185Y-108945322D01*
X136188819Y-108924680D01*
X136480680Y-108632819D01*
X136542003Y-108599334D01*
X136568361Y-108596500D01*
X141651373Y-108596500D01*
X141670772Y-108598027D01*
X141684612Y-108600219D01*
X141752337Y-108596670D01*
X141758826Y-108596500D01*
X141779191Y-108596500D01*
X141779192Y-108596500D01*
X141790393Y-108595322D01*
X141799448Y-108594371D01*
X141805906Y-108593862D01*
X141873646Y-108590313D01*
X141887187Y-108586683D01*
X141906313Y-108583138D01*
X141920256Y-108581674D01*
X141984786Y-108560706D01*
X141990951Y-108558880D01*
X142056488Y-108541320D01*
X142068976Y-108534956D01*
X142086950Y-108527510D01*
X142100284Y-108523179D01*
X142159051Y-108489248D01*
X142164693Y-108486185D01*
X142225149Y-108455383D01*
X142236031Y-108446569D01*
X142252083Y-108435537D01*
X142264216Y-108428533D01*
X142314654Y-108383117D01*
X142319540Y-108378945D01*
X142335380Y-108366119D01*
X142349801Y-108351696D01*
X142354472Y-108347264D01*
X142404888Y-108301871D01*
X142413130Y-108290525D01*
X142425760Y-108275737D01*
X144036497Y-106665000D01*
X145964341Y-106665000D01*
X145984936Y-106900403D01*
X145984938Y-106900413D01*
X146046094Y-107128655D01*
X146046096Y-107128659D01*
X146046097Y-107128663D01*
X146139492Y-107328949D01*
X146145965Y-107342830D01*
X146145967Y-107342834D01*
X146254281Y-107497521D01*
X146281501Y-107536396D01*
X146281506Y-107536402D01*
X146403818Y-107658714D01*
X146437303Y-107720037D01*
X146432319Y-107789729D01*
X146390447Y-107845662D01*
X146359471Y-107862577D01*
X146227912Y-107911646D01*
X146227906Y-107911649D01*
X146112812Y-107997809D01*
X146112809Y-107997812D01*
X146026649Y-108112906D01*
X146026645Y-108112913D01*
X145976403Y-108247620D01*
X145976401Y-108247627D01*
X145970000Y-108307155D01*
X145970000Y-108955000D01*
X146886314Y-108955000D01*
X146860507Y-108995156D01*
X146820000Y-109133111D01*
X146820000Y-109276889D01*
X146860507Y-109414844D01*
X146886314Y-109455000D01*
X145970000Y-109455000D01*
X145970000Y-110102844D01*
X145976401Y-110162372D01*
X145976403Y-110162379D01*
X146026645Y-110297086D01*
X146026649Y-110297093D01*
X146112809Y-110412187D01*
X146112812Y-110412190D01*
X146227906Y-110498350D01*
X146227913Y-110498354D01*
X146362620Y-110548596D01*
X146362627Y-110548598D01*
X146422155Y-110554999D01*
X146422172Y-110555000D01*
X147070000Y-110555000D01*
X147070000Y-109640501D01*
X147177685Y-109689680D01*
X147284237Y-109705000D01*
X147355763Y-109705000D01*
X147462315Y-109689680D01*
X147570000Y-109640501D01*
X147570000Y-110555000D01*
X148217828Y-110555000D01*
X148217844Y-110554999D01*
X148277372Y-110548598D01*
X148277379Y-110548596D01*
X148412086Y-110498354D01*
X148412093Y-110498350D01*
X148527187Y-110412190D01*
X148527190Y-110412187D01*
X148613350Y-110297093D01*
X148613354Y-110297086D01*
X148663596Y-110162379D01*
X148663598Y-110162372D01*
X148669999Y-110102844D01*
X148670000Y-110102827D01*
X148670000Y-109455000D01*
X147753686Y-109455000D01*
X147779493Y-109414844D01*
X147820000Y-109276889D01*
X147820000Y-109133111D01*
X147779493Y-108995156D01*
X147753686Y-108955000D01*
X148670000Y-108955000D01*
X148670000Y-108307172D01*
X148669999Y-108307155D01*
X148663598Y-108247627D01*
X148663596Y-108247620D01*
X148613354Y-108112913D01*
X148613350Y-108112906D01*
X148527190Y-107997812D01*
X148527187Y-107997809D01*
X148412093Y-107911649D01*
X148412088Y-107911646D01*
X148280528Y-107862577D01*
X148224595Y-107820705D01*
X148200178Y-107755241D01*
X148215030Y-107686968D01*
X148236175Y-107658720D01*
X148358495Y-107536401D01*
X148494035Y-107342830D01*
X148593903Y-107128663D01*
X148655063Y-106900408D01*
X148675659Y-106665000D01*
X148655063Y-106429592D01*
X148593903Y-106201337D01*
X148494035Y-105987171D01*
X148482186Y-105970248D01*
X148358494Y-105793597D01*
X148191402Y-105626506D01*
X148191396Y-105626501D01*
X148005842Y-105496575D01*
X147962217Y-105441998D01*
X147955023Y-105372500D01*
X147986546Y-105310145D01*
X148005842Y-105293425D01*
X148106496Y-105222946D01*
X148191401Y-105163495D01*
X148358495Y-104996401D01*
X148494035Y-104802830D01*
X148593903Y-104588663D01*
X148655063Y-104360408D01*
X148675659Y-104125000D01*
X148655063Y-103889592D01*
X148593903Y-103661337D01*
X148494035Y-103447171D01*
X148482186Y-103430248D01*
X148358494Y-103253597D01*
X148191402Y-103086506D01*
X148191395Y-103086501D01*
X147997834Y-102950967D01*
X147997830Y-102950965D01*
X147966188Y-102936210D01*
X147783663Y-102851097D01*
X147783659Y-102851096D01*
X147783655Y-102851094D01*
X147555413Y-102789938D01*
X147555403Y-102789936D01*
X147320001Y-102769341D01*
X147319999Y-102769341D01*
X147084596Y-102789936D01*
X147084586Y-102789938D01*
X146856344Y-102851094D01*
X146856335Y-102851098D01*
X146642171Y-102950964D01*
X146642169Y-102950965D01*
X146448597Y-103086505D01*
X146281505Y-103253597D01*
X146145965Y-103447169D01*
X146145964Y-103447171D01*
X146046098Y-103661335D01*
X146046094Y-103661344D01*
X145984938Y-103889586D01*
X145984936Y-103889596D01*
X145964341Y-104124999D01*
X145964341Y-104125000D01*
X145984936Y-104360403D01*
X145984938Y-104360413D01*
X146046094Y-104588655D01*
X146046096Y-104588659D01*
X146046097Y-104588663D01*
X146145965Y-104802830D01*
X146145967Y-104802834D01*
X146281501Y-104996395D01*
X146281506Y-104996402D01*
X146448597Y-105163493D01*
X146448603Y-105163498D01*
X146634158Y-105293425D01*
X146677783Y-105348002D01*
X146684977Y-105417500D01*
X146653454Y-105479855D01*
X146634158Y-105496575D01*
X146448597Y-105626505D01*
X146281505Y-105793597D01*
X146145965Y-105987169D01*
X146145964Y-105987171D01*
X146046098Y-106201335D01*
X146046094Y-106201344D01*
X145984938Y-106429586D01*
X145984936Y-106429596D01*
X145964341Y-106664999D01*
X145964341Y-106665000D01*
X144036497Y-106665000D01*
X144205053Y-106496444D01*
X144266374Y-106462961D01*
X144281914Y-106460600D01*
X144498692Y-106441635D01*
X144718496Y-106382739D01*
X144924734Y-106286568D01*
X145111139Y-106156047D01*
X145272047Y-105995139D01*
X145402568Y-105808734D01*
X145498739Y-105602496D01*
X145557635Y-105382692D01*
X145576812Y-105163495D01*
X145577468Y-105156001D01*
X145577468Y-105155998D01*
X145564817Y-105011401D01*
X145557635Y-104929308D01*
X145498739Y-104709504D01*
X145402568Y-104503266D01*
X145304839Y-104363693D01*
X145272045Y-104316858D01*
X145111141Y-104155954D01*
X144924734Y-104025432D01*
X144924732Y-104025431D01*
X144718497Y-103929261D01*
X144718488Y-103929258D01*
X144498697Y-103870366D01*
X144498693Y-103870365D01*
X144498692Y-103870365D01*
X144498691Y-103870364D01*
X144498686Y-103870364D01*
X144272002Y-103850532D01*
X144271998Y-103850532D01*
X144045313Y-103870364D01*
X144045302Y-103870366D01*
X143825511Y-103929258D01*
X143825502Y-103929261D01*
X143619267Y-104025431D01*
X143619265Y-104025432D01*
X143432858Y-104155954D01*
X143271954Y-104316858D01*
X143141432Y-104503265D01*
X143141431Y-104503267D01*
X143045261Y-104709502D01*
X143045258Y-104709511D01*
X142986366Y-104929302D01*
X142986364Y-104929312D01*
X142967400Y-105146073D01*
X142941947Y-105211141D01*
X142931553Y-105222946D01*
X141395320Y-106759181D01*
X141333997Y-106792666D01*
X141307639Y-106795500D01*
X136224627Y-106795500D01*
X136205228Y-106793973D01*
X136191389Y-106791781D01*
X136191388Y-106791781D01*
X136149563Y-106793973D01*
X136123670Y-106795330D01*
X136117180Y-106795500D01*
X136096808Y-106795500D01*
X136076539Y-106797629D01*
X136070084Y-106798137D01*
X136002356Y-106801687D01*
X135988809Y-106805317D01*
X135969686Y-106808860D01*
X135955745Y-106810325D01*
X135955742Y-106810326D01*
X135891245Y-106831282D01*
X135885023Y-106833125D01*
X135819517Y-106850677D01*
X135819503Y-106850683D01*
X135807022Y-106857043D01*
X135789049Y-106864488D01*
X135775715Y-106868820D01*
X135716997Y-106902722D01*
X135711294Y-106905819D01*
X135650853Y-106936616D01*
X135650837Y-106936626D01*
X135639948Y-106945444D01*
X135623923Y-106956458D01*
X135611785Y-106963466D01*
X135611781Y-106963469D01*
X135561376Y-107008852D01*
X135556452Y-107013058D01*
X135540627Y-107025875D01*
X135540609Y-107025891D01*
X135526211Y-107040288D01*
X135521508Y-107044751D01*
X135471114Y-107090126D01*
X135462869Y-107101474D01*
X135450236Y-107116263D01*
X135224181Y-107342319D01*
X135162858Y-107375804D01*
X135093167Y-107370820D01*
X135037233Y-107328949D01*
X135012816Y-107263484D01*
X135012500Y-107254638D01*
X135012500Y-102930914D01*
X135032185Y-102863875D01*
X135084094Y-102818532D01*
X135272734Y-102730568D01*
X135459139Y-102600047D01*
X135620047Y-102439139D01*
X135750568Y-102252734D01*
X135846739Y-102046496D01*
X135905635Y-101826692D01*
X135925468Y-101600000D01*
X135905635Y-101373308D01*
X135846739Y-101153504D01*
X135750568Y-100947266D01*
X135620047Y-100760861D01*
X135620045Y-100760858D01*
X135459141Y-100599954D01*
X135272734Y-100469432D01*
X135272732Y-100469431D01*
X135066497Y-100373261D01*
X135066488Y-100373258D01*
X134846697Y-100314366D01*
X134846693Y-100314365D01*
X134846692Y-100314365D01*
X134846691Y-100314364D01*
X134846686Y-100314364D01*
X134620002Y-100294532D01*
X134619998Y-100294532D01*
X134393313Y-100314364D01*
X134393302Y-100314366D01*
X134173511Y-100373258D01*
X134173502Y-100373261D01*
X133967267Y-100469431D01*
X133967265Y-100469432D01*
X133780858Y-100599954D01*
X133619954Y-100760858D01*
X133489432Y-100947265D01*
X133489431Y-100947267D01*
X133393261Y-101153502D01*
X133393258Y-101153511D01*
X133334366Y-101373302D01*
X133334364Y-101373312D01*
X133314532Y-101599998D01*
X133314532Y-101600004D01*
X133317829Y-101637694D01*
X133304062Y-101706194D01*
X133301688Y-101710500D01*
X133284821Y-101739713D01*
X133280487Y-101753053D01*
X133273045Y-101771020D01*
X133266680Y-101783512D01*
X133249126Y-101849018D01*
X133247284Y-101855234D01*
X133226326Y-101919742D01*
X133226325Y-101919745D01*
X133224860Y-101933686D01*
X133221315Y-101952812D01*
X133217686Y-101966352D01*
X133214136Y-102034091D01*
X133213628Y-102040552D01*
X133211500Y-102060811D01*
X133211500Y-102081174D01*
X133211330Y-102087663D01*
X133209207Y-102128185D01*
X133207781Y-102155388D01*
X133208884Y-102162354D01*
X133209973Y-102169225D01*
X133211500Y-102188626D01*
X133211500Y-119971638D01*
X133191815Y-120038677D01*
X133175181Y-120059320D01*
X133049180Y-120185320D01*
X132987857Y-120218804D01*
X132918165Y-120213820D01*
X132862232Y-120171948D01*
X132837815Y-120106484D01*
X132837499Y-120097664D01*
X132837499Y-118567128D01*
X132831091Y-118507517D01*
X132820293Y-118478567D01*
X132780797Y-118372671D01*
X132780793Y-118372664D01*
X132694547Y-118257455D01*
X132694544Y-118257452D01*
X132579335Y-118171206D01*
X132579328Y-118171202D01*
X132444482Y-118120908D01*
X132444483Y-118120908D01*
X132384883Y-118114501D01*
X132384881Y-118114500D01*
X132384873Y-118114500D01*
X132384865Y-118114500D01*
X132351435Y-118114500D01*
X132284396Y-118094815D01*
X132238641Y-118042011D01*
X132228697Y-117972853D01*
X132257722Y-117909297D01*
X132280307Y-117888928D01*
X132388555Y-117813132D01*
X132545132Y-117656555D01*
X132672142Y-117475167D01*
X132765723Y-117274480D01*
X132823035Y-117060591D01*
X132842334Y-116840000D01*
X132823035Y-116619409D01*
X132765723Y-116405520D01*
X132672142Y-116204833D01*
X132545132Y-116023445D01*
X132388555Y-115866868D01*
X132207167Y-115739858D01*
X132083907Y-115682381D01*
X132031468Y-115636210D01*
X132012316Y-115569017D01*
X132032531Y-115502136D01*
X132083908Y-115457618D01*
X132207167Y-115400142D01*
X132388555Y-115273132D01*
X132545132Y-115116555D01*
X132672142Y-114935167D01*
X132765723Y-114734480D01*
X132823035Y-114520591D01*
X132842334Y-114300000D01*
X132823035Y-114079409D01*
X132765723Y-113865520D01*
X132672142Y-113664833D01*
X132545132Y-113483445D01*
X132388555Y-113326868D01*
X132207167Y-113199858D01*
X132181349Y-113187819D01*
X132083317Y-113142106D01*
X132030877Y-113095934D01*
X132011725Y-113028741D01*
X132031941Y-112961859D01*
X132083317Y-112917342D01*
X132206912Y-112859708D01*
X132206914Y-112859707D01*
X132272342Y-112813894D01*
X131713366Y-112254918D01*
X131717161Y-112254373D01*
X131850562Y-112193451D01*
X131961395Y-112097413D01*
X132040682Y-111974040D01*
X132063132Y-111897580D01*
X132625894Y-112460342D01*
X132671706Y-112394915D01*
X132765250Y-112194309D01*
X132765254Y-112194300D01*
X132822538Y-111980509D01*
X132822540Y-111980499D01*
X132841832Y-111760000D01*
X132841832Y-111759999D01*
X132822540Y-111539500D01*
X132822538Y-111539490D01*
X132765254Y-111325699D01*
X132765250Y-111325690D01*
X132671707Y-111125085D01*
X132671706Y-111125083D01*
X132625894Y-111059657D01*
X132625894Y-111059656D01*
X132063132Y-111622418D01*
X132040682Y-111545960D01*
X131961395Y-111422587D01*
X131850562Y-111326549D01*
X131717161Y-111265627D01*
X131713366Y-111265081D01*
X132272342Y-110706105D01*
X132272341Y-110706103D01*
X132206919Y-110660295D01*
X132083316Y-110602657D01*
X132030877Y-110556484D01*
X132011725Y-110489291D01*
X132031941Y-110422410D01*
X132083312Y-110377895D01*
X132207167Y-110320142D01*
X132388555Y-110193132D01*
X132545132Y-110036555D01*
X132672142Y-109855167D01*
X132765723Y-109654480D01*
X132823035Y-109440591D01*
X132842334Y-109220000D01*
X132823035Y-108999409D01*
X132765723Y-108785520D01*
X132763171Y-108780048D01*
X132694518Y-108632819D01*
X132672142Y-108584833D01*
X132545132Y-108403445D01*
X132388555Y-108246868D01*
X132207167Y-108119858D01*
X132083907Y-108062381D01*
X132031468Y-108016210D01*
X132012316Y-107949017D01*
X132032531Y-107882136D01*
X132083908Y-107837618D01*
X132207167Y-107780142D01*
X132388555Y-107653132D01*
X132545132Y-107496555D01*
X132672142Y-107315167D01*
X132765723Y-107114480D01*
X132823035Y-106900591D01*
X132842334Y-106680000D01*
X132823035Y-106459409D01*
X132765723Y-106245520D01*
X132745119Y-106201335D01*
X132724001Y-106156047D01*
X132672142Y-106044833D01*
X132545132Y-105863445D01*
X132388555Y-105706868D01*
X132207167Y-105579858D01*
X132083907Y-105522381D01*
X132031468Y-105476210D01*
X132012316Y-105409017D01*
X132032531Y-105342136D01*
X132083908Y-105297618D01*
X132092900Y-105293425D01*
X132207167Y-105240142D01*
X132388555Y-105113132D01*
X132545132Y-104956555D01*
X132672142Y-104775167D01*
X132765723Y-104574480D01*
X132823035Y-104360591D01*
X132842334Y-104140000D01*
X132823035Y-103919409D01*
X132765723Y-103705520D01*
X132745119Y-103661335D01*
X132672143Y-103504836D01*
X132672142Y-103504834D01*
X132672142Y-103504833D01*
X132545132Y-103323445D01*
X132388555Y-103166868D01*
X132207167Y-103039858D01*
X132083907Y-102982381D01*
X132031468Y-102936210D01*
X132012316Y-102869017D01*
X132032531Y-102802136D01*
X132083908Y-102757618D01*
X132207167Y-102700142D01*
X132388555Y-102573132D01*
X132545132Y-102416555D01*
X132672142Y-102235167D01*
X132765723Y-102034480D01*
X132823035Y-101820591D01*
X132842334Y-101600000D01*
X132823035Y-101379409D01*
X132765723Y-101165520D01*
X132672142Y-100964833D01*
X132545132Y-100783445D01*
X132388555Y-100626868D01*
X132207167Y-100499858D01*
X132141915Y-100469431D01*
X132083908Y-100442382D01*
X132031468Y-100396210D01*
X132012316Y-100329017D01*
X132032531Y-100262136D01*
X132083908Y-100217618D01*
X132207167Y-100160142D01*
X132388555Y-100033132D01*
X132545132Y-99876555D01*
X132672142Y-99695167D01*
X132765723Y-99494480D01*
X132823035Y-99280591D01*
X132842334Y-99060000D01*
X132823035Y-98839409D01*
X132765723Y-98625520D01*
X132672142Y-98424833D01*
X132545132Y-98243445D01*
X132388555Y-98086868D01*
X132207167Y-97959858D01*
X132083907Y-97902381D01*
X132031468Y-97856210D01*
X132012316Y-97789017D01*
X132032531Y-97722136D01*
X132083908Y-97677618D01*
X132207167Y-97620142D01*
X132388555Y-97493132D01*
X132545132Y-97336555D01*
X132672142Y-97155167D01*
X132765723Y-96954480D01*
X132823035Y-96740591D01*
X132842334Y-96520000D01*
X132823035Y-96299409D01*
X132765723Y-96085520D01*
X132672142Y-95884833D01*
X132545132Y-95703445D01*
X132388555Y-95546868D01*
X132207167Y-95419858D01*
X132083907Y-95362381D01*
X132031468Y-95316210D01*
X132012316Y-95249017D01*
X132032531Y-95182136D01*
X132083908Y-95137618D01*
X132104047Y-95128227D01*
X132207167Y-95080142D01*
X132388555Y-94953132D01*
X132545132Y-94796555D01*
X132666425Y-94623331D01*
X132720999Y-94579709D01*
X132790497Y-94572515D01*
X132852852Y-94604038D01*
X132855678Y-94606776D01*
X133976617Y-95727715D01*
X133981737Y-95733153D01*
X134021630Y-95778183D01*
X134071136Y-95812355D01*
X134077156Y-95816785D01*
X134080621Y-95819500D01*
X134124502Y-95853878D01*
X134131404Y-95856984D01*
X134133741Y-95858036D01*
X134153292Y-95869063D01*
X134158594Y-95872723D01*
X134161630Y-95874819D01*
X134217856Y-95896142D01*
X134224771Y-95899006D01*
X134279627Y-95923695D01*
X134289601Y-95925522D01*
X134311215Y-95931548D01*
X134314336Y-95932731D01*
X134320687Y-95935140D01*
X134377800Y-95942074D01*
X134380373Y-95942387D01*
X134387778Y-95943514D01*
X134408732Y-95947353D01*
X134446953Y-95954358D01*
X134506992Y-95950725D01*
X134514480Y-95950500D01*
X146097289Y-95950500D01*
X146164328Y-95970185D01*
X146198864Y-96003377D01*
X146281503Y-96121399D01*
X146281504Y-96121400D01*
X146281505Y-96121401D01*
X146403819Y-96243715D01*
X146437303Y-96305036D01*
X146432319Y-96374728D01*
X146390448Y-96430662D01*
X146359471Y-96447577D01*
X146227912Y-96496646D01*
X146227906Y-96496649D01*
X146112812Y-96582809D01*
X146112809Y-96582812D01*
X146026649Y-96697906D01*
X146026645Y-96697913D01*
X145976403Y-96832620D01*
X145976401Y-96832627D01*
X145970000Y-96892155D01*
X145970000Y-97540000D01*
X146886314Y-97540000D01*
X146860507Y-97580156D01*
X146820000Y-97718111D01*
X146820000Y-97861889D01*
X146860507Y-97999844D01*
X146886314Y-98040000D01*
X145970000Y-98040000D01*
X145970000Y-98687844D01*
X145976401Y-98747372D01*
X145976403Y-98747379D01*
X146026645Y-98882086D01*
X146026649Y-98882093D01*
X146112809Y-98997187D01*
X146112812Y-98997190D01*
X146227906Y-99083350D01*
X146227913Y-99083354D01*
X146362620Y-99133596D01*
X146362627Y-99133598D01*
X146422155Y-99139999D01*
X146422172Y-99140000D01*
X147070000Y-99140000D01*
X147070000Y-98225501D01*
X147177685Y-98274680D01*
X147284237Y-98290000D01*
X147355763Y-98290000D01*
X147462315Y-98274680D01*
X147570000Y-98225501D01*
X147570000Y-99140000D01*
X148217828Y-99140000D01*
X148217844Y-99139999D01*
X148277372Y-99133598D01*
X148277379Y-99133596D01*
X148412086Y-99083354D01*
X148412093Y-99083350D01*
X148527187Y-98997190D01*
X148527190Y-98997187D01*
X148613350Y-98882093D01*
X148613354Y-98882086D01*
X148663596Y-98747379D01*
X148663598Y-98747372D01*
X148669999Y-98687844D01*
X148670000Y-98687827D01*
X148670000Y-98040000D01*
X147753686Y-98040000D01*
X147779493Y-97999844D01*
X147820000Y-97861889D01*
X147820000Y-97718111D01*
X147779493Y-97580156D01*
X147753686Y-97540000D01*
X148670000Y-97540000D01*
X148670000Y-96892172D01*
X148669999Y-96892155D01*
X148663598Y-96832627D01*
X148663596Y-96832620D01*
X148613354Y-96697913D01*
X148613350Y-96697906D01*
X148527190Y-96582812D01*
X148527187Y-96582809D01*
X148412093Y-96496649D01*
X148412088Y-96496646D01*
X148280528Y-96447577D01*
X148224595Y-96405705D01*
X148200178Y-96340241D01*
X148215030Y-96271968D01*
X148236175Y-96243720D01*
X148358495Y-96121401D01*
X148494035Y-95927830D01*
X148593903Y-95713663D01*
X148655063Y-95485408D01*
X148675659Y-95250000D01*
X148673690Y-95227500D01*
X148669866Y-95183790D01*
X148655063Y-95014592D01*
X148593903Y-94786337D01*
X148494035Y-94572171D01*
X148471683Y-94540248D01*
X148358494Y-94378597D01*
X148191402Y-94211506D01*
X148191395Y-94211501D01*
X148175815Y-94200592D01*
X148152521Y-94184281D01*
X147997834Y-94075967D01*
X147997830Y-94075965D01*
X147997828Y-94075964D01*
X147783663Y-93976097D01*
X147783659Y-93976096D01*
X147783655Y-93976094D01*
X147555413Y-93914938D01*
X147555403Y-93914936D01*
X147320001Y-93894341D01*
X147319999Y-93894341D01*
X147084596Y-93914936D01*
X147084586Y-93914938D01*
X146856344Y-93976094D01*
X146856335Y-93976098D01*
X146642171Y-94075964D01*
X146642169Y-94075965D01*
X146448597Y-94211505D01*
X146281506Y-94378596D01*
X146198864Y-94496623D01*
X146144287Y-94540248D01*
X146097289Y-94549500D01*
X134831078Y-94549500D01*
X134764039Y-94529815D01*
X134743397Y-94513181D01*
X133347397Y-93117181D01*
X133313912Y-93055858D01*
X133318896Y-92986166D01*
X133360768Y-92930233D01*
X133426232Y-92905816D01*
X133435078Y-92905500D01*
X143990079Y-92905500D01*
X143997566Y-92905725D01*
X144057606Y-92909358D01*
X144116782Y-92898513D01*
X144124185Y-92897387D01*
X144127921Y-92896933D01*
X144183872Y-92890140D01*
X144193335Y-92886550D01*
X144214961Y-92880522D01*
X144215893Y-92880351D01*
X144224932Y-92878695D01*
X144279808Y-92853996D01*
X144286678Y-92851150D01*
X144342930Y-92829818D01*
X144351266Y-92824062D01*
X144370821Y-92813034D01*
X144380057Y-92808878D01*
X144427413Y-92771775D01*
X144433404Y-92767366D01*
X144482929Y-92733183D01*
X144522822Y-92688151D01*
X144527924Y-92682731D01*
X145907838Y-91302818D01*
X145969161Y-91269333D01*
X145995519Y-91266499D01*
X147709871Y-91266499D01*
X147709872Y-91266499D01*
X147769483Y-91260091D01*
X147904331Y-91209796D01*
X148019546Y-91123546D01*
X148105796Y-91008331D01*
X148156091Y-90873483D01*
X148162500Y-90813873D01*
X148162499Y-89018128D01*
X148156091Y-88958517D01*
X148120318Y-88862604D01*
X148112500Y-88819271D01*
X148112500Y-86948728D01*
X148120318Y-86905394D01*
X148125875Y-86890495D01*
X148156091Y-86809483D01*
X148162500Y-86749873D01*
X148162499Y-84954128D01*
X148156091Y-84894517D01*
X148154810Y-84891083D01*
X148135318Y-84838821D01*
X148127500Y-84795488D01*
X148127500Y-83138728D01*
X148135318Y-83095394D01*
X148169613Y-83003445D01*
X148171091Y-82999483D01*
X148177500Y-82939873D01*
X148177499Y-81144128D01*
X148171091Y-81084517D01*
X148169810Y-81081083D01*
X148135318Y-80988604D01*
X148127500Y-80945271D01*
X148127500Y-79328728D01*
X148135318Y-79285394D01*
X148140875Y-79270495D01*
X148171091Y-79189483D01*
X148177500Y-79129873D01*
X148177499Y-77334128D01*
X148171091Y-77274517D01*
X148120796Y-77139669D01*
X148120795Y-77139668D01*
X148120793Y-77139664D01*
X148034547Y-77024455D01*
X148034544Y-77024452D01*
X147919335Y-76938206D01*
X147919328Y-76938202D01*
X147784482Y-76887908D01*
X147784483Y-76887908D01*
X147724883Y-76881501D01*
X147724881Y-76881500D01*
X147724873Y-76881500D01*
X147724865Y-76881500D01*
X146801361Y-76881500D01*
X146734322Y-76861815D01*
X146713680Y-76845181D01*
X145996764Y-76128265D01*
X145984126Y-76113468D01*
X145975887Y-76102128D01*
X145925483Y-76056743D01*
X145920775Y-76052275D01*
X145906383Y-76037883D01*
X145890554Y-76025063D01*
X145885627Y-76020855D01*
X145835220Y-75975470D01*
X145835213Y-75975465D01*
X145823070Y-75968454D01*
X145807043Y-75957438D01*
X145796153Y-75948620D01*
X145796147Y-75948616D01*
X145735712Y-75917822D01*
X145730009Y-75914726D01*
X145671282Y-75880820D01*
X145657949Y-75876488D01*
X145639978Y-75869043D01*
X145627498Y-75862684D01*
X145627486Y-75862679D01*
X145561976Y-75845125D01*
X145555755Y-75843282D01*
X145491262Y-75822328D01*
X145491256Y-75822326D01*
X145491251Y-75822325D01*
X145491249Y-75822325D01*
X145477314Y-75820860D01*
X145458189Y-75817315D01*
X145444653Y-75813688D01*
X145444643Y-75813686D01*
X145376909Y-75810136D01*
X145370448Y-75809628D01*
X145361228Y-75808659D01*
X145350192Y-75807500D01*
X145350188Y-75807500D01*
X145329826Y-75807500D01*
X145323337Y-75807330D01*
X145255610Y-75803780D01*
X145241772Y-75805973D01*
X145222373Y-75807500D01*
X134775591Y-75807500D01*
X134708552Y-75787815D01*
X134687910Y-75771181D01*
X134530306Y-75613577D01*
X134496821Y-75552254D01*
X134501805Y-75482562D01*
X134543677Y-75426629D01*
X134584532Y-75406494D01*
X134817058Y-75341344D01*
X134930015Y-75292279D01*
X135080617Y-75226865D01*
X135080620Y-75226863D01*
X135080625Y-75226861D01*
X135326147Y-75077555D01*
X135549053Y-74896208D01*
X135745189Y-74686198D01*
X135910901Y-74451436D01*
X136043104Y-74196297D01*
X136139334Y-73925532D01*
X136197798Y-73644186D01*
X136217408Y-73357500D01*
X136197798Y-73070814D01*
X136139334Y-72789468D01*
X136043105Y-72518706D01*
X136043106Y-72518706D01*
X135910901Y-72263564D01*
X135745187Y-72028799D01*
X135549049Y-71818788D01*
X135458245Y-71744914D01*
X135418665Y-71687337D01*
X135412500Y-71648726D01*
X135412500Y-60960000D01*
X140766696Y-60960000D01*
X140785898Y-61326405D01*
X140843294Y-61688788D01*
X140843294Y-61688790D01*
X140938260Y-62043206D01*
X141069746Y-62385739D01*
X141236320Y-62712656D01*
X141436147Y-63020364D01*
X141436149Y-63020366D01*
X141667051Y-63305506D01*
X141926494Y-63564949D01*
X141926498Y-63564952D01*
X142211635Y-63795852D01*
X142502825Y-63984952D01*
X142519348Y-63995682D01*
X142846264Y-64162255D01*
X143188801Y-64293742D01*
X143543206Y-64388705D01*
X143699926Y-64413527D01*
X143763061Y-64443456D01*
X143799992Y-64502768D01*
X143798994Y-64572630D01*
X143760384Y-64630863D01*
X143696421Y-64658977D01*
X143680528Y-64660000D01*
X142700563Y-64660000D01*
X142486637Y-64675300D01*
X142207104Y-64736109D01*
X141939041Y-64836091D01*
X141687961Y-64973191D01*
X141687960Y-64973192D01*
X141458934Y-65144639D01*
X141458922Y-65144649D01*
X141256649Y-65346922D01*
X141256639Y-65346934D01*
X141085192Y-65575960D01*
X141085191Y-65575961D01*
X140948091Y-65827041D01*
X140848109Y-66095104D01*
X140787300Y-66374637D01*
X140772000Y-66588563D01*
X140772000Y-67910000D01*
X142032385Y-67910000D01*
X142028289Y-67934281D01*
X142018223Y-68235352D01*
X142035793Y-68410000D01*
X140772000Y-68410000D01*
X140772000Y-69731436D01*
X140787300Y-69945362D01*
X140848109Y-70224895D01*
X140948091Y-70492958D01*
X141085191Y-70744038D01*
X141085192Y-70744039D01*
X141256639Y-70973065D01*
X141256649Y-70973077D01*
X141458922Y-71175350D01*
X141458934Y-71175360D01*
X141687960Y-71346807D01*
X141687961Y-71346808D01*
X141939042Y-71483908D01*
X141939041Y-71483908D01*
X142207104Y-71583890D01*
X142486637Y-71644699D01*
X142700563Y-71659999D01*
X142700566Y-71660000D01*
X144022000Y-71660000D01*
X144022000Y-70396634D01*
X144121380Y-70410000D01*
X144347228Y-70410000D01*
X144522000Y-70398300D01*
X144522000Y-71660000D01*
X145843434Y-71660000D01*
X145843436Y-71659999D01*
X146057362Y-71644699D01*
X146336895Y-71583890D01*
X146604958Y-71483908D01*
X146856038Y-71346808D01*
X146856039Y-71346807D01*
X147085065Y-71175360D01*
X147085077Y-71175350D01*
X147287350Y-70973077D01*
X147287360Y-70973065D01*
X147458807Y-70744039D01*
X147458808Y-70744038D01*
X147595908Y-70492958D01*
X147695890Y-70224895D01*
X147756699Y-69945362D01*
X147771999Y-69731436D01*
X147772000Y-69731434D01*
X147772000Y-68410000D01*
X146511615Y-68410000D01*
X146515711Y-68385719D01*
X146525777Y-68084648D01*
X146508207Y-67910000D01*
X147772000Y-67910000D01*
X147772000Y-66588566D01*
X147771999Y-66588563D01*
X147756699Y-66374637D01*
X147695890Y-66095104D01*
X147595908Y-65827041D01*
X147458808Y-65575961D01*
X147458807Y-65575960D01*
X147287360Y-65346934D01*
X147287350Y-65346922D01*
X147085077Y-65144649D01*
X147085065Y-65144639D01*
X146856039Y-64973192D01*
X146856038Y-64973191D01*
X146604957Y-64836091D01*
X146604958Y-64836091D01*
X146336895Y-64736109D01*
X146057362Y-64675300D01*
X145843436Y-64660000D01*
X144863472Y-64660000D01*
X144796433Y-64640315D01*
X144750678Y-64587511D01*
X144740734Y-64518353D01*
X144769759Y-64454797D01*
X144828537Y-64417023D01*
X144844074Y-64413527D01*
X145000794Y-64388705D01*
X145355199Y-64293742D01*
X145697736Y-64162255D01*
X146024652Y-63995682D01*
X146332366Y-63795851D01*
X146617506Y-63564949D01*
X146876949Y-63305506D01*
X147107851Y-63020366D01*
X147307682Y-62712652D01*
X147474255Y-62385736D01*
X147605742Y-62043199D01*
X147700705Y-61688794D01*
X147758102Y-61326404D01*
X147777304Y-60960000D01*
X147758102Y-60593596D01*
X147700705Y-60231206D01*
X147605742Y-59876801D01*
X147474255Y-59534264D01*
X147307682Y-59207348D01*
X147262372Y-59137576D01*
X147107852Y-58899635D01*
X147005557Y-58773311D01*
X146876949Y-58614494D01*
X146617506Y-58355051D01*
X146398553Y-58177746D01*
X146332364Y-58124147D01*
X146024656Y-57924320D01*
X145697739Y-57757746D01*
X145355206Y-57626260D01*
X145355199Y-57626258D01*
X145000794Y-57531295D01*
X145000790Y-57531294D01*
X145000789Y-57531294D01*
X144638405Y-57473898D01*
X144272001Y-57454696D01*
X144271999Y-57454696D01*
X143905594Y-57473898D01*
X143543211Y-57531294D01*
X143543209Y-57531294D01*
X143188793Y-57626260D01*
X142846260Y-57757746D01*
X142519343Y-57924320D01*
X142211635Y-58124147D01*
X141926498Y-58355047D01*
X141926490Y-58355054D01*
X141667054Y-58614490D01*
X141667047Y-58614498D01*
X141436147Y-58899635D01*
X141236320Y-59207343D01*
X141069746Y-59534260D01*
X140938260Y-59876793D01*
X140843294Y-60231209D01*
X140843294Y-60231211D01*
X140785898Y-60593594D01*
X140766696Y-60959999D01*
X140766696Y-60960000D01*
X135412500Y-60960000D01*
X135412500Y-59826273D01*
X135432185Y-59759234D01*
X135458245Y-59730085D01*
X135549053Y-59656208D01*
X135745189Y-59446198D01*
X135910901Y-59211436D01*
X136043104Y-58956297D01*
X136139334Y-58685532D01*
X136197798Y-58404186D01*
X136217408Y-58117500D01*
X136197798Y-57830814D01*
X136139334Y-57549468D01*
X136043105Y-57278706D01*
X136043106Y-57278706D01*
X135910901Y-57023564D01*
X135745187Y-56788799D01*
X135666554Y-56704605D01*
X135549053Y-56578792D01*
X135326147Y-56397445D01*
X135326146Y-56397444D01*
X135080617Y-56248134D01*
X134817063Y-56133658D01*
X134817061Y-56133657D01*
X134817058Y-56133656D01*
X134782243Y-56123901D01*
X134723002Y-56086860D01*
X134693190Y-56023670D01*
X134702274Y-55954393D01*
X134747369Y-55901025D01*
X134814159Y-55880510D01*
X134815699Y-55880500D01*
X149227500Y-55880500D01*
X149294539Y-55900185D01*
G37*
%TD.AperFunction*%
%TA.AperFunction,Conductor*%
G36*
X115280094Y-107400185D02*
G01*
X115314628Y-107433374D01*
X115358868Y-107496555D01*
X115515445Y-107653132D01*
X115696833Y-107780142D01*
X115758828Y-107809050D01*
X115820091Y-107837618D01*
X115872531Y-107883790D01*
X115891683Y-107950983D01*
X115871467Y-108017865D01*
X115820091Y-108062382D01*
X115696836Y-108119856D01*
X115696834Y-108119857D01*
X115515444Y-108246868D01*
X115358868Y-108403444D01*
X115231857Y-108584834D01*
X115231856Y-108584836D01*
X115138279Y-108785513D01*
X115138275Y-108785524D01*
X115080965Y-108999407D01*
X115080964Y-108999414D01*
X115061666Y-109219998D01*
X115061666Y-109220001D01*
X115080964Y-109440585D01*
X115080965Y-109440592D01*
X115138275Y-109654475D01*
X115138279Y-109654486D01*
X115168829Y-109720000D01*
X115231858Y-109855167D01*
X115358868Y-110036555D01*
X115515445Y-110193132D01*
X115696833Y-110320142D01*
X115758828Y-110349050D01*
X115820091Y-110377618D01*
X115872531Y-110423790D01*
X115891683Y-110490983D01*
X115871467Y-110557865D01*
X115820091Y-110602382D01*
X115696836Y-110659856D01*
X115696834Y-110659857D01*
X115515444Y-110786868D01*
X115358868Y-110943444D01*
X115231857Y-111124834D01*
X115231856Y-111124836D01*
X115138279Y-111325513D01*
X115138275Y-111325524D01*
X115080965Y-111539407D01*
X115080964Y-111539414D01*
X115061666Y-111759998D01*
X115061666Y-111760001D01*
X115080964Y-111980585D01*
X115080965Y-111980592D01*
X115138275Y-112194475D01*
X115138279Y-112194486D01*
X115166205Y-112254373D01*
X115231858Y-112395167D01*
X115358868Y-112576555D01*
X115515445Y-112733132D01*
X115696833Y-112860142D01*
X115758828Y-112889050D01*
X115820091Y-112917618D01*
X115872531Y-112963790D01*
X115891683Y-113030983D01*
X115871467Y-113097865D01*
X115820091Y-113142382D01*
X115696836Y-113199856D01*
X115696834Y-113199857D01*
X115515444Y-113326868D01*
X115358868Y-113483444D01*
X115231857Y-113664834D01*
X115231856Y-113664836D01*
X115138279Y-113865513D01*
X115138275Y-113865524D01*
X115080965Y-114079407D01*
X115080964Y-114079414D01*
X115061666Y-114299998D01*
X115061666Y-114300001D01*
X115080964Y-114520585D01*
X115080965Y-114520592D01*
X115138275Y-114734475D01*
X115138279Y-114734486D01*
X115228069Y-114927041D01*
X115231858Y-114935167D01*
X115358868Y-115116555D01*
X115515445Y-115273132D01*
X115696833Y-115400142D01*
X115820682Y-115457893D01*
X115873122Y-115504065D01*
X115892274Y-115571258D01*
X115872059Y-115638139D01*
X115820683Y-115682657D01*
X115697084Y-115740293D01*
X115631657Y-115786104D01*
X116190634Y-116345081D01*
X116186839Y-116345627D01*
X116053438Y-116406549D01*
X115942605Y-116502587D01*
X115863318Y-116625960D01*
X115840866Y-116702419D01*
X115278104Y-116139657D01*
X115232293Y-116205084D01*
X115138749Y-116405690D01*
X115138745Y-116405699D01*
X115091626Y-116581554D01*
X115055261Y-116641215D01*
X114992414Y-116671744D01*
X114923039Y-116663449D01*
X114870276Y-116620584D01*
X114792045Y-116508858D01*
X114631141Y-116347954D01*
X114444734Y-116217432D01*
X114444732Y-116217431D01*
X114256095Y-116129467D01*
X114203656Y-116083294D01*
X114184500Y-116017085D01*
X114184500Y-109702048D01*
X114204185Y-109635009D01*
X114220814Y-109614371D01*
X114284047Y-109551139D01*
X114414568Y-109364734D01*
X114510739Y-109158496D01*
X114569635Y-108938692D01*
X114589468Y-108712000D01*
X114569635Y-108485308D01*
X114520483Y-108301871D01*
X114510741Y-108265511D01*
X114510738Y-108265502D01*
X114446579Y-108127913D01*
X114414568Y-108059266D01*
X114311204Y-107911646D01*
X114284045Y-107872858D01*
X114123141Y-107711954D01*
X113971928Y-107606075D01*
X113928303Y-107551499D01*
X113921109Y-107482000D01*
X113952631Y-107419645D01*
X114012861Y-107384231D01*
X114043051Y-107380500D01*
X115213055Y-107380500D01*
X115280094Y-107400185D01*
G37*
%TD.AperFunction*%
%TA.AperFunction,Conductor*%
G36*
X130007520Y-98490185D02*
G01*
X130028162Y-98506819D01*
X130283279Y-98761935D01*
X130316764Y-98823258D01*
X130319126Y-98860423D01*
X130301666Y-99059997D01*
X130301666Y-99060001D01*
X130320964Y-99280585D01*
X130320965Y-99280592D01*
X130378275Y-99494475D01*
X130378279Y-99494486D01*
X130471856Y-99695163D01*
X130471858Y-99695167D01*
X130598868Y-99876555D01*
X130755445Y-100033132D01*
X130936833Y-100160142D01*
X130998828Y-100189050D01*
X131060091Y-100217618D01*
X131112531Y-100263790D01*
X131131683Y-100330983D01*
X131111467Y-100397865D01*
X131060091Y-100442382D01*
X130936836Y-100499856D01*
X130936834Y-100499857D01*
X130755444Y-100626868D01*
X130598868Y-100783444D01*
X130575712Y-100816514D01*
X130554628Y-100846625D01*
X130500053Y-100890248D01*
X130453055Y-100899500D01*
X127849518Y-100899500D01*
X127782479Y-100879815D01*
X127761837Y-100863181D01*
X126910503Y-100011846D01*
X126877018Y-99950523D01*
X126874865Y-99937143D01*
X126869674Y-99887744D01*
X126866038Y-99876555D01*
X126811181Y-99707722D01*
X126811180Y-99707721D01*
X126811179Y-99707716D01*
X126716533Y-99543784D01*
X126589871Y-99403112D01*
X126589870Y-99403111D01*
X126436734Y-99291851D01*
X126436729Y-99291848D01*
X126263807Y-99214857D01*
X126263802Y-99214855D01*
X126118001Y-99183865D01*
X126078646Y-99175500D01*
X125889354Y-99175500D01*
X125856897Y-99182398D01*
X125704197Y-99214855D01*
X125704192Y-99214857D01*
X125531270Y-99291848D01*
X125531265Y-99291851D01*
X125378129Y-99403111D01*
X125251466Y-99543785D01*
X125156821Y-99707715D01*
X125156818Y-99707722D01*
X125098327Y-99887740D01*
X125098326Y-99887744D01*
X125078540Y-100076000D01*
X125098326Y-100264256D01*
X125098327Y-100264259D01*
X125156818Y-100444277D01*
X125156821Y-100444284D01*
X125251467Y-100608216D01*
X125359859Y-100728597D01*
X125378129Y-100748888D01*
X125531265Y-100860148D01*
X125531270Y-100860151D01*
X125704191Y-100937142D01*
X125704193Y-100937142D01*
X125704197Y-100937144D01*
X125859130Y-100970075D01*
X125920607Y-101003266D01*
X125921026Y-101003683D01*
X126995051Y-102077707D01*
X127000171Y-102083145D01*
X127001300Y-102084419D01*
X127040073Y-102128185D01*
X127089576Y-102162354D01*
X127095612Y-102166795D01*
X127142939Y-102203875D01*
X127142942Y-102203876D01*
X127142943Y-102203877D01*
X127152176Y-102208032D01*
X127171728Y-102219060D01*
X127180070Y-102224818D01*
X127236322Y-102246151D01*
X127243228Y-102249012D01*
X127298063Y-102273692D01*
X127298064Y-102273692D01*
X127298068Y-102273694D01*
X127308030Y-102275519D01*
X127329651Y-102281546D01*
X127339125Y-102285139D01*
X127339128Y-102285140D01*
X127383234Y-102290495D01*
X127398830Y-102292389D01*
X127406235Y-102293516D01*
X127427400Y-102297394D01*
X127465394Y-102304357D01*
X127525422Y-102300726D01*
X127532909Y-102300500D01*
X130453055Y-102300500D01*
X130520094Y-102320185D01*
X130554628Y-102353374D01*
X130598868Y-102416555D01*
X130755445Y-102573132D01*
X130936833Y-102700142D01*
X130998828Y-102729050D01*
X131060091Y-102757618D01*
X131112531Y-102803790D01*
X131131683Y-102870983D01*
X131111467Y-102937865D01*
X131060091Y-102982382D01*
X130936836Y-103039856D01*
X130936834Y-103039857D01*
X130755444Y-103166868D01*
X130598868Y-103323444D01*
X130471857Y-103504834D01*
X130471856Y-103504836D01*
X130378279Y-103705513D01*
X130378275Y-103705524D01*
X130320965Y-103919407D01*
X130320964Y-103919414D01*
X130301666Y-104139998D01*
X130301666Y-104140001D01*
X130320964Y-104360585D01*
X130320965Y-104360592D01*
X130378275Y-104574475D01*
X130378279Y-104574486D01*
X130441238Y-104709502D01*
X130471858Y-104775167D01*
X130598868Y-104956555D01*
X130755445Y-105113132D01*
X130936833Y-105240142D01*
X130998828Y-105269050D01*
X131060091Y-105297618D01*
X131112531Y-105343790D01*
X131131683Y-105410983D01*
X131111467Y-105477865D01*
X131060091Y-105522382D01*
X130936836Y-105579856D01*
X130936834Y-105579857D01*
X130755444Y-105706868D01*
X130598868Y-105863444D01*
X130471857Y-106044834D01*
X130471856Y-106044836D01*
X130378279Y-106245513D01*
X130378275Y-106245524D01*
X130320965Y-106459407D01*
X130320964Y-106459414D01*
X130301666Y-106679998D01*
X130301666Y-106680001D01*
X130320964Y-106900585D01*
X130320965Y-106900592D01*
X130378275Y-107114475D01*
X130378279Y-107114486D01*
X130443633Y-107254638D01*
X130471858Y-107315167D01*
X130598868Y-107496555D01*
X130755445Y-107653132D01*
X130936833Y-107780142D01*
X130998828Y-107809050D01*
X131060091Y-107837618D01*
X131112531Y-107883790D01*
X131131683Y-107950983D01*
X131111467Y-108017865D01*
X131060091Y-108062382D01*
X130936836Y-108119856D01*
X130936834Y-108119857D01*
X130755444Y-108246868D01*
X130598868Y-108403444D01*
X130471857Y-108584834D01*
X130471856Y-108584836D01*
X130378279Y-108785513D01*
X130378275Y-108785524D01*
X130320965Y-108999407D01*
X130320964Y-108999414D01*
X130301666Y-109219998D01*
X130301666Y-109220001D01*
X130320964Y-109440585D01*
X130320965Y-109440592D01*
X130378275Y-109654475D01*
X130378279Y-109654486D01*
X130408829Y-109720000D01*
X130471858Y-109855167D01*
X130598868Y-110036555D01*
X130755445Y-110193132D01*
X130936833Y-110320142D01*
X131060682Y-110377893D01*
X131113122Y-110424065D01*
X131132274Y-110491258D01*
X131112059Y-110558139D01*
X131060683Y-110602657D01*
X130937084Y-110660293D01*
X130871657Y-110706104D01*
X131430634Y-111265081D01*
X131426839Y-111265627D01*
X131293438Y-111326549D01*
X131182605Y-111422587D01*
X131103318Y-111545960D01*
X131080866Y-111622419D01*
X130518104Y-111059657D01*
X130472293Y-111125084D01*
X130378749Y-111325690D01*
X130378745Y-111325699D01*
X130321461Y-111539490D01*
X130321459Y-111539500D01*
X130302168Y-111759999D01*
X130302168Y-111760000D01*
X130321459Y-111980499D01*
X130321461Y-111980509D01*
X130378745Y-112194300D01*
X130378749Y-112194309D01*
X130472295Y-112394919D01*
X130518103Y-112460341D01*
X130518105Y-112460342D01*
X131080866Y-111897580D01*
X131103318Y-111974040D01*
X131182605Y-112097413D01*
X131293438Y-112193451D01*
X131426839Y-112254373D01*
X131430633Y-112254918D01*
X130871656Y-112813894D01*
X130937083Y-112859706D01*
X130937085Y-112859707D01*
X131060683Y-112917342D01*
X131113122Y-112963514D01*
X131132274Y-113030708D01*
X131112058Y-113097589D01*
X131060683Y-113142106D01*
X130936833Y-113199857D01*
X130755444Y-113326868D01*
X130598868Y-113483444D01*
X130577332Y-113514202D01*
X130554628Y-113546625D01*
X130500053Y-113590248D01*
X130453055Y-113599500D01*
X129132156Y-113599500D01*
X129065117Y-113579815D01*
X129059271Y-113575818D01*
X128976734Y-113515851D01*
X128976729Y-113515848D01*
X128803807Y-113438857D01*
X128803802Y-113438855D01*
X128658001Y-113407865D01*
X128618646Y-113399500D01*
X128429354Y-113399500D01*
X128396897Y-113406398D01*
X128244197Y-113438855D01*
X128244192Y-113438857D01*
X128071270Y-113515848D01*
X128071265Y-113515851D01*
X127918129Y-113627111D01*
X127791466Y-113767785D01*
X127696821Y-113931715D01*
X127696818Y-113931722D01*
X127638326Y-114111742D01*
X127637791Y-114114262D01*
X127637079Y-114115579D01*
X127636318Y-114117924D01*
X127635889Y-114117784D01*
X127604600Y-114175745D01*
X127543438Y-114209524D01*
X127473724Y-114204873D01*
X127417590Y-114163270D01*
X127392860Y-114097924D01*
X127392500Y-114088485D01*
X127392500Y-113364626D01*
X127394027Y-113345225D01*
X127396219Y-113331388D01*
X127392670Y-113263668D01*
X127392500Y-113257179D01*
X127392500Y-113236813D01*
X127392500Y-113236808D01*
X127390366Y-113216508D01*
X127389861Y-113210089D01*
X127386312Y-113142354D01*
X127386311Y-113142348D01*
X127382687Y-113128825D01*
X127379139Y-113109684D01*
X127377674Y-113095748D01*
X127377674Y-113095744D01*
X127356707Y-113031219D01*
X127354871Y-113025016D01*
X127338392Y-112963514D01*
X127337320Y-112959512D01*
X127330954Y-112947019D01*
X127323508Y-112929042D01*
X127319178Y-112915714D01*
X127319174Y-112915707D01*
X127285265Y-112856975D01*
X127282178Y-112851292D01*
X127251383Y-112790851D01*
X127251382Y-112790849D01*
X127242560Y-112779955D01*
X127231538Y-112763918D01*
X127224532Y-112751783D01*
X127224531Y-112751781D01*
X127179146Y-112701376D01*
X127174931Y-112696441D01*
X127162119Y-112680620D01*
X127161684Y-112680185D01*
X127147706Y-112666207D01*
X127143254Y-112661515D01*
X127097872Y-112611113D01*
X127097871Y-112611112D01*
X127086525Y-112602869D01*
X127071734Y-112590235D01*
X125661764Y-111180265D01*
X125649126Y-111165468D01*
X125640887Y-111154128D01*
X125590483Y-111108743D01*
X125585775Y-111104275D01*
X125571383Y-111089883D01*
X125555554Y-111077063D01*
X125550627Y-111072855D01*
X125500220Y-111027470D01*
X125500213Y-111027465D01*
X125488070Y-111020454D01*
X125472043Y-111009438D01*
X125461153Y-111000620D01*
X125461147Y-111000616D01*
X125400712Y-110969822D01*
X125395009Y-110966726D01*
X125354685Y-110943445D01*
X125336284Y-110932821D01*
X125336283Y-110932820D01*
X125336282Y-110932820D01*
X125322949Y-110928488D01*
X125304978Y-110921043D01*
X125292498Y-110914684D01*
X125292486Y-110914679D01*
X125226976Y-110897125D01*
X125220755Y-110895282D01*
X125156262Y-110874328D01*
X125156256Y-110874326D01*
X125156251Y-110874325D01*
X125156249Y-110874325D01*
X125142314Y-110872860D01*
X125123189Y-110869315D01*
X125109653Y-110865688D01*
X125109643Y-110865686D01*
X125041909Y-110862136D01*
X125035448Y-110861628D01*
X125026228Y-110860659D01*
X125015192Y-110859500D01*
X125015188Y-110859500D01*
X124994826Y-110859500D01*
X124988337Y-110859330D01*
X124920610Y-110855780D01*
X124906772Y-110857973D01*
X124887373Y-110859500D01*
X117272549Y-110859500D01*
X117205510Y-110839815D01*
X117184868Y-110823181D01*
X117148555Y-110786868D01*
X117033214Y-110706105D01*
X116967167Y-110659858D01*
X116843907Y-110602381D01*
X116791468Y-110556210D01*
X116772316Y-110489017D01*
X116792531Y-110422136D01*
X116843908Y-110377618D01*
X116967167Y-110320142D01*
X117148555Y-110193132D01*
X117305132Y-110036555D01*
X117432142Y-109855167D01*
X117525723Y-109654480D01*
X117583035Y-109440591D01*
X117602334Y-109220000D01*
X117583035Y-108999409D01*
X117525723Y-108785520D01*
X117523171Y-108780048D01*
X117454518Y-108632819D01*
X117432142Y-108584833D01*
X117305132Y-108403445D01*
X117148555Y-108246868D01*
X116967167Y-108119858D01*
X116843907Y-108062381D01*
X116791468Y-108016210D01*
X116772316Y-107949017D01*
X116792531Y-107882136D01*
X116843908Y-107837618D01*
X116967167Y-107780142D01*
X117148555Y-107653132D01*
X117305132Y-107496555D01*
X117432142Y-107315167D01*
X117525723Y-107114480D01*
X117583035Y-106900591D01*
X117602334Y-106680000D01*
X117583035Y-106459409D01*
X117525723Y-106245520D01*
X117505119Y-106201335D01*
X117484001Y-106156047D01*
X117432142Y-106044833D01*
X117305132Y-105863445D01*
X117148555Y-105706868D01*
X116967167Y-105579858D01*
X116843907Y-105522381D01*
X116791468Y-105476210D01*
X116772316Y-105409017D01*
X116792531Y-105342136D01*
X116843908Y-105297618D01*
X116852900Y-105293425D01*
X116967167Y-105240142D01*
X117148555Y-105113132D01*
X117305132Y-104956555D01*
X117432142Y-104775167D01*
X117525723Y-104574480D01*
X117583035Y-104360591D01*
X117602334Y-104140000D01*
X117583035Y-103919409D01*
X117525723Y-103705520D01*
X117505119Y-103661335D01*
X117432143Y-103504836D01*
X117432142Y-103504834D01*
X117432142Y-103504833D01*
X117305132Y-103323445D01*
X117148555Y-103166868D01*
X116967167Y-103039858D01*
X116843907Y-102982381D01*
X116791468Y-102936210D01*
X116772316Y-102869017D01*
X116792531Y-102802136D01*
X116843908Y-102757618D01*
X116967167Y-102700142D01*
X117148555Y-102573132D01*
X117305132Y-102416555D01*
X117432142Y-102235167D01*
X117525723Y-102034480D01*
X117583035Y-101820591D01*
X117602334Y-101600000D01*
X117583035Y-101379409D01*
X117525723Y-101165520D01*
X117432142Y-100964833D01*
X117305132Y-100783445D01*
X117148555Y-100626868D01*
X116967167Y-100499858D01*
X116901915Y-100469431D01*
X116843908Y-100442382D01*
X116791468Y-100396210D01*
X116772316Y-100329017D01*
X116792531Y-100262136D01*
X116843908Y-100217618D01*
X116967167Y-100160142D01*
X117148555Y-100033132D01*
X117305132Y-99876555D01*
X117432142Y-99695167D01*
X117525723Y-99494480D01*
X117583035Y-99280591D01*
X117602334Y-99060000D01*
X117583035Y-98839409D01*
X117526011Y-98626594D01*
X117527674Y-98556744D01*
X117566836Y-98498881D01*
X117631065Y-98471377D01*
X117645786Y-98470500D01*
X129940481Y-98470500D01*
X130007520Y-98490185D01*
G37*
%TD.AperFunction*%
%TA.AperFunction,Conductor*%
G36*
X132445658Y-76079935D02*
G01*
X132466300Y-76096569D01*
X133657465Y-77287734D01*
X133670102Y-77302529D01*
X133678343Y-77313872D01*
X133728745Y-77359254D01*
X133733437Y-77363706D01*
X133747850Y-77378119D01*
X133763671Y-77390931D01*
X133768606Y-77395146D01*
X133819011Y-77440531D01*
X133819012Y-77440531D01*
X133819014Y-77440533D01*
X133831148Y-77447538D01*
X133847185Y-77458560D01*
X133858079Y-77467382D01*
X133858081Y-77467383D01*
X133918522Y-77498178D01*
X133924205Y-77501265D01*
X133982937Y-77535174D01*
X133982946Y-77535179D01*
X133996276Y-77539510D01*
X134014249Y-77546954D01*
X134026742Y-77553320D01*
X134073617Y-77565879D01*
X134092246Y-77570871D01*
X134098449Y-77572707D01*
X134162974Y-77593674D01*
X134173346Y-77594763D01*
X134176914Y-77595139D01*
X134196055Y-77598687D01*
X134209578Y-77602311D01*
X134209584Y-77602312D01*
X134277319Y-77605861D01*
X134283738Y-77606366D01*
X134304038Y-77608500D01*
X134324410Y-77608500D01*
X134330899Y-77608669D01*
X134398618Y-77612219D01*
X134412458Y-77610027D01*
X134431857Y-77608500D01*
X140354843Y-77608500D01*
X140421882Y-77628185D01*
X140467637Y-77680989D01*
X140477581Y-77750147D01*
X140474618Y-77764594D01*
X140416364Y-77981999D01*
X140416364Y-77982000D01*
X141313314Y-77982000D01*
X141287507Y-78022156D01*
X141247000Y-78160111D01*
X141247000Y-78303889D01*
X141287507Y-78441844D01*
X141313314Y-78482000D01*
X140416364Y-78482000D01*
X140473567Y-78695486D01*
X140473570Y-78695492D01*
X140573399Y-78909578D01*
X140708894Y-79103082D01*
X140875917Y-79270105D01*
X141069421Y-79405600D01*
X141283507Y-79505429D01*
X141283516Y-79505433D01*
X141497000Y-79562634D01*
X141497000Y-78667501D01*
X141604685Y-78716680D01*
X141711237Y-78732000D01*
X141782763Y-78732000D01*
X141889315Y-78716680D01*
X141997000Y-78667501D01*
X141997000Y-79479980D01*
X141977315Y-79547019D01*
X141960681Y-79567661D01*
X141473162Y-80055181D01*
X141411839Y-80088666D01*
X141385481Y-80091500D01*
X127004921Y-80091500D01*
X126997433Y-80091274D01*
X126937396Y-80087642D01*
X126937389Y-80087642D01*
X126878227Y-80098483D01*
X126870827Y-80099610D01*
X126811128Y-80106860D01*
X126811127Y-80106860D01*
X126801653Y-80110453D01*
X126780042Y-80116477D01*
X126770068Y-80118305D01*
X126715220Y-80142989D01*
X126708305Y-80145853D01*
X126652076Y-80167179D01*
X126652061Y-80167187D01*
X126643723Y-80172942D01*
X126624188Y-80183960D01*
X126614948Y-80188119D01*
X126614938Y-80188124D01*
X126567597Y-80225213D01*
X126561569Y-80229649D01*
X126512068Y-80263819D01*
X126472183Y-80308838D01*
X126467051Y-80314290D01*
X117812813Y-88968528D01*
X117751490Y-89002013D01*
X117681798Y-88997029D01*
X117625865Y-88955157D01*
X117601604Y-88891654D01*
X117588508Y-88741965D01*
X117583035Y-88679409D01*
X117525723Y-88465520D01*
X117432142Y-88264833D01*
X117305132Y-88083445D01*
X117148555Y-87926868D01*
X116967167Y-87799858D01*
X116843907Y-87742381D01*
X116791468Y-87696210D01*
X116772316Y-87629017D01*
X116792531Y-87562136D01*
X116843908Y-87517618D01*
X116967167Y-87460142D01*
X117148555Y-87333132D01*
X117305132Y-87176555D01*
X117432142Y-86995167D01*
X117525723Y-86794480D01*
X117583035Y-86580591D01*
X117602334Y-86360000D01*
X117583035Y-86139409D01*
X117525723Y-85925520D01*
X117524962Y-85923889D01*
X117432143Y-85724836D01*
X117432142Y-85724834D01*
X117432142Y-85724833D01*
X117305132Y-85543445D01*
X117148555Y-85386868D01*
X116967167Y-85259858D01*
X116843907Y-85202381D01*
X116791468Y-85156210D01*
X116772316Y-85089017D01*
X116792531Y-85022136D01*
X116843908Y-84977618D01*
X116857172Y-84971433D01*
X116967167Y-84920142D01*
X117148555Y-84793132D01*
X117305132Y-84636555D01*
X117432142Y-84455167D01*
X117525723Y-84254480D01*
X117583035Y-84040591D01*
X117602334Y-83820000D01*
X117583035Y-83599409D01*
X117525723Y-83385520D01*
X117521779Y-83377063D01*
X117488443Y-83305572D01*
X117432142Y-83184833D01*
X117305132Y-83003445D01*
X117148555Y-82846868D01*
X116967167Y-82719858D01*
X116967107Y-82719830D01*
X116766486Y-82626279D01*
X116766475Y-82626275D01*
X116552592Y-82568965D01*
X116552585Y-82568964D01*
X116332002Y-82549666D01*
X116331998Y-82549666D01*
X116111414Y-82568964D01*
X116111407Y-82568965D01*
X115897524Y-82626275D01*
X115897513Y-82626279D01*
X115696836Y-82719856D01*
X115696834Y-82719857D01*
X115515444Y-82846868D01*
X115358868Y-83003444D01*
X115231857Y-83184834D01*
X115231856Y-83184836D01*
X115138279Y-83385513D01*
X115138275Y-83385524D01*
X115080965Y-83599407D01*
X115080964Y-83599414D01*
X115061666Y-83819998D01*
X115061666Y-83820002D01*
X115079126Y-84019574D01*
X115065359Y-84088074D01*
X115043279Y-84118062D01*
X103378162Y-95783181D01*
X103316839Y-95816666D01*
X103290481Y-95819500D01*
X102314711Y-95819500D01*
X102247672Y-95799815D01*
X102213136Y-95766623D01*
X102130494Y-95648597D01*
X101963402Y-95481506D01*
X101963396Y-95481501D01*
X101777842Y-95351575D01*
X101734217Y-95296998D01*
X101727023Y-95227500D01*
X101758546Y-95165145D01*
X101777842Y-95148425D01*
X101817256Y-95120827D01*
X101963401Y-95018495D01*
X102130495Y-94851401D01*
X102266035Y-94657830D01*
X102365903Y-94443663D01*
X102427063Y-94215408D01*
X102447659Y-93980000D01*
X102427063Y-93744592D01*
X102373723Y-93545523D01*
X102365905Y-93516344D01*
X102365904Y-93516343D01*
X102365903Y-93516337D01*
X102266035Y-93302171D01*
X102263234Y-93298170D01*
X102130494Y-93108597D01*
X101963402Y-92941506D01*
X101963401Y-92941505D01*
X101777405Y-92811269D01*
X101733781Y-92756692D01*
X101726588Y-92687193D01*
X101758110Y-92624839D01*
X101777405Y-92608119D01*
X101963082Y-92478105D01*
X102130105Y-92311082D01*
X102265600Y-92117578D01*
X102365429Y-91903492D01*
X102365432Y-91903486D01*
X102422636Y-91690000D01*
X101525686Y-91690000D01*
X101551493Y-91649844D01*
X101592000Y-91511889D01*
X101592000Y-91368111D01*
X101551493Y-91230156D01*
X101525686Y-91190000D01*
X102422636Y-91190000D01*
X102422635Y-91189999D01*
X102365432Y-90976513D01*
X102365429Y-90976507D01*
X102265600Y-90762422D01*
X102265599Y-90762420D01*
X102130113Y-90568926D01*
X102130108Y-90568920D01*
X101963078Y-90401890D01*
X101777405Y-90271879D01*
X101733780Y-90217302D01*
X101726588Y-90147804D01*
X101758110Y-90085449D01*
X101777406Y-90068730D01*
X101793276Y-90057618D01*
X101963401Y-89938495D01*
X102130495Y-89771401D01*
X102266035Y-89577830D01*
X102365903Y-89363663D01*
X102427063Y-89135408D01*
X102447659Y-88900000D01*
X102427063Y-88664592D01*
X102378808Y-88484499D01*
X102365905Y-88436344D01*
X102365904Y-88436343D01*
X102365903Y-88436337D01*
X102266035Y-88222171D01*
X102264832Y-88220452D01*
X102130494Y-88028597D01*
X101963402Y-87861506D01*
X101963396Y-87861501D01*
X101777842Y-87731575D01*
X101734217Y-87676998D01*
X101727023Y-87607500D01*
X101758546Y-87545145D01*
X101777842Y-87528425D01*
X101843588Y-87482389D01*
X101963401Y-87398495D01*
X102065077Y-87296819D01*
X102126400Y-87263334D01*
X102152758Y-87260500D01*
X104518873Y-87260500D01*
X104538272Y-87262027D01*
X104552112Y-87264219D01*
X104619837Y-87260670D01*
X104626326Y-87260500D01*
X104646691Y-87260500D01*
X104646692Y-87260500D01*
X104657893Y-87259322D01*
X104666948Y-87258371D01*
X104673406Y-87257862D01*
X104741146Y-87254313D01*
X104754687Y-87250683D01*
X104773813Y-87247138D01*
X104787756Y-87245674D01*
X104852286Y-87224706D01*
X104858451Y-87222880D01*
X104923988Y-87205320D01*
X104936476Y-87198956D01*
X104954450Y-87191510D01*
X104967784Y-87187179D01*
X105026551Y-87153248D01*
X105032193Y-87150185D01*
X105092649Y-87119383D01*
X105103531Y-87110569D01*
X105119583Y-87099537D01*
X105131716Y-87092533D01*
X105182154Y-87047117D01*
X105187040Y-87042945D01*
X105202880Y-87030119D01*
X105217301Y-87015696D01*
X105221972Y-87011264D01*
X105272388Y-86965871D01*
X105280630Y-86954525D01*
X105293260Y-86939737D01*
X115016999Y-77216000D01*
X119490540Y-77216000D01*
X119510326Y-77404256D01*
X119510327Y-77404259D01*
X119568818Y-77584277D01*
X119568821Y-77584284D01*
X119663467Y-77748216D01*
X119716440Y-77807048D01*
X119790129Y-77888888D01*
X119943265Y-78000148D01*
X119943270Y-78000151D01*
X120116192Y-78077142D01*
X120116197Y-78077144D01*
X120301354Y-78116500D01*
X120301355Y-78116500D01*
X120490644Y-78116500D01*
X120490646Y-78116500D01*
X120675803Y-78077144D01*
X120848730Y-78000151D01*
X120873714Y-77981999D01*
X120931271Y-77940182D01*
X120997077Y-77916702D01*
X121004156Y-77916500D01*
X128423844Y-77916500D01*
X128490883Y-77936185D01*
X128496729Y-77940182D01*
X128579265Y-78000148D01*
X128579270Y-78000151D01*
X128752192Y-78077142D01*
X128752197Y-78077144D01*
X128937354Y-78116500D01*
X128937355Y-78116500D01*
X129126644Y-78116500D01*
X129126646Y-78116500D01*
X129311803Y-78077144D01*
X129484730Y-78000151D01*
X129637871Y-77888888D01*
X129764533Y-77748216D01*
X129859179Y-77584284D01*
X129917674Y-77404256D01*
X129937460Y-77216000D01*
X129917674Y-77027744D01*
X129859179Y-76847716D01*
X129764533Y-76683784D01*
X129637871Y-76543112D01*
X129637870Y-76543111D01*
X129484734Y-76431851D01*
X129484729Y-76431848D01*
X129311807Y-76354857D01*
X129311802Y-76354855D01*
X129166001Y-76323865D01*
X129126646Y-76315500D01*
X128937354Y-76315500D01*
X128904897Y-76322398D01*
X128752197Y-76354855D01*
X128752192Y-76354857D01*
X128579270Y-76431848D01*
X128579265Y-76431851D01*
X128496729Y-76491818D01*
X128430923Y-76515298D01*
X128423844Y-76515500D01*
X121004156Y-76515500D01*
X120937117Y-76495815D01*
X120931271Y-76491818D01*
X120848734Y-76431851D01*
X120848729Y-76431848D01*
X120675807Y-76354857D01*
X120675802Y-76354855D01*
X120530001Y-76323865D01*
X120490646Y-76315500D01*
X120301354Y-76315500D01*
X120268897Y-76322398D01*
X120116197Y-76354855D01*
X120116192Y-76354857D01*
X119943270Y-76431848D01*
X119943265Y-76431851D01*
X119790129Y-76543111D01*
X119663466Y-76683785D01*
X119568821Y-76847715D01*
X119568818Y-76847722D01*
X119510327Y-77027740D01*
X119510326Y-77027744D01*
X119490540Y-77216000D01*
X115016999Y-77216000D01*
X116136430Y-76096569D01*
X116197753Y-76063084D01*
X116224111Y-76060250D01*
X132378619Y-76060250D01*
X132445658Y-76079935D01*
G37*
%TD.AperFunction*%
%TA.AperFunction,Conductor*%
G36*
X134853520Y-82508185D02*
G01*
X134874162Y-82524819D01*
X136119058Y-83769715D01*
X136124178Y-83775153D01*
X136163907Y-83819998D01*
X136164073Y-83820185D01*
X136213563Y-83854345D01*
X136219569Y-83858763D01*
X136266943Y-83895878D01*
X136276171Y-83900031D01*
X136276180Y-83900035D01*
X136295726Y-83911058D01*
X136304070Y-83916818D01*
X136360317Y-83938149D01*
X136367216Y-83941007D01*
X136422068Y-83965694D01*
X136432030Y-83967519D01*
X136453651Y-83973546D01*
X136453667Y-83973552D01*
X136463128Y-83977140D01*
X136507234Y-83982495D01*
X136522830Y-83984389D01*
X136530235Y-83985516D01*
X136551400Y-83989394D01*
X136589394Y-83996357D01*
X136649423Y-83992726D01*
X136656910Y-83992500D01*
X143012079Y-83992500D01*
X143019566Y-83992725D01*
X143079606Y-83996358D01*
X143138782Y-83985513D01*
X143146185Y-83984387D01*
X143149921Y-83983933D01*
X143205872Y-83977140D01*
X143215335Y-83973550D01*
X143236961Y-83967522D01*
X143237893Y-83967351D01*
X143246932Y-83965695D01*
X143301808Y-83940996D01*
X143308678Y-83938150D01*
X143364930Y-83916818D01*
X143373266Y-83911062D01*
X143392821Y-83900034D01*
X143402057Y-83895878D01*
X143449413Y-83858775D01*
X143455404Y-83854366D01*
X143504929Y-83820183D01*
X143544822Y-83775151D01*
X143549924Y-83769731D01*
X143915006Y-83404649D01*
X143976327Y-83371166D01*
X144034778Y-83372557D01*
X144051592Y-83377063D01*
X144239918Y-83393539D01*
X144286999Y-83397659D01*
X144287000Y-83397659D01*
X144287001Y-83397659D01*
X144326234Y-83394226D01*
X144522408Y-83377063D01*
X144750663Y-83315903D01*
X144964830Y-83216035D01*
X145158401Y-83080495D01*
X145280329Y-82958566D01*
X145341648Y-82925084D01*
X145411340Y-82930068D01*
X145467274Y-82971939D01*
X145484189Y-83002916D01*
X145518682Y-83095394D01*
X145526500Y-83138728D01*
X145526500Y-84715054D01*
X145518682Y-84758388D01*
X145469189Y-84891083D01*
X145427317Y-84947016D01*
X145361853Y-84971433D01*
X145293580Y-84956581D01*
X145265326Y-84935430D01*
X145143402Y-84813506D01*
X145143395Y-84813501D01*
X144949834Y-84677967D01*
X144949830Y-84677965D01*
X144861026Y-84636555D01*
X144735663Y-84578097D01*
X144735659Y-84578096D01*
X144735655Y-84578094D01*
X144507413Y-84516938D01*
X144507403Y-84516936D01*
X144272001Y-84496341D01*
X144271999Y-84496341D01*
X144036596Y-84516936D01*
X144036586Y-84516938D01*
X143808344Y-84578094D01*
X143808335Y-84578098D01*
X143594171Y-84677964D01*
X143594169Y-84677965D01*
X143400597Y-84813505D01*
X143233508Y-84980594D01*
X143103269Y-85166595D01*
X143048692Y-85210219D01*
X142979193Y-85217412D01*
X142916839Y-85185890D01*
X142900119Y-85166594D01*
X142770113Y-84980926D01*
X142770108Y-84980920D01*
X142603082Y-84813894D01*
X142409578Y-84678399D01*
X142195492Y-84578570D01*
X142195486Y-84578567D01*
X141982000Y-84521364D01*
X141982000Y-85416498D01*
X141874315Y-85367320D01*
X141767763Y-85352000D01*
X141696237Y-85352000D01*
X141589685Y-85367320D01*
X141482000Y-85416498D01*
X141482000Y-84521364D01*
X141481999Y-84521364D01*
X141268513Y-84578567D01*
X141268507Y-84578570D01*
X141054422Y-84678399D01*
X141054420Y-84678400D01*
X140860926Y-84813886D01*
X140860920Y-84813891D01*
X140693891Y-84980920D01*
X140693886Y-84980926D01*
X140558400Y-85174420D01*
X140558399Y-85174422D01*
X140458570Y-85388507D01*
X140458567Y-85388513D01*
X140401364Y-85601999D01*
X140401364Y-85602000D01*
X141298314Y-85602000D01*
X141272507Y-85642156D01*
X141232000Y-85780111D01*
X141232000Y-85923889D01*
X141272507Y-86061844D01*
X141298314Y-86102000D01*
X140401364Y-86102000D01*
X140458567Y-86315486D01*
X140458570Y-86315492D01*
X140558399Y-86529578D01*
X140693894Y-86723082D01*
X140860917Y-86890105D01*
X141054421Y-87025600D01*
X141268507Y-87125429D01*
X141268516Y-87125433D01*
X141482000Y-87182634D01*
X141482000Y-86287501D01*
X141589685Y-86336680D01*
X141696237Y-86352000D01*
X141767763Y-86352000D01*
X141874315Y-86336680D01*
X141982000Y-86287501D01*
X141982000Y-87182633D01*
X142195483Y-87125433D01*
X142195492Y-87125429D01*
X142409578Y-87025600D01*
X142603082Y-86890105D01*
X142770105Y-86723082D01*
X142900119Y-86537405D01*
X142954696Y-86493781D01*
X143024195Y-86486588D01*
X143086549Y-86518110D01*
X143103269Y-86537405D01*
X143233505Y-86723401D01*
X143233506Y-86723402D01*
X143400597Y-86890494D01*
X143518623Y-86973136D01*
X143562248Y-87027713D01*
X143571500Y-87074711D01*
X143571500Y-88123311D01*
X143571274Y-88130799D01*
X143567642Y-88190836D01*
X143567642Y-88190838D01*
X143578483Y-88250003D01*
X143579610Y-88257404D01*
X143586859Y-88317104D01*
X143586860Y-88317107D01*
X143590451Y-88326576D01*
X143596474Y-88348179D01*
X143598304Y-88358163D01*
X143622991Y-88413015D01*
X143625854Y-88419927D01*
X143647182Y-88476163D01*
X143647183Y-88476164D01*
X143652936Y-88484499D01*
X143663961Y-88504046D01*
X143668120Y-88513288D01*
X143668123Y-88513292D01*
X143683279Y-88532637D01*
X143709128Y-88597549D01*
X143695780Y-88666131D01*
X143647472Y-88716610D01*
X143638075Y-88721491D01*
X143594172Y-88741963D01*
X143594169Y-88741965D01*
X143400597Y-88877505D01*
X143233508Y-89044594D01*
X143103269Y-89230595D01*
X143048692Y-89274219D01*
X142979193Y-89281412D01*
X142916839Y-89249890D01*
X142900119Y-89230594D01*
X142770113Y-89044926D01*
X142770108Y-89044920D01*
X142603082Y-88877894D01*
X142409578Y-88742399D01*
X142195492Y-88642570D01*
X142195486Y-88642567D01*
X141982000Y-88585364D01*
X141982000Y-89480498D01*
X141874315Y-89431320D01*
X141767763Y-89416000D01*
X141696237Y-89416000D01*
X141589685Y-89431320D01*
X141482000Y-89480498D01*
X141482000Y-88585364D01*
X141481999Y-88585364D01*
X141268513Y-88642567D01*
X141268507Y-88642570D01*
X141054422Y-88742399D01*
X141054420Y-88742400D01*
X140860926Y-88877886D01*
X140860920Y-88877891D01*
X140693891Y-89044920D01*
X140693886Y-89044926D01*
X140558400Y-89238420D01*
X140558399Y-89238422D01*
X140458570Y-89452507D01*
X140458567Y-89452513D01*
X140401364Y-89665999D01*
X140401364Y-89666000D01*
X141298314Y-89666000D01*
X141272507Y-89706156D01*
X141232000Y-89844111D01*
X141232000Y-89987889D01*
X141272507Y-90125844D01*
X141298314Y-90166000D01*
X140401364Y-90166000D01*
X140439790Y-90309406D01*
X140438127Y-90379256D01*
X140398965Y-90437119D01*
X140334736Y-90464623D01*
X140320015Y-90465500D01*
X134179519Y-90465500D01*
X134112480Y-90445815D01*
X134091838Y-90429181D01*
X132860720Y-89198063D01*
X132827235Y-89136740D01*
X132824873Y-89099578D01*
X132842334Y-88900000D01*
X132823035Y-88679409D01*
X132765723Y-88465520D01*
X132672142Y-88264833D01*
X132545132Y-88083445D01*
X132388555Y-87926868D01*
X132207167Y-87799858D01*
X132083907Y-87742381D01*
X132031468Y-87696210D01*
X132012316Y-87629017D01*
X132032531Y-87562136D01*
X132083908Y-87517618D01*
X132207167Y-87460142D01*
X132388555Y-87333132D01*
X132545132Y-87176555D01*
X132672142Y-86995167D01*
X132765723Y-86794480D01*
X132823035Y-86580591D01*
X132842334Y-86360000D01*
X132823035Y-86139409D01*
X132765723Y-85925520D01*
X132764962Y-85923889D01*
X132672143Y-85724836D01*
X132672142Y-85724834D01*
X132672142Y-85724833D01*
X132545132Y-85543445D01*
X132388555Y-85386868D01*
X132207167Y-85259858D01*
X132083907Y-85202381D01*
X132031468Y-85156210D01*
X132012316Y-85089017D01*
X132032531Y-85022136D01*
X132083908Y-84977618D01*
X132097172Y-84971433D01*
X132207167Y-84920142D01*
X132388555Y-84793132D01*
X132545132Y-84636555D01*
X132672142Y-84455167D01*
X132765723Y-84254480D01*
X132823035Y-84040591D01*
X132842334Y-83820000D01*
X132823035Y-83599409D01*
X132765723Y-83385520D01*
X132761779Y-83377063D01*
X132728443Y-83305572D01*
X132672142Y-83184833D01*
X132545132Y-83003445D01*
X132388555Y-82846868D01*
X132207167Y-82719858D01*
X132207165Y-82719857D01*
X132202732Y-82716753D01*
X132203366Y-82715846D01*
X132159004Y-82669326D01*
X132145778Y-82600720D01*
X132171742Y-82535853D01*
X132228654Y-82495322D01*
X132269217Y-82488500D01*
X134786481Y-82488500D01*
X134853520Y-82508185D01*
G37*
%TD.AperFunction*%
%TA.AperFunction,Conductor*%
G36*
X140402054Y-81512185D02*
G01*
X140447809Y-81564989D01*
X140457753Y-81634147D01*
X140454790Y-81648594D01*
X140416364Y-81791999D01*
X140416364Y-81792000D01*
X141313314Y-81792000D01*
X141287507Y-81832156D01*
X141247000Y-81970111D01*
X141247000Y-82113889D01*
X141287507Y-82251844D01*
X141313314Y-82292000D01*
X140416364Y-82292000D01*
X140454790Y-82435406D01*
X140453127Y-82505256D01*
X140413965Y-82563119D01*
X140349736Y-82590623D01*
X140335015Y-82591500D01*
X136973519Y-82591500D01*
X136906480Y-82571815D01*
X136885838Y-82555181D01*
X136034838Y-81704181D01*
X136001353Y-81642858D01*
X136006337Y-81573166D01*
X136048209Y-81517233D01*
X136113673Y-81492816D01*
X136122519Y-81492500D01*
X140335015Y-81492500D01*
X140402054Y-81512185D01*
G37*
%TD.AperFunction*%
%TA.AperFunction,Conductor*%
G36*
X121292321Y-57837685D02*
G01*
X121338076Y-57890489D01*
X121348020Y-57959647D01*
X121318995Y-58023203D01*
X121290072Y-58047727D01*
X121212944Y-58094990D01*
X121212943Y-58094991D01*
X121022309Y-58257809D01*
X120859491Y-58448443D01*
X120859490Y-58448444D01*
X120728505Y-58662192D01*
X120632568Y-58893806D01*
X120574043Y-59137579D01*
X120554375Y-59387500D01*
X120574043Y-59637420D01*
X120632568Y-59881193D01*
X120728505Y-60112807D01*
X120859490Y-60326555D01*
X120859491Y-60326556D01*
X120859492Y-60326558D01*
X120859494Y-60326560D01*
X121022309Y-60517191D01*
X121212940Y-60680006D01*
X121212942Y-60680007D01*
X121212943Y-60680008D01*
X121212944Y-60680009D01*
X121426692Y-60810994D01*
X121494530Y-60839093D01*
X121658307Y-60906932D01*
X121902076Y-60965456D01*
X122152000Y-60985125D01*
X122401924Y-60965456D01*
X122645693Y-60906932D01*
X122877307Y-60810994D01*
X123091060Y-60680006D01*
X123281691Y-60517191D01*
X123444506Y-60326560D01*
X123575494Y-60112807D01*
X123671432Y-59881193D01*
X123729956Y-59637424D01*
X123749625Y-59387500D01*
X123729956Y-59137576D01*
X123671432Y-58893807D01*
X123615232Y-58758130D01*
X123575494Y-58662192D01*
X123444509Y-58448444D01*
X123444508Y-58448443D01*
X123444507Y-58448442D01*
X123444506Y-58448440D01*
X123281691Y-58257809D01*
X123091060Y-58094994D01*
X123091058Y-58094992D01*
X123091056Y-58094991D01*
X123091055Y-58094990D01*
X123013928Y-58047727D01*
X122967053Y-57995916D01*
X122955630Y-57926986D01*
X122983287Y-57862823D01*
X123041243Y-57823798D01*
X123078718Y-57818000D01*
X124725282Y-57818000D01*
X124792321Y-57837685D01*
X124838076Y-57890489D01*
X124848020Y-57959647D01*
X124818995Y-58023203D01*
X124790072Y-58047727D01*
X124712944Y-58094990D01*
X124712943Y-58094991D01*
X124522309Y-58257809D01*
X124359491Y-58448443D01*
X124359490Y-58448444D01*
X124228505Y-58662192D01*
X124132568Y-58893806D01*
X124074043Y-59137579D01*
X124054375Y-59387500D01*
X124074043Y-59637420D01*
X124132568Y-59881193D01*
X124228505Y-60112807D01*
X124359490Y-60326555D01*
X124359491Y-60326556D01*
X124359492Y-60326558D01*
X124359494Y-60326560D01*
X124522309Y-60517191D01*
X124712940Y-60680006D01*
X124712942Y-60680007D01*
X124712943Y-60680008D01*
X124712944Y-60680009D01*
X124926692Y-60810994D01*
X124994530Y-60839093D01*
X125158307Y-60906932D01*
X125402076Y-60965456D01*
X125652000Y-60985125D01*
X125901924Y-60965456D01*
X126145693Y-60906932D01*
X126377307Y-60810994D01*
X126591060Y-60680006D01*
X126781691Y-60517191D01*
X126944506Y-60326560D01*
X127075494Y-60112807D01*
X127171432Y-59881193D01*
X127229956Y-59637424D01*
X127249625Y-59387500D01*
X127229956Y-59137576D01*
X127171432Y-58893807D01*
X127115232Y-58758130D01*
X127075494Y-58662192D01*
X126944509Y-58448444D01*
X126944508Y-58448443D01*
X126944507Y-58448442D01*
X126944506Y-58448440D01*
X126781691Y-58257809D01*
X126591060Y-58094994D01*
X126591058Y-58094992D01*
X126591056Y-58094991D01*
X126591055Y-58094990D01*
X126513928Y-58047727D01*
X126467053Y-57995916D01*
X126455630Y-57926986D01*
X126483287Y-57862823D01*
X126541243Y-57823798D01*
X126578718Y-57818000D01*
X131894307Y-57818000D01*
X131961346Y-57837685D01*
X132007101Y-57890489D01*
X132018017Y-57950460D01*
X132013042Y-58023203D01*
X132006592Y-58117500D01*
X132026201Y-58404180D01*
X132084666Y-58685534D01*
X132084667Y-58685537D01*
X132180894Y-58956293D01*
X132180893Y-58956293D01*
X132313098Y-59211435D01*
X132313099Y-59211436D01*
X132478811Y-59446198D01*
X132674947Y-59656208D01*
X132765755Y-59730085D01*
X132805335Y-59787662D01*
X132811500Y-59826273D01*
X132811500Y-71648726D01*
X132791815Y-71715765D01*
X132765755Y-71744914D01*
X132674950Y-71818788D01*
X132478812Y-72028799D01*
X132313098Y-72263564D01*
X132180894Y-72518706D01*
X132084667Y-72789462D01*
X132084666Y-72789465D01*
X132026201Y-73070819D01*
X132006592Y-73357500D01*
X132026201Y-73644180D01*
X132026201Y-73644184D01*
X132026202Y-73644186D01*
X132028835Y-73656857D01*
X132084666Y-73925534D01*
X132084667Y-73925537D01*
X132144441Y-74093725D01*
X132148343Y-74163486D01*
X132113911Y-74224282D01*
X132052075Y-74256811D01*
X132027601Y-74259250D01*
X131601755Y-74259250D01*
X131534716Y-74239565D01*
X131488961Y-74186761D01*
X131479017Y-74117603D01*
X131497946Y-74067429D01*
X131510707Y-74047895D01*
X131528217Y-74021095D01*
X131620717Y-73810216D01*
X131677246Y-73586988D01*
X131696262Y-73357500D01*
X131677246Y-73128012D01*
X131620717Y-72904784D01*
X131528217Y-72693905D01*
X131498123Y-72647843D01*
X131402271Y-72501129D01*
X131328165Y-72420629D01*
X131246308Y-72331708D01*
X131093775Y-72212987D01*
X131064591Y-72190272D01*
X130862069Y-72080672D01*
X130862061Y-72080669D01*
X130644274Y-72005902D01*
X130455538Y-71974408D01*
X130417137Y-71968000D01*
X130186863Y-71968000D01*
X130148462Y-71974408D01*
X129959725Y-72005902D01*
X129741938Y-72080669D01*
X129741930Y-72080672D01*
X129539408Y-72190272D01*
X129357694Y-72331706D01*
X129357689Y-72331711D01*
X129201727Y-72501130D01*
X129135808Y-72602028D01*
X129082662Y-72647384D01*
X129013431Y-72656808D01*
X128950095Y-72627306D01*
X128928192Y-72602028D01*
X128862272Y-72501130D01*
X128788165Y-72420629D01*
X128706308Y-72331708D01*
X128553775Y-72212987D01*
X128524591Y-72190272D01*
X128322069Y-72080672D01*
X128322061Y-72080669D01*
X128104274Y-72005902D01*
X127915538Y-71974408D01*
X127877137Y-71968000D01*
X127646863Y-71968000D01*
X127608462Y-71974408D01*
X127419725Y-72005902D01*
X127201938Y-72080669D01*
X127201930Y-72080672D01*
X126999408Y-72190272D01*
X126817694Y-72331706D01*
X126817689Y-72331711D01*
X126661727Y-72501130D01*
X126595808Y-72602028D01*
X126542662Y-72647384D01*
X126473431Y-72656808D01*
X126410095Y-72627306D01*
X126388192Y-72602028D01*
X126322272Y-72501130D01*
X126248165Y-72420629D01*
X126166308Y-72331708D01*
X126013775Y-72212987D01*
X125984591Y-72190272D01*
X125782069Y-72080672D01*
X125782061Y-72080669D01*
X125564274Y-72005902D01*
X125375538Y-71974408D01*
X125337137Y-71968000D01*
X125106863Y-71968000D01*
X125068462Y-71974408D01*
X124879725Y-72005902D01*
X124661938Y-72080669D01*
X124661930Y-72080672D01*
X124459408Y-72190272D01*
X124277694Y-72331706D01*
X124277689Y-72331711D01*
X124121727Y-72501130D01*
X124055808Y-72602028D01*
X124002662Y-72647384D01*
X123933431Y-72656808D01*
X123870095Y-72627306D01*
X123848192Y-72602028D01*
X123782272Y-72501130D01*
X123708165Y-72420629D01*
X123626308Y-72331708D01*
X123473775Y-72212987D01*
X123444591Y-72190272D01*
X123242069Y-72080672D01*
X123242061Y-72080669D01*
X123024274Y-72005902D01*
X122835538Y-71974408D01*
X122797137Y-71968000D01*
X122566863Y-71968000D01*
X122528462Y-71974408D01*
X122339725Y-72005902D01*
X122121938Y-72080669D01*
X122121930Y-72080672D01*
X121919408Y-72190272D01*
X121737694Y-72331706D01*
X121737689Y-72331711D01*
X121581727Y-72501131D01*
X121515508Y-72602487D01*
X121462362Y-72647843D01*
X121393131Y-72657267D01*
X121329795Y-72627765D01*
X121307892Y-72602487D01*
X121285238Y-72567813D01*
X120625076Y-73227974D01*
X120601493Y-73147656D01*
X120523761Y-73026702D01*
X120415100Y-72932548D01*
X120284315Y-72872820D01*
X120274532Y-72871413D01*
X120932958Y-72212986D01*
X120932958Y-72212984D01*
X120904322Y-72190696D01*
X120904316Y-72190692D01*
X120701868Y-72081132D01*
X120701859Y-72081129D01*
X120484150Y-72006389D01*
X120257095Y-71968500D01*
X120026905Y-71968500D01*
X119799849Y-72006389D01*
X119582140Y-72081129D01*
X119582132Y-72081132D01*
X119379681Y-72190694D01*
X119351040Y-72212985D01*
X119351040Y-72212987D01*
X120009467Y-72871413D01*
X119999685Y-72872820D01*
X119868900Y-72932548D01*
X119760239Y-73026702D01*
X119682507Y-73147656D01*
X119658922Y-73227976D01*
X119027818Y-72596871D01*
X118994333Y-72535548D01*
X118991499Y-72509190D01*
X118991499Y-72420629D01*
X118991498Y-72420623D01*
X118991497Y-72420616D01*
X118985091Y-72361017D01*
X118974159Y-72331708D01*
X118934797Y-72226171D01*
X118934793Y-72226164D01*
X118848547Y-72110955D01*
X118848544Y-72110952D01*
X118733335Y-72024706D01*
X118733328Y-72024702D01*
X118598482Y-71974408D01*
X118598483Y-71974408D01*
X118538883Y-71968001D01*
X118538881Y-71968000D01*
X118538873Y-71968000D01*
X118538864Y-71968000D01*
X116665129Y-71968000D01*
X116665123Y-71968001D01*
X116605516Y-71974408D01*
X116470671Y-72024702D01*
X116470664Y-72024706D01*
X116355455Y-72110952D01*
X116355452Y-72110955D01*
X116269206Y-72226164D01*
X116269202Y-72226171D01*
X116218908Y-72361017D01*
X116212501Y-72420616D01*
X116212501Y-72420623D01*
X116212500Y-72420635D01*
X116212500Y-73422138D01*
X116192815Y-73489177D01*
X116176185Y-73509814D01*
X116118656Y-73567344D01*
X116099727Y-73586273D01*
X116038403Y-73619757D01*
X115968712Y-73614772D01*
X115912778Y-73572901D01*
X115888362Y-73507436D01*
X115888335Y-73490141D01*
X115897408Y-73357500D01*
X115877798Y-73070814D01*
X115819334Y-72789468D01*
X115723105Y-72518706D01*
X115723106Y-72518706D01*
X115590901Y-72263564D01*
X115425187Y-72028799D01*
X115229049Y-71818788D01*
X115138245Y-71744914D01*
X115098665Y-71687337D01*
X115092500Y-71648726D01*
X115092500Y-59826273D01*
X115112185Y-59759234D01*
X115138245Y-59730085D01*
X115229053Y-59656208D01*
X115425189Y-59446198D01*
X115590901Y-59211436D01*
X115723104Y-58956297D01*
X115819334Y-58685532D01*
X115877798Y-58404186D01*
X115897408Y-58117500D01*
X115885982Y-57950462D01*
X115901046Y-57882236D01*
X115950604Y-57832984D01*
X116009693Y-57818000D01*
X121225282Y-57818000D01*
X121292321Y-57837685D01*
G37*
%TD.AperFunction*%
%TD*%
M02*
