M48
; DRILL file {KiCad 7.0.10-7.0.10~ubuntu22.04.1} date dom 29 sep 2024 13:00:50
; FORMAT={-:-/ absolute / inch / decimal}
; #@! TF.CreationDate,2024-09-29T13:00:50+02:00
; #@! TF.GenerationSoftware,Kicad,Pcbnew,7.0.10-7.0.10~ubuntu22.04.1
; #@! TF.FileFunction,Plated,1,2,PTH
FMAT,2
INCH
; #@! TA.AperFunction,Plated,PTH,ViaDrill
T1C0.0157
; #@! TA.AperFunction,Plated,PTH,ViaDrill
T2C0.0315
; #@! TA.AperFunction,Plated,PTH,ComponentDrill
T3C0.0394
; #@! TA.AperFunction,Plated,PTH,ComponentDrill
T4C0.0402
; #@! TA.AperFunction,Plated,PTH,ComponentDrill
T5C0.0984
; #@! TA.AperFunction,Plated,PTH,ComponentDrill
T6C0.1772
%
G90
G05
T1
X4.74Y-3.04
X4.92Y-4.5
X4.96Y-3.94
X5.06Y-4.5
X5.08Y-3.04
T2
X4.46Y-4.28
X4.48Y-4.62
X4.7Y-4.64
X5.22Y-4.8
X5.3Y-4.0
X5.38Y-4.1
X5.38Y-4.32
X5.4Y-4.56
X5.64Y-4.02
X5.68Y-4.14
X5.78Y-3.96
T3
X3.98Y-3.4
X3.98Y-3.5
X3.98Y-3.6
X3.98Y-3.7
X3.98Y-3.8
X3.98Y-3.9
X3.98Y-4.0
X3.98Y-4.1
X3.98Y-4.2
X3.98Y-4.3
X4.42Y-4.805
X4.42Y-4.905
X4.42Y-5.005
X4.63Y-2.8881
X4.73Y-2.8881
X4.8091Y-2.3381
X4.83Y-2.8881
X4.93Y-2.8881
X4.9469Y-2.3381
X5.03Y-2.8881
X5.13Y-2.8881
X5.58Y-3.38
X5.58Y-3.54
X5.5806Y-3.08
X5.5806Y-3.23
X5.68Y-3.38
X5.68Y-3.54
X5.6806Y-3.08
X5.6806Y-3.23
X5.78Y-3.38
X5.78Y-3.54
X5.7806Y-3.08
X5.7806Y-3.23
X5.8Y-3.75
X5.8Y-3.85
X5.8Y-4.0994
X5.8Y-4.1994
X5.8Y-4.2994
X5.8Y-4.52
X5.8Y-4.62
X5.8Y-4.72
X5.8Y-4.82
X5.8Y-4.92
X5.8Y-5.02
T4
X4.58Y-3.3
X4.58Y-3.4
X4.58Y-3.5
X4.58Y-3.6
X4.58Y-3.7
X4.58Y-3.8
X4.58Y-3.9
X4.58Y-4.0
X4.58Y-4.1
X4.58Y-4.2
X4.58Y-4.3
X4.58Y-4.4
X4.58Y-4.5
X4.58Y-4.6
X4.58Y-4.7
X5.18Y-3.3
X5.18Y-3.4
X5.18Y-3.5
X5.18Y-3.6
X5.18Y-3.7
X5.18Y-3.8
X5.18Y-3.9
X5.18Y-4.0
X5.18Y-4.1
X5.18Y-4.2
X5.18Y-4.3
X5.18Y-4.4
X5.18Y-4.5
X5.18Y-4.6
X5.18Y-4.7
T5
X4.48Y-2.2881
X4.48Y-2.8881
X5.28Y-2.2881
X5.28Y-2.8881
T6
X4.08Y-2.4165
X4.08Y-2.7
X4.08Y-4.6165
X4.08Y-4.9
X5.68Y-2.4
X5.68Y-2.6835
M30
