%TF.GenerationSoftware,KiCad,Pcbnew,7.0.10-7.0.10~ubuntu22.04.1*%
%TF.CreationDate,2024-09-29T13:00:50+02:00*%
%TF.ProjectId,kicad,6b696361-642e-46b6-9963-61645f706362,rev?*%
%TF.SameCoordinates,Original*%
%TF.FileFunction,Drillmap*%
%TF.FilePolarity,Positive*%
%FSLAX45Y45*%
G04 Gerber Fmt 4.5, Leading zero omitted, Abs format (unit mm)*
G04 Created by KiCad (PCBNEW 7.0.10-7.0.10~ubuntu22.04.1) date 2024-09-29 13:00:50*
%MOMM*%
%LPD*%
G01*
G04 APERTURE LIST*
%ADD10C,0.100000*%
%ADD11C,0.200000*%
G04 APERTURE END LIST*
D10*
X9855200Y-5588000D02*
X14935200Y-5588000D01*
X14935200Y-12954000D01*
X9855200Y-12954000D01*
X9855200Y-5588000D01*
D11*
X10110977Y-13270484D02*
X10110977Y-13070484D01*
X10110977Y-13070484D02*
X10158596Y-13070484D01*
X10158596Y-13070484D02*
X10187167Y-13080008D01*
X10187167Y-13080008D02*
X10206215Y-13099055D01*
X10206215Y-13099055D02*
X10215739Y-13118103D01*
X10215739Y-13118103D02*
X10225263Y-13156198D01*
X10225263Y-13156198D02*
X10225263Y-13184769D01*
X10225263Y-13184769D02*
X10215739Y-13222865D01*
X10215739Y-13222865D02*
X10206215Y-13241912D01*
X10206215Y-13241912D02*
X10187167Y-13260960D01*
X10187167Y-13260960D02*
X10158596Y-13270484D01*
X10158596Y-13270484D02*
X10110977Y-13270484D01*
X10310977Y-13270484D02*
X10310977Y-13137150D01*
X10310977Y-13175246D02*
X10320501Y-13156198D01*
X10320501Y-13156198D02*
X10330024Y-13146674D01*
X10330024Y-13146674D02*
X10349072Y-13137150D01*
X10349072Y-13137150D02*
X10368120Y-13137150D01*
X10434786Y-13270484D02*
X10434786Y-13137150D01*
X10434786Y-13070484D02*
X10425263Y-13080008D01*
X10425263Y-13080008D02*
X10434786Y-13089531D01*
X10434786Y-13089531D02*
X10444310Y-13080008D01*
X10444310Y-13080008D02*
X10434786Y-13070484D01*
X10434786Y-13070484D02*
X10434786Y-13089531D01*
X10558596Y-13270484D02*
X10539548Y-13260960D01*
X10539548Y-13260960D02*
X10530024Y-13241912D01*
X10530024Y-13241912D02*
X10530024Y-13070484D01*
X10663358Y-13270484D02*
X10644310Y-13260960D01*
X10644310Y-13260960D02*
X10634786Y-13241912D01*
X10634786Y-13241912D02*
X10634786Y-13070484D01*
X10891929Y-13270484D02*
X10891929Y-13070484D01*
X10891929Y-13070484D02*
X10958596Y-13213341D01*
X10958596Y-13213341D02*
X11025263Y-13070484D01*
X11025263Y-13070484D02*
X11025263Y-13270484D01*
X11206215Y-13270484D02*
X11206215Y-13165722D01*
X11206215Y-13165722D02*
X11196691Y-13146674D01*
X11196691Y-13146674D02*
X11177644Y-13137150D01*
X11177644Y-13137150D02*
X11139548Y-13137150D01*
X11139548Y-13137150D02*
X11120501Y-13146674D01*
X11206215Y-13260960D02*
X11187167Y-13270484D01*
X11187167Y-13270484D02*
X11139548Y-13270484D01*
X11139548Y-13270484D02*
X11120501Y-13260960D01*
X11120501Y-13260960D02*
X11110977Y-13241912D01*
X11110977Y-13241912D02*
X11110977Y-13222865D01*
X11110977Y-13222865D02*
X11120501Y-13203817D01*
X11120501Y-13203817D02*
X11139548Y-13194293D01*
X11139548Y-13194293D02*
X11187167Y-13194293D01*
X11187167Y-13194293D02*
X11206215Y-13184769D01*
X11301453Y-13137150D02*
X11301453Y-13337150D01*
X11301453Y-13146674D02*
X11320501Y-13137150D01*
X11320501Y-13137150D02*
X11358596Y-13137150D01*
X11358596Y-13137150D02*
X11377643Y-13146674D01*
X11377643Y-13146674D02*
X11387167Y-13156198D01*
X11387167Y-13156198D02*
X11396691Y-13175246D01*
X11396691Y-13175246D02*
X11396691Y-13232388D01*
X11396691Y-13232388D02*
X11387167Y-13251436D01*
X11387167Y-13251436D02*
X11377643Y-13260960D01*
X11377643Y-13260960D02*
X11358596Y-13270484D01*
X11358596Y-13270484D02*
X11320501Y-13270484D01*
X11320501Y-13270484D02*
X11301453Y-13260960D01*
X11482405Y-13251436D02*
X11491929Y-13260960D01*
X11491929Y-13260960D02*
X11482405Y-13270484D01*
X11482405Y-13270484D02*
X11472882Y-13260960D01*
X11472882Y-13260960D02*
X11482405Y-13251436D01*
X11482405Y-13251436D02*
X11482405Y-13270484D01*
X11482405Y-13146674D02*
X11491929Y-13156198D01*
X11491929Y-13156198D02*
X11482405Y-13165722D01*
X11482405Y-13165722D02*
X11472882Y-13156198D01*
X11472882Y-13156198D02*
X11482405Y-13146674D01*
X11482405Y-13146674D02*
X11482405Y-13165722D01*
M02*
