%TF.GenerationSoftware,KiCad,Pcbnew,7.0.10-7.0.10~ubuntu22.04.1*%
%TF.CreationDate,2024-09-29T13:00:56+02:00*%
%TF.ProjectId,kicad,6b696361-642e-46b6-9963-61645f706362,rev?*%
%TF.SameCoordinates,Original*%
%TF.FileFunction,Legend,Top*%
%TF.FilePolarity,Positive*%
%FSLAX46Y46*%
G04 Gerber Fmt 4.6, Leading zero omitted, Abs format (unit mm)*
G04 Created by KiCad (PCBNEW 7.0.10-7.0.10~ubuntu22.04.1) date 2024-09-29 13:00:56*
%MOMM*%
%LPD*%
G01*
G04 APERTURE LIST*
%ADD10C,0.150000*%
%ADD11C,0.120000*%
%ADD12C,0.127000*%
%ADD13C,0.200000*%
G04 APERTURE END LIST*
D10*
X108540779Y-125472866D02*
X109302684Y-125472866D01*
X108921731Y-125853819D02*
X108921731Y-125091914D01*
X108540779Y-117344866D02*
X109302684Y-117344866D01*
X143592779Y-94992866D02*
X144354684Y-94992866D01*
X143973731Y-95373819D02*
X143973731Y-94611914D01*
X143592779Y-98548866D02*
X144354684Y-98548866D01*
X138004779Y-58924866D02*
X138766684Y-58924866D01*
X138385731Y-59305819D02*
X138385731Y-58543914D01*
X138004779Y-69084866D02*
X138766684Y-69084866D01*
X109048779Y-68576866D02*
X109810684Y-68576866D01*
X109048779Y-61464866D02*
X109810684Y-61464866D01*
X109429731Y-61845819D02*
X109429731Y-61083914D01*
X136842667Y-75638819D02*
X136842667Y-74638819D01*
X136842667Y-74638819D02*
X137223619Y-74638819D01*
X137223619Y-74638819D02*
X137318857Y-74686438D01*
X137318857Y-74686438D02*
X137366476Y-74734057D01*
X137366476Y-74734057D02*
X137414095Y-74829295D01*
X137414095Y-74829295D02*
X137414095Y-74972152D01*
X137414095Y-74972152D02*
X137366476Y-75067390D01*
X137366476Y-75067390D02*
X137318857Y-75115009D01*
X137318857Y-75115009D02*
X137223619Y-75162628D01*
X137223619Y-75162628D02*
X136842667Y-75162628D01*
X137842667Y-75638819D02*
X137842667Y-74638819D01*
X137842667Y-74638819D02*
X138223619Y-74638819D01*
X138223619Y-74638819D02*
X138318857Y-74686438D01*
X138318857Y-74686438D02*
X138366476Y-74734057D01*
X138366476Y-74734057D02*
X138414095Y-74829295D01*
X138414095Y-74829295D02*
X138414095Y-74972152D01*
X138414095Y-74972152D02*
X138366476Y-75067390D01*
X138366476Y-75067390D02*
X138318857Y-75115009D01*
X138318857Y-75115009D02*
X138223619Y-75162628D01*
X138223619Y-75162628D02*
X137842667Y-75162628D01*
X138842667Y-75638819D02*
X138842667Y-74638819D01*
X138842667Y-74638819D02*
X139176000Y-75353104D01*
X139176000Y-75353104D02*
X139509333Y-74638819D01*
X139509333Y-74638819D02*
X139509333Y-75638819D01*
X109112207Y-124964819D02*
X108778874Y-124488628D01*
X108540779Y-124964819D02*
X108540779Y-123964819D01*
X108540779Y-123964819D02*
X108921731Y-123964819D01*
X108921731Y-123964819D02*
X109016969Y-124012438D01*
X109016969Y-124012438D02*
X109064588Y-124060057D01*
X109064588Y-124060057D02*
X109112207Y-124155295D01*
X109112207Y-124155295D02*
X109112207Y-124298152D01*
X109112207Y-124298152D02*
X109064588Y-124393390D01*
X109064588Y-124393390D02*
X109016969Y-124441009D01*
X109016969Y-124441009D02*
X108921731Y-124488628D01*
X108921731Y-124488628D02*
X108540779Y-124488628D01*
X109445541Y-123964819D02*
X110112207Y-124964819D01*
X110112207Y-123964819D02*
X109445541Y-124964819D01*
X108899438Y-128171411D02*
X108851819Y-128266649D01*
X108851819Y-128266649D02*
X108851819Y-128409506D01*
X108851819Y-128409506D02*
X108899438Y-128552363D01*
X108899438Y-128552363D02*
X108994676Y-128647601D01*
X108994676Y-128647601D02*
X109089914Y-128695220D01*
X109089914Y-128695220D02*
X109280390Y-128742839D01*
X109280390Y-128742839D02*
X109423247Y-128742839D01*
X109423247Y-128742839D02*
X109613723Y-128695220D01*
X109613723Y-128695220D02*
X109708961Y-128647601D01*
X109708961Y-128647601D02*
X109804200Y-128552363D01*
X109804200Y-128552363D02*
X109851819Y-128409506D01*
X109851819Y-128409506D02*
X109851819Y-128314268D01*
X109851819Y-128314268D02*
X109804200Y-128171411D01*
X109804200Y-128171411D02*
X109756580Y-128123792D01*
X109756580Y-128123792D02*
X109423247Y-128123792D01*
X109423247Y-128123792D02*
X109423247Y-128314268D01*
X109851819Y-127695220D02*
X108851819Y-127695220D01*
X108851819Y-127695220D02*
X109851819Y-127123792D01*
X109851819Y-127123792D02*
X108851819Y-127123792D01*
X109851819Y-126647601D02*
X108851819Y-126647601D01*
X108851819Y-126647601D02*
X108851819Y-126409506D01*
X108851819Y-126409506D02*
X108899438Y-126266649D01*
X108899438Y-126266649D02*
X108994676Y-126171411D01*
X108994676Y-126171411D02*
X109089914Y-126123792D01*
X109089914Y-126123792D02*
X109280390Y-126076173D01*
X109280390Y-126076173D02*
X109423247Y-126076173D01*
X109423247Y-126076173D02*
X109613723Y-126123792D01*
X109613723Y-126123792D02*
X109708961Y-126171411D01*
X109708961Y-126171411D02*
X109804200Y-126266649D01*
X109804200Y-126266649D02*
X109851819Y-126409506D01*
X109851819Y-126409506D02*
X109851819Y-126647601D01*
X108651922Y-121805819D02*
X109223350Y-121805819D01*
X108937636Y-122805819D02*
X108937636Y-121805819D01*
X109461446Y-121805819D02*
X110128112Y-122805819D01*
X110128112Y-121805819D02*
X109461446Y-122805819D01*
X103682969Y-86499819D02*
X103206779Y-86499819D01*
X103206779Y-86499819D02*
X103159160Y-86976009D01*
X103159160Y-86976009D02*
X103206779Y-86928390D01*
X103206779Y-86928390D02*
X103302017Y-86880771D01*
X103302017Y-86880771D02*
X103540112Y-86880771D01*
X103540112Y-86880771D02*
X103635350Y-86928390D01*
X103635350Y-86928390D02*
X103682969Y-86976009D01*
X103682969Y-86976009D02*
X103730588Y-87071247D01*
X103730588Y-87071247D02*
X103730588Y-87309342D01*
X103730588Y-87309342D02*
X103682969Y-87404580D01*
X103682969Y-87404580D02*
X103635350Y-87452200D01*
X103635350Y-87452200D02*
X103540112Y-87499819D01*
X103540112Y-87499819D02*
X103302017Y-87499819D01*
X103302017Y-87499819D02*
X103206779Y-87452200D01*
X103206779Y-87452200D02*
X103159160Y-87404580D01*
X104016303Y-86499819D02*
X104349636Y-87499819D01*
X104349636Y-87499819D02*
X104682969Y-86499819D01*
X103111541Y-89039819D02*
X103730588Y-89039819D01*
X103730588Y-89039819D02*
X103397255Y-89420771D01*
X103397255Y-89420771D02*
X103540112Y-89420771D01*
X103540112Y-89420771D02*
X103635350Y-89468390D01*
X103635350Y-89468390D02*
X103682969Y-89516009D01*
X103682969Y-89516009D02*
X103730588Y-89611247D01*
X103730588Y-89611247D02*
X103730588Y-89849342D01*
X103730588Y-89849342D02*
X103682969Y-89944580D01*
X103682969Y-89944580D02*
X103635350Y-89992200D01*
X103635350Y-89992200D02*
X103540112Y-90039819D01*
X103540112Y-90039819D02*
X103254398Y-90039819D01*
X103254398Y-90039819D02*
X103159160Y-89992200D01*
X103159160Y-89992200D02*
X103111541Y-89944580D01*
X104016303Y-89039819D02*
X104349636Y-90039819D01*
X104349636Y-90039819D02*
X104682969Y-89039819D01*
X104921065Y-89039819D02*
X105540112Y-89039819D01*
X105540112Y-89039819D02*
X105206779Y-89420771D01*
X105206779Y-89420771D02*
X105349636Y-89420771D01*
X105349636Y-89420771D02*
X105444874Y-89468390D01*
X105444874Y-89468390D02*
X105492493Y-89516009D01*
X105492493Y-89516009D02*
X105540112Y-89611247D01*
X105540112Y-89611247D02*
X105540112Y-89849342D01*
X105540112Y-89849342D02*
X105492493Y-89944580D01*
X105492493Y-89944580D02*
X105444874Y-89992200D01*
X105444874Y-89992200D02*
X105349636Y-90039819D01*
X105349636Y-90039819D02*
X105063922Y-90039819D01*
X105063922Y-90039819D02*
X104968684Y-89992200D01*
X104968684Y-89992200D02*
X104921065Y-89944580D01*
X103730588Y-91627438D02*
X103635350Y-91579819D01*
X103635350Y-91579819D02*
X103492493Y-91579819D01*
X103492493Y-91579819D02*
X103349636Y-91627438D01*
X103349636Y-91627438D02*
X103254398Y-91722676D01*
X103254398Y-91722676D02*
X103206779Y-91817914D01*
X103206779Y-91817914D02*
X103159160Y-92008390D01*
X103159160Y-92008390D02*
X103159160Y-92151247D01*
X103159160Y-92151247D02*
X103206779Y-92341723D01*
X103206779Y-92341723D02*
X103254398Y-92436961D01*
X103254398Y-92436961D02*
X103349636Y-92532200D01*
X103349636Y-92532200D02*
X103492493Y-92579819D01*
X103492493Y-92579819D02*
X103587731Y-92579819D01*
X103587731Y-92579819D02*
X103730588Y-92532200D01*
X103730588Y-92532200D02*
X103778207Y-92484580D01*
X103778207Y-92484580D02*
X103778207Y-92151247D01*
X103778207Y-92151247D02*
X103587731Y-92151247D01*
X104206779Y-92579819D02*
X104206779Y-91579819D01*
X104206779Y-91579819D02*
X104778207Y-92579819D01*
X104778207Y-92579819D02*
X104778207Y-91579819D01*
X105254398Y-92579819D02*
X105254398Y-91579819D01*
X105254398Y-91579819D02*
X105492493Y-91579819D01*
X105492493Y-91579819D02*
X105635350Y-91627438D01*
X105635350Y-91627438D02*
X105730588Y-91722676D01*
X105730588Y-91722676D02*
X105778207Y-91817914D01*
X105778207Y-91817914D02*
X105825826Y-92008390D01*
X105825826Y-92008390D02*
X105825826Y-92151247D01*
X105825826Y-92151247D02*
X105778207Y-92341723D01*
X105778207Y-92341723D02*
X105730588Y-92436961D01*
X105730588Y-92436961D02*
X105635350Y-92532200D01*
X105635350Y-92532200D02*
X105492493Y-92579819D01*
X105492493Y-92579819D02*
X105254398Y-92579819D01*
X103206779Y-95373819D02*
X103206779Y-94373819D01*
X103206779Y-94373819D02*
X103587731Y-94373819D01*
X103587731Y-94373819D02*
X103682969Y-94421438D01*
X103682969Y-94421438D02*
X103730588Y-94469057D01*
X103730588Y-94469057D02*
X103778207Y-94564295D01*
X103778207Y-94564295D02*
X103778207Y-94707152D01*
X103778207Y-94707152D02*
X103730588Y-94802390D01*
X103730588Y-94802390D02*
X103682969Y-94850009D01*
X103682969Y-94850009D02*
X103587731Y-94897628D01*
X103587731Y-94897628D02*
X103206779Y-94897628D01*
X104540112Y-94850009D02*
X104682969Y-94897628D01*
X104682969Y-94897628D02*
X104730588Y-94945247D01*
X104730588Y-94945247D02*
X104778207Y-95040485D01*
X104778207Y-95040485D02*
X104778207Y-95183342D01*
X104778207Y-95183342D02*
X104730588Y-95278580D01*
X104730588Y-95278580D02*
X104682969Y-95326200D01*
X104682969Y-95326200D02*
X104587731Y-95373819D01*
X104587731Y-95373819D02*
X104206779Y-95373819D01*
X104206779Y-95373819D02*
X104206779Y-94373819D01*
X104206779Y-94373819D02*
X104540112Y-94373819D01*
X104540112Y-94373819D02*
X104635350Y-94421438D01*
X104635350Y-94421438D02*
X104682969Y-94469057D01*
X104682969Y-94469057D02*
X104730588Y-94564295D01*
X104730588Y-94564295D02*
X104730588Y-94659533D01*
X104730588Y-94659533D02*
X104682969Y-94754771D01*
X104682969Y-94754771D02*
X104635350Y-94802390D01*
X104635350Y-94802390D02*
X104540112Y-94850009D01*
X104540112Y-94850009D02*
X104206779Y-94850009D01*
X105730588Y-95373819D02*
X105159160Y-95373819D01*
X105444874Y-95373819D02*
X105444874Y-94373819D01*
X105444874Y-94373819D02*
X105349636Y-94516676D01*
X105349636Y-94516676D02*
X105254398Y-94611914D01*
X105254398Y-94611914D02*
X105159160Y-94659533D01*
X103206779Y-97659819D02*
X103206779Y-96659819D01*
X103206779Y-96659819D02*
X103587731Y-96659819D01*
X103587731Y-96659819D02*
X103682969Y-96707438D01*
X103682969Y-96707438D02*
X103730588Y-96755057D01*
X103730588Y-96755057D02*
X103778207Y-96850295D01*
X103778207Y-96850295D02*
X103778207Y-96993152D01*
X103778207Y-96993152D02*
X103730588Y-97088390D01*
X103730588Y-97088390D02*
X103682969Y-97136009D01*
X103682969Y-97136009D02*
X103587731Y-97183628D01*
X103587731Y-97183628D02*
X103206779Y-97183628D01*
X104540112Y-97136009D02*
X104682969Y-97183628D01*
X104682969Y-97183628D02*
X104730588Y-97231247D01*
X104730588Y-97231247D02*
X104778207Y-97326485D01*
X104778207Y-97326485D02*
X104778207Y-97469342D01*
X104778207Y-97469342D02*
X104730588Y-97564580D01*
X104730588Y-97564580D02*
X104682969Y-97612200D01*
X104682969Y-97612200D02*
X104587731Y-97659819D01*
X104587731Y-97659819D02*
X104206779Y-97659819D01*
X104206779Y-97659819D02*
X104206779Y-96659819D01*
X104206779Y-96659819D02*
X104540112Y-96659819D01*
X104540112Y-96659819D02*
X104635350Y-96707438D01*
X104635350Y-96707438D02*
X104682969Y-96755057D01*
X104682969Y-96755057D02*
X104730588Y-96850295D01*
X104730588Y-96850295D02*
X104730588Y-96945533D01*
X104730588Y-96945533D02*
X104682969Y-97040771D01*
X104682969Y-97040771D02*
X104635350Y-97088390D01*
X104635350Y-97088390D02*
X104540112Y-97136009D01*
X104540112Y-97136009D02*
X104206779Y-97136009D01*
X105111541Y-96659819D02*
X105730588Y-96659819D01*
X105730588Y-96659819D02*
X105397255Y-97040771D01*
X105397255Y-97040771D02*
X105540112Y-97040771D01*
X105540112Y-97040771D02*
X105635350Y-97088390D01*
X105635350Y-97088390D02*
X105682969Y-97136009D01*
X105682969Y-97136009D02*
X105730588Y-97231247D01*
X105730588Y-97231247D02*
X105730588Y-97469342D01*
X105730588Y-97469342D02*
X105682969Y-97564580D01*
X105682969Y-97564580D02*
X105635350Y-97612200D01*
X105635350Y-97612200D02*
X105540112Y-97659819D01*
X105540112Y-97659819D02*
X105254398Y-97659819D01*
X105254398Y-97659819D02*
X105159160Y-97612200D01*
X105159160Y-97612200D02*
X105111541Y-97564580D01*
X103206779Y-100199819D02*
X103206779Y-99199819D01*
X103206779Y-99199819D02*
X103587731Y-99199819D01*
X103587731Y-99199819D02*
X103682969Y-99247438D01*
X103682969Y-99247438D02*
X103730588Y-99295057D01*
X103730588Y-99295057D02*
X103778207Y-99390295D01*
X103778207Y-99390295D02*
X103778207Y-99533152D01*
X103778207Y-99533152D02*
X103730588Y-99628390D01*
X103730588Y-99628390D02*
X103682969Y-99676009D01*
X103682969Y-99676009D02*
X103587731Y-99723628D01*
X103587731Y-99723628D02*
X103206779Y-99723628D01*
X104159160Y-99914104D02*
X104635350Y-99914104D01*
X104063922Y-100199819D02*
X104397255Y-99199819D01*
X104397255Y-99199819D02*
X104730588Y-100199819D01*
X105492493Y-99533152D02*
X105492493Y-100199819D01*
X105254398Y-99152200D02*
X105016303Y-99866485D01*
X105016303Y-99866485D02*
X105635350Y-99866485D01*
X103206779Y-102739819D02*
X103206779Y-101739819D01*
X103206779Y-101739819D02*
X103587731Y-101739819D01*
X103587731Y-101739819D02*
X103682969Y-101787438D01*
X103682969Y-101787438D02*
X103730588Y-101835057D01*
X103730588Y-101835057D02*
X103778207Y-101930295D01*
X103778207Y-101930295D02*
X103778207Y-102073152D01*
X103778207Y-102073152D02*
X103730588Y-102168390D01*
X103730588Y-102168390D02*
X103682969Y-102216009D01*
X103682969Y-102216009D02*
X103587731Y-102263628D01*
X103587731Y-102263628D02*
X103206779Y-102263628D01*
X104159160Y-102454104D02*
X104635350Y-102454104D01*
X104063922Y-102739819D02*
X104397255Y-101739819D01*
X104397255Y-101739819D02*
X104730588Y-102739819D01*
X105540112Y-101739819D02*
X105063922Y-101739819D01*
X105063922Y-101739819D02*
X105016303Y-102216009D01*
X105016303Y-102216009D02*
X105063922Y-102168390D01*
X105063922Y-102168390D02*
X105159160Y-102120771D01*
X105159160Y-102120771D02*
X105397255Y-102120771D01*
X105397255Y-102120771D02*
X105492493Y-102168390D01*
X105492493Y-102168390D02*
X105540112Y-102216009D01*
X105540112Y-102216009D02*
X105587731Y-102311247D01*
X105587731Y-102311247D02*
X105587731Y-102549342D01*
X105587731Y-102549342D02*
X105540112Y-102644580D01*
X105540112Y-102644580D02*
X105492493Y-102692200D01*
X105492493Y-102692200D02*
X105397255Y-102739819D01*
X105397255Y-102739819D02*
X105159160Y-102739819D01*
X105159160Y-102739819D02*
X105063922Y-102692200D01*
X105063922Y-102692200D02*
X105016303Y-102644580D01*
X103206779Y-105279819D02*
X103206779Y-104279819D01*
X103206779Y-104279819D02*
X103587731Y-104279819D01*
X103587731Y-104279819D02*
X103682969Y-104327438D01*
X103682969Y-104327438D02*
X103730588Y-104375057D01*
X103730588Y-104375057D02*
X103778207Y-104470295D01*
X103778207Y-104470295D02*
X103778207Y-104613152D01*
X103778207Y-104613152D02*
X103730588Y-104708390D01*
X103730588Y-104708390D02*
X103682969Y-104756009D01*
X103682969Y-104756009D02*
X103587731Y-104803628D01*
X103587731Y-104803628D02*
X103206779Y-104803628D01*
X104159160Y-104994104D02*
X104635350Y-104994104D01*
X104063922Y-105279819D02*
X104397255Y-104279819D01*
X104397255Y-104279819D02*
X104730588Y-105279819D01*
X105492493Y-104279819D02*
X105302017Y-104279819D01*
X105302017Y-104279819D02*
X105206779Y-104327438D01*
X105206779Y-104327438D02*
X105159160Y-104375057D01*
X105159160Y-104375057D02*
X105063922Y-104517914D01*
X105063922Y-104517914D02*
X105016303Y-104708390D01*
X105016303Y-104708390D02*
X105016303Y-105089342D01*
X105016303Y-105089342D02*
X105063922Y-105184580D01*
X105063922Y-105184580D02*
X105111541Y-105232200D01*
X105111541Y-105232200D02*
X105206779Y-105279819D01*
X105206779Y-105279819D02*
X105397255Y-105279819D01*
X105397255Y-105279819D02*
X105492493Y-105232200D01*
X105492493Y-105232200D02*
X105540112Y-105184580D01*
X105540112Y-105184580D02*
X105587731Y-105089342D01*
X105587731Y-105089342D02*
X105587731Y-104851247D01*
X105587731Y-104851247D02*
X105540112Y-104756009D01*
X105540112Y-104756009D02*
X105492493Y-104708390D01*
X105492493Y-104708390D02*
X105397255Y-104660771D01*
X105397255Y-104660771D02*
X105206779Y-104660771D01*
X105206779Y-104660771D02*
X105111541Y-104708390D01*
X105111541Y-104708390D02*
X105063922Y-104756009D01*
X105063922Y-104756009D02*
X105016303Y-104851247D01*
X103206779Y-107311819D02*
X103206779Y-106311819D01*
X103206779Y-106311819D02*
X103587731Y-106311819D01*
X103587731Y-106311819D02*
X103682969Y-106359438D01*
X103682969Y-106359438D02*
X103730588Y-106407057D01*
X103730588Y-106407057D02*
X103778207Y-106502295D01*
X103778207Y-106502295D02*
X103778207Y-106645152D01*
X103778207Y-106645152D02*
X103730588Y-106740390D01*
X103730588Y-106740390D02*
X103682969Y-106788009D01*
X103682969Y-106788009D02*
X103587731Y-106835628D01*
X103587731Y-106835628D02*
X103206779Y-106835628D01*
X104159160Y-107026104D02*
X104635350Y-107026104D01*
X104063922Y-107311819D02*
X104397255Y-106311819D01*
X104397255Y-106311819D02*
X104730588Y-107311819D01*
X104968684Y-106311819D02*
X105635350Y-106311819D01*
X105635350Y-106311819D02*
X105206779Y-107311819D01*
X103730588Y-108137438D02*
X103635350Y-108089819D01*
X103635350Y-108089819D02*
X103492493Y-108089819D01*
X103492493Y-108089819D02*
X103349636Y-108137438D01*
X103349636Y-108137438D02*
X103254398Y-108232676D01*
X103254398Y-108232676D02*
X103206779Y-108327914D01*
X103206779Y-108327914D02*
X103159160Y-108518390D01*
X103159160Y-108518390D02*
X103159160Y-108661247D01*
X103159160Y-108661247D02*
X103206779Y-108851723D01*
X103206779Y-108851723D02*
X103254398Y-108946961D01*
X103254398Y-108946961D02*
X103349636Y-109042200D01*
X103349636Y-109042200D02*
X103492493Y-109089819D01*
X103492493Y-109089819D02*
X103587731Y-109089819D01*
X103587731Y-109089819D02*
X103730588Y-109042200D01*
X103730588Y-109042200D02*
X103778207Y-108994580D01*
X103778207Y-108994580D02*
X103778207Y-108661247D01*
X103778207Y-108661247D02*
X103587731Y-108661247D01*
X104206779Y-109089819D02*
X104206779Y-108089819D01*
X104206779Y-108089819D02*
X104778207Y-109089819D01*
X104778207Y-109089819D02*
X104778207Y-108089819D01*
X105254398Y-109089819D02*
X105254398Y-108089819D01*
X105254398Y-108089819D02*
X105492493Y-108089819D01*
X105492493Y-108089819D02*
X105635350Y-108137438D01*
X105635350Y-108137438D02*
X105730588Y-108232676D01*
X105730588Y-108232676D02*
X105778207Y-108327914D01*
X105778207Y-108327914D02*
X105825826Y-108518390D01*
X105825826Y-108518390D02*
X105825826Y-108661247D01*
X105825826Y-108661247D02*
X105778207Y-108851723D01*
X105778207Y-108851723D02*
X105730588Y-108946961D01*
X105730588Y-108946961D02*
X105635350Y-109042200D01*
X105635350Y-109042200D02*
X105492493Y-109089819D01*
X105492493Y-109089819D02*
X105254398Y-109089819D01*
X143100588Y-109153438D02*
X143005350Y-109105819D01*
X143005350Y-109105819D02*
X142862493Y-109105819D01*
X142862493Y-109105819D02*
X142719636Y-109153438D01*
X142719636Y-109153438D02*
X142624398Y-109248676D01*
X142624398Y-109248676D02*
X142576779Y-109343914D01*
X142576779Y-109343914D02*
X142529160Y-109534390D01*
X142529160Y-109534390D02*
X142529160Y-109677247D01*
X142529160Y-109677247D02*
X142576779Y-109867723D01*
X142576779Y-109867723D02*
X142624398Y-109962961D01*
X142624398Y-109962961D02*
X142719636Y-110058200D01*
X142719636Y-110058200D02*
X142862493Y-110105819D01*
X142862493Y-110105819D02*
X142957731Y-110105819D01*
X142957731Y-110105819D02*
X143100588Y-110058200D01*
X143100588Y-110058200D02*
X143148207Y-110010580D01*
X143148207Y-110010580D02*
X143148207Y-109677247D01*
X143148207Y-109677247D02*
X142957731Y-109677247D01*
X143576779Y-110105819D02*
X143576779Y-109105819D01*
X143576779Y-109105819D02*
X144148207Y-110105819D01*
X144148207Y-110105819D02*
X144148207Y-109105819D01*
X144624398Y-110105819D02*
X144624398Y-109105819D01*
X144624398Y-109105819D02*
X144862493Y-109105819D01*
X144862493Y-109105819D02*
X145005350Y-109153438D01*
X145005350Y-109153438D02*
X145100588Y-109248676D01*
X145100588Y-109248676D02*
X145148207Y-109343914D01*
X145148207Y-109343914D02*
X145195826Y-109534390D01*
X145195826Y-109534390D02*
X145195826Y-109677247D01*
X145195826Y-109677247D02*
X145148207Y-109867723D01*
X145148207Y-109867723D02*
X145100588Y-109962961D01*
X145100588Y-109962961D02*
X145005350Y-110058200D01*
X145005350Y-110058200D02*
X144862493Y-110105819D01*
X144862493Y-110105819D02*
X144624398Y-110105819D01*
X142783160Y-107010200D02*
X142926017Y-107057819D01*
X142926017Y-107057819D02*
X143164112Y-107057819D01*
X143164112Y-107057819D02*
X143259350Y-107010200D01*
X143259350Y-107010200D02*
X143306969Y-106962580D01*
X143306969Y-106962580D02*
X143354588Y-106867342D01*
X143354588Y-106867342D02*
X143354588Y-106772104D01*
X143354588Y-106772104D02*
X143306969Y-106676866D01*
X143306969Y-106676866D02*
X143259350Y-106629247D01*
X143259350Y-106629247D02*
X143164112Y-106581628D01*
X143164112Y-106581628D02*
X142973636Y-106534009D01*
X142973636Y-106534009D02*
X142878398Y-106486390D01*
X142878398Y-106486390D02*
X142830779Y-106438771D01*
X142830779Y-106438771D02*
X142783160Y-106343533D01*
X142783160Y-106343533D02*
X142783160Y-106248295D01*
X142783160Y-106248295D02*
X142830779Y-106153057D01*
X142830779Y-106153057D02*
X142878398Y-106105438D01*
X142878398Y-106105438D02*
X142973636Y-106057819D01*
X142973636Y-106057819D02*
X143211731Y-106057819D01*
X143211731Y-106057819D02*
X143354588Y-106105438D01*
X144354588Y-106962580D02*
X144306969Y-107010200D01*
X144306969Y-107010200D02*
X144164112Y-107057819D01*
X144164112Y-107057819D02*
X144068874Y-107057819D01*
X144068874Y-107057819D02*
X143926017Y-107010200D01*
X143926017Y-107010200D02*
X143830779Y-106914961D01*
X143830779Y-106914961D02*
X143783160Y-106819723D01*
X143783160Y-106819723D02*
X143735541Y-106629247D01*
X143735541Y-106629247D02*
X143735541Y-106486390D01*
X143735541Y-106486390D02*
X143783160Y-106295914D01*
X143783160Y-106295914D02*
X143830779Y-106200676D01*
X143830779Y-106200676D02*
X143926017Y-106105438D01*
X143926017Y-106105438D02*
X144068874Y-106057819D01*
X144068874Y-106057819D02*
X144164112Y-106057819D01*
X144164112Y-106057819D02*
X144306969Y-106105438D01*
X144306969Y-106105438D02*
X144354588Y-106153057D01*
X145259350Y-107057819D02*
X144783160Y-107057819D01*
X144783160Y-107057819D02*
X144783160Y-106057819D01*
X142783160Y-104470200D02*
X142926017Y-104517819D01*
X142926017Y-104517819D02*
X143164112Y-104517819D01*
X143164112Y-104517819D02*
X143259350Y-104470200D01*
X143259350Y-104470200D02*
X143306969Y-104422580D01*
X143306969Y-104422580D02*
X143354588Y-104327342D01*
X143354588Y-104327342D02*
X143354588Y-104232104D01*
X143354588Y-104232104D02*
X143306969Y-104136866D01*
X143306969Y-104136866D02*
X143259350Y-104089247D01*
X143259350Y-104089247D02*
X143164112Y-104041628D01*
X143164112Y-104041628D02*
X142973636Y-103994009D01*
X142973636Y-103994009D02*
X142878398Y-103946390D01*
X142878398Y-103946390D02*
X142830779Y-103898771D01*
X142830779Y-103898771D02*
X142783160Y-103803533D01*
X142783160Y-103803533D02*
X142783160Y-103708295D01*
X142783160Y-103708295D02*
X142830779Y-103613057D01*
X142830779Y-103613057D02*
X142878398Y-103565438D01*
X142878398Y-103565438D02*
X142973636Y-103517819D01*
X142973636Y-103517819D02*
X143211731Y-103517819D01*
X143211731Y-103517819D02*
X143354588Y-103565438D01*
X143783160Y-104517819D02*
X143783160Y-103517819D01*
X143783160Y-103517819D02*
X144021255Y-103517819D01*
X144021255Y-103517819D02*
X144164112Y-103565438D01*
X144164112Y-103565438D02*
X144259350Y-103660676D01*
X144259350Y-103660676D02*
X144306969Y-103755914D01*
X144306969Y-103755914D02*
X144354588Y-103946390D01*
X144354588Y-103946390D02*
X144354588Y-104089247D01*
X144354588Y-104089247D02*
X144306969Y-104279723D01*
X144306969Y-104279723D02*
X144259350Y-104374961D01*
X144259350Y-104374961D02*
X144164112Y-104470200D01*
X144164112Y-104470200D02*
X144021255Y-104517819D01*
X144021255Y-104517819D02*
X143783160Y-104517819D01*
X144735541Y-104232104D02*
X145211731Y-104232104D01*
X144640303Y-104517819D02*
X144973636Y-103517819D01*
X144973636Y-103517819D02*
X145306969Y-104517819D01*
X144322969Y-123837819D02*
X143846779Y-123837819D01*
X143846779Y-123837819D02*
X143799160Y-124314009D01*
X143799160Y-124314009D02*
X143846779Y-124266390D01*
X143846779Y-124266390D02*
X143942017Y-124218771D01*
X143942017Y-124218771D02*
X144180112Y-124218771D01*
X144180112Y-124218771D02*
X144275350Y-124266390D01*
X144275350Y-124266390D02*
X144322969Y-124314009D01*
X144322969Y-124314009D02*
X144370588Y-124409247D01*
X144370588Y-124409247D02*
X144370588Y-124647342D01*
X144370588Y-124647342D02*
X144322969Y-124742580D01*
X144322969Y-124742580D02*
X144275350Y-124790200D01*
X144275350Y-124790200D02*
X144180112Y-124837819D01*
X144180112Y-124837819D02*
X143942017Y-124837819D01*
X143942017Y-124837819D02*
X143846779Y-124790200D01*
X143846779Y-124790200D02*
X143799160Y-124742580D01*
X144656303Y-123837819D02*
X144989636Y-124837819D01*
X144989636Y-124837819D02*
X145322969Y-123837819D01*
X143100588Y-121345438D02*
X143005350Y-121297819D01*
X143005350Y-121297819D02*
X142862493Y-121297819D01*
X142862493Y-121297819D02*
X142719636Y-121345438D01*
X142719636Y-121345438D02*
X142624398Y-121440676D01*
X142624398Y-121440676D02*
X142576779Y-121535914D01*
X142576779Y-121535914D02*
X142529160Y-121726390D01*
X142529160Y-121726390D02*
X142529160Y-121869247D01*
X142529160Y-121869247D02*
X142576779Y-122059723D01*
X142576779Y-122059723D02*
X142624398Y-122154961D01*
X142624398Y-122154961D02*
X142719636Y-122250200D01*
X142719636Y-122250200D02*
X142862493Y-122297819D01*
X142862493Y-122297819D02*
X142957731Y-122297819D01*
X142957731Y-122297819D02*
X143100588Y-122250200D01*
X143100588Y-122250200D02*
X143148207Y-122202580D01*
X143148207Y-122202580D02*
X143148207Y-121869247D01*
X143148207Y-121869247D02*
X142957731Y-121869247D01*
X143576779Y-122297819D02*
X143576779Y-121297819D01*
X143576779Y-121297819D02*
X144148207Y-122297819D01*
X144148207Y-122297819D02*
X144148207Y-121297819D01*
X144624398Y-122297819D02*
X144624398Y-121297819D01*
X144624398Y-121297819D02*
X144862493Y-121297819D01*
X144862493Y-121297819D02*
X145005350Y-121345438D01*
X145005350Y-121345438D02*
X145100588Y-121440676D01*
X145100588Y-121440676D02*
X145148207Y-121535914D01*
X145148207Y-121535914D02*
X145195826Y-121726390D01*
X145195826Y-121726390D02*
X145195826Y-121869247D01*
X145195826Y-121869247D02*
X145148207Y-122059723D01*
X145148207Y-122059723D02*
X145100588Y-122154961D01*
X145100588Y-122154961D02*
X145005350Y-122250200D01*
X145005350Y-122250200D02*
X144862493Y-122297819D01*
X144862493Y-122297819D02*
X144624398Y-122297819D01*
X144418207Y-117217819D02*
X144084874Y-116741628D01*
X143846779Y-117217819D02*
X143846779Y-116217819D01*
X143846779Y-116217819D02*
X144227731Y-116217819D01*
X144227731Y-116217819D02*
X144322969Y-116265438D01*
X144322969Y-116265438D02*
X144370588Y-116313057D01*
X144370588Y-116313057D02*
X144418207Y-116408295D01*
X144418207Y-116408295D02*
X144418207Y-116551152D01*
X144418207Y-116551152D02*
X144370588Y-116646390D01*
X144370588Y-116646390D02*
X144322969Y-116694009D01*
X144322969Y-116694009D02*
X144227731Y-116741628D01*
X144227731Y-116741628D02*
X143846779Y-116741628D01*
X144751541Y-116217819D02*
X145418207Y-117217819D01*
X145418207Y-116217819D02*
X144751541Y-117217819D01*
X143703922Y-118757819D02*
X144275350Y-118757819D01*
X143989636Y-119757819D02*
X143989636Y-118757819D01*
X144513446Y-118757819D02*
X145180112Y-119757819D01*
X145180112Y-118757819D02*
X144513446Y-119757819D01*
X146576133Y-74504779D02*
X146576133Y-75266684D01*
X146195180Y-74885731D02*
X146957085Y-74885731D01*
X144378839Y-74472800D02*
X144235982Y-74425180D01*
X144235982Y-74425180D02*
X143997887Y-74425180D01*
X143997887Y-74425180D02*
X143902649Y-74472800D01*
X143902649Y-74472800D02*
X143855030Y-74520419D01*
X143855030Y-74520419D02*
X143807411Y-74615657D01*
X143807411Y-74615657D02*
X143807411Y-74710895D01*
X143807411Y-74710895D02*
X143855030Y-74806133D01*
X143855030Y-74806133D02*
X143902649Y-74853752D01*
X143902649Y-74853752D02*
X143997887Y-74901371D01*
X143997887Y-74901371D02*
X144188363Y-74948990D01*
X144188363Y-74948990D02*
X144283601Y-74996609D01*
X144283601Y-74996609D02*
X144331220Y-75044228D01*
X144331220Y-75044228D02*
X144378839Y-75139466D01*
X144378839Y-75139466D02*
X144378839Y-75234704D01*
X144378839Y-75234704D02*
X144331220Y-75329942D01*
X144331220Y-75329942D02*
X144283601Y-75377561D01*
X144283601Y-75377561D02*
X144188363Y-75425180D01*
X144188363Y-75425180D02*
X143950268Y-75425180D01*
X143950268Y-75425180D02*
X143807411Y-75377561D01*
X141194779Y-75053866D02*
X141956684Y-75053866D01*
X110672762Y-118834819D02*
X110672762Y-119644342D01*
X110672762Y-119644342D02*
X110720381Y-119739580D01*
X110720381Y-119739580D02*
X110768000Y-119787200D01*
X110768000Y-119787200D02*
X110863238Y-119834819D01*
X110863238Y-119834819D02*
X111053714Y-119834819D01*
X111053714Y-119834819D02*
X111148952Y-119787200D01*
X111148952Y-119787200D02*
X111196571Y-119739580D01*
X111196571Y-119739580D02*
X111244190Y-119644342D01*
X111244190Y-119644342D02*
X111244190Y-118834819D01*
X111672762Y-119549104D02*
X112148952Y-119549104D01*
X111577524Y-119834819D02*
X111910857Y-118834819D01*
X111910857Y-118834819D02*
X112244190Y-119834819D01*
X113148952Y-119834819D02*
X112815619Y-119358628D01*
X112577524Y-119834819D02*
X112577524Y-118834819D01*
X112577524Y-118834819D02*
X112958476Y-118834819D01*
X112958476Y-118834819D02*
X113053714Y-118882438D01*
X113053714Y-118882438D02*
X113101333Y-118930057D01*
X113101333Y-118930057D02*
X113148952Y-119025295D01*
X113148952Y-119025295D02*
X113148952Y-119168152D01*
X113148952Y-119168152D02*
X113101333Y-119263390D01*
X113101333Y-119263390D02*
X113053714Y-119311009D01*
X113053714Y-119311009D02*
X112958476Y-119358628D01*
X112958476Y-119358628D02*
X112577524Y-119358628D01*
X113434667Y-118834819D02*
X114006095Y-118834819D01*
X113720381Y-119834819D02*
X113720381Y-118834819D01*
X137120380Y-116616819D02*
X136787047Y-116140628D01*
X136548952Y-116616819D02*
X136548952Y-115616819D01*
X136548952Y-115616819D02*
X136929904Y-115616819D01*
X136929904Y-115616819D02*
X137025142Y-115664438D01*
X137025142Y-115664438D02*
X137072761Y-115712057D01*
X137072761Y-115712057D02*
X137120380Y-115807295D01*
X137120380Y-115807295D02*
X137120380Y-115950152D01*
X137120380Y-115950152D02*
X137072761Y-116045390D01*
X137072761Y-116045390D02*
X137025142Y-116093009D01*
X137025142Y-116093009D02*
X136929904Y-116140628D01*
X136929904Y-116140628D02*
X136548952Y-116140628D01*
X137501333Y-116569200D02*
X137644190Y-116616819D01*
X137644190Y-116616819D02*
X137882285Y-116616819D01*
X137882285Y-116616819D02*
X137977523Y-116569200D01*
X137977523Y-116569200D02*
X138025142Y-116521580D01*
X138025142Y-116521580D02*
X138072761Y-116426342D01*
X138072761Y-116426342D02*
X138072761Y-116331104D01*
X138072761Y-116331104D02*
X138025142Y-116235866D01*
X138025142Y-116235866D02*
X137977523Y-116188247D01*
X137977523Y-116188247D02*
X137882285Y-116140628D01*
X137882285Y-116140628D02*
X137691809Y-116093009D01*
X137691809Y-116093009D02*
X137596571Y-116045390D01*
X137596571Y-116045390D02*
X137548952Y-115997771D01*
X137548952Y-115997771D02*
X137501333Y-115902533D01*
X137501333Y-115902533D02*
X137501333Y-115807295D01*
X137501333Y-115807295D02*
X137548952Y-115712057D01*
X137548952Y-115712057D02*
X137596571Y-115664438D01*
X137596571Y-115664438D02*
X137691809Y-115616819D01*
X137691809Y-115616819D02*
X137929904Y-115616819D01*
X137929904Y-115616819D02*
X138072761Y-115664438D01*
X138358476Y-115616819D02*
X138929904Y-115616819D01*
X138644190Y-116616819D02*
X138644190Y-115616819D01*
X130810095Y-125946819D02*
X130810095Y-126756342D01*
X130810095Y-126756342D02*
X130857714Y-126851580D01*
X130857714Y-126851580D02*
X130905333Y-126899200D01*
X130905333Y-126899200D02*
X131000571Y-126946819D01*
X131000571Y-126946819D02*
X131191047Y-126946819D01*
X131191047Y-126946819D02*
X131286285Y-126899200D01*
X131286285Y-126899200D02*
X131333904Y-126851580D01*
X131333904Y-126851580D02*
X131381523Y-126756342D01*
X131381523Y-126756342D02*
X131381523Y-125946819D01*
X132333904Y-125946819D02*
X131857714Y-125946819D01*
X131857714Y-125946819D02*
X131810095Y-126423009D01*
X131810095Y-126423009D02*
X131857714Y-126375390D01*
X131857714Y-126375390D02*
X131952952Y-126327771D01*
X131952952Y-126327771D02*
X132191047Y-126327771D01*
X132191047Y-126327771D02*
X132286285Y-126375390D01*
X132286285Y-126375390D02*
X132333904Y-126423009D01*
X132333904Y-126423009D02*
X132381523Y-126518247D01*
X132381523Y-126518247D02*
X132381523Y-126756342D01*
X132381523Y-126756342D02*
X132333904Y-126851580D01*
X132333904Y-126851580D02*
X132286285Y-126899200D01*
X132286285Y-126899200D02*
X132191047Y-126946819D01*
X132191047Y-126946819D02*
X131952952Y-126946819D01*
X131952952Y-126946819D02*
X131857714Y-126899200D01*
X131857714Y-126899200D02*
X131810095Y-126851580D01*
X117555143Y-126946819D02*
X117555143Y-125946819D01*
X117555143Y-125946819D02*
X118126571Y-126946819D01*
X118126571Y-126946819D02*
X118126571Y-125946819D01*
X118602762Y-125946819D02*
X118602762Y-126756342D01*
X118602762Y-126756342D02*
X118650381Y-126851580D01*
X118650381Y-126851580D02*
X118698000Y-126899200D01*
X118698000Y-126899200D02*
X118793238Y-126946819D01*
X118793238Y-126946819D02*
X118983714Y-126946819D01*
X118983714Y-126946819D02*
X119078952Y-126899200D01*
X119078952Y-126899200D02*
X119126571Y-126851580D01*
X119126571Y-126851580D02*
X119174190Y-126756342D01*
X119174190Y-126756342D02*
X119174190Y-125946819D01*
X120221809Y-126851580D02*
X120174190Y-126899200D01*
X120174190Y-126899200D02*
X120031333Y-126946819D01*
X120031333Y-126946819D02*
X119936095Y-126946819D01*
X119936095Y-126946819D02*
X119793238Y-126899200D01*
X119793238Y-126899200D02*
X119698000Y-126803961D01*
X119698000Y-126803961D02*
X119650381Y-126708723D01*
X119650381Y-126708723D02*
X119602762Y-126518247D01*
X119602762Y-126518247D02*
X119602762Y-126375390D01*
X119602762Y-126375390D02*
X119650381Y-126184914D01*
X119650381Y-126184914D02*
X119698000Y-126089676D01*
X119698000Y-126089676D02*
X119793238Y-125994438D01*
X119793238Y-125994438D02*
X119936095Y-125946819D01*
X119936095Y-125946819D02*
X120031333Y-125946819D01*
X120031333Y-125946819D02*
X120174190Y-125994438D01*
X120174190Y-125994438D02*
X120221809Y-126042057D01*
X121126571Y-126946819D02*
X120650381Y-126946819D01*
X120650381Y-126946819D02*
X120650381Y-125946819D01*
X121459905Y-126423009D02*
X121793238Y-126423009D01*
X121936095Y-126946819D02*
X121459905Y-126946819D01*
X121459905Y-126946819D02*
X121459905Y-125946819D01*
X121459905Y-125946819D02*
X121936095Y-125946819D01*
X122555143Y-125946819D02*
X122745619Y-125946819D01*
X122745619Y-125946819D02*
X122840857Y-125994438D01*
X122840857Y-125994438D02*
X122936095Y-126089676D01*
X122936095Y-126089676D02*
X122983714Y-126280152D01*
X122983714Y-126280152D02*
X122983714Y-126613485D01*
X122983714Y-126613485D02*
X122936095Y-126803961D01*
X122936095Y-126803961D02*
X122840857Y-126899200D01*
X122840857Y-126899200D02*
X122745619Y-126946819D01*
X122745619Y-126946819D02*
X122555143Y-126946819D01*
X122555143Y-126946819D02*
X122459905Y-126899200D01*
X122459905Y-126899200D02*
X122364667Y-126803961D01*
X122364667Y-126803961D02*
X122317048Y-126613485D01*
X122317048Y-126613485D02*
X122317048Y-126280152D01*
X122317048Y-126280152D02*
X122364667Y-126089676D01*
X122364667Y-126089676D02*
X122459905Y-125994438D01*
X122459905Y-125994438D02*
X122555143Y-125946819D01*
X123412286Y-126565866D02*
X124174191Y-126565866D01*
X125126571Y-126946819D02*
X124650381Y-126946819D01*
X124650381Y-126946819D02*
X124650381Y-125946819D01*
X125888476Y-126280152D02*
X125888476Y-126946819D01*
X125650381Y-125899200D02*
X125412286Y-126613485D01*
X125412286Y-126613485D02*
X126031333Y-126613485D01*
X126317048Y-125946819D02*
X126936095Y-125946819D01*
X126936095Y-125946819D02*
X126602762Y-126327771D01*
X126602762Y-126327771D02*
X126745619Y-126327771D01*
X126745619Y-126327771D02*
X126840857Y-126375390D01*
X126840857Y-126375390D02*
X126888476Y-126423009D01*
X126888476Y-126423009D02*
X126936095Y-126518247D01*
X126936095Y-126518247D02*
X126936095Y-126756342D01*
X126936095Y-126756342D02*
X126888476Y-126851580D01*
X126888476Y-126851580D02*
X126840857Y-126899200D01*
X126840857Y-126899200D02*
X126745619Y-126946819D01*
X126745619Y-126946819D02*
X126459905Y-126946819D01*
X126459905Y-126946819D02*
X126364667Y-126899200D01*
X126364667Y-126899200D02*
X126317048Y-126851580D01*
X127317048Y-126042057D02*
X127364667Y-125994438D01*
X127364667Y-125994438D02*
X127459905Y-125946819D01*
X127459905Y-125946819D02*
X127698000Y-125946819D01*
X127698000Y-125946819D02*
X127793238Y-125994438D01*
X127793238Y-125994438D02*
X127840857Y-126042057D01*
X127840857Y-126042057D02*
X127888476Y-126137295D01*
X127888476Y-126137295D02*
X127888476Y-126232533D01*
X127888476Y-126232533D02*
X127840857Y-126375390D01*
X127840857Y-126375390D02*
X127269429Y-126946819D01*
X127269429Y-126946819D02*
X127888476Y-126946819D01*
X128317048Y-126946819D02*
X128317048Y-125946819D01*
X128888476Y-126946819D02*
X128459905Y-126375390D01*
X128888476Y-125946819D02*
X128317048Y-126518247D01*
X129888476Y-126851580D02*
X129840857Y-126899200D01*
X129840857Y-126899200D02*
X129698000Y-126946819D01*
X129698000Y-126946819D02*
X129602762Y-126946819D01*
X129602762Y-126946819D02*
X129459905Y-126899200D01*
X129459905Y-126899200D02*
X129364667Y-126803961D01*
X129364667Y-126803961D02*
X129317048Y-126708723D01*
X129317048Y-126708723D02*
X129269429Y-126518247D01*
X129269429Y-126518247D02*
X129269429Y-126375390D01*
X129269429Y-126375390D02*
X129317048Y-126184914D01*
X129317048Y-126184914D02*
X129364667Y-126089676D01*
X129364667Y-126089676D02*
X129459905Y-125994438D01*
X129459905Y-125994438D02*
X129602762Y-125946819D01*
X129602762Y-125946819D02*
X129698000Y-125946819D01*
X129698000Y-125946819D02*
X129840857Y-125994438D01*
X129840857Y-125994438D02*
X129888476Y-126042057D01*
X121571048Y-77622319D02*
X121571048Y-76622319D01*
X122047238Y-77622319D02*
X122047238Y-76622319D01*
X122047238Y-76622319D02*
X122618666Y-77622319D01*
X122618666Y-77622319D02*
X122618666Y-76622319D01*
X123047238Y-77336604D02*
X123523428Y-77336604D01*
X122952000Y-77622319D02*
X123285333Y-76622319D01*
X123285333Y-76622319D02*
X123618666Y-77622319D01*
X123904381Y-76717557D02*
X123952000Y-76669938D01*
X123952000Y-76669938D02*
X124047238Y-76622319D01*
X124047238Y-76622319D02*
X124285333Y-76622319D01*
X124285333Y-76622319D02*
X124380571Y-76669938D01*
X124380571Y-76669938D02*
X124428190Y-76717557D01*
X124428190Y-76717557D02*
X124475809Y-76812795D01*
X124475809Y-76812795D02*
X124475809Y-76908033D01*
X124475809Y-76908033D02*
X124428190Y-77050890D01*
X124428190Y-77050890D02*
X123856762Y-77622319D01*
X123856762Y-77622319D02*
X124475809Y-77622319D01*
X125428190Y-77622319D02*
X124856762Y-77622319D01*
X125142476Y-77622319D02*
X125142476Y-76622319D01*
X125142476Y-76622319D02*
X125047238Y-76765176D01*
X125047238Y-76765176D02*
X124952000Y-76860414D01*
X124952000Y-76860414D02*
X124856762Y-76908033D01*
X125904381Y-77622319D02*
X126094857Y-77622319D01*
X126094857Y-77622319D02*
X126190095Y-77574700D01*
X126190095Y-77574700D02*
X126237714Y-77527080D01*
X126237714Y-77527080D02*
X126332952Y-77384223D01*
X126332952Y-77384223D02*
X126380571Y-77193747D01*
X126380571Y-77193747D02*
X126380571Y-76812795D01*
X126380571Y-76812795D02*
X126332952Y-76717557D01*
X126332952Y-76717557D02*
X126285333Y-76669938D01*
X126285333Y-76669938D02*
X126190095Y-76622319D01*
X126190095Y-76622319D02*
X125999619Y-76622319D01*
X125999619Y-76622319D02*
X125904381Y-76669938D01*
X125904381Y-76669938D02*
X125856762Y-76717557D01*
X125856762Y-76717557D02*
X125809143Y-76812795D01*
X125809143Y-76812795D02*
X125809143Y-77050890D01*
X125809143Y-77050890D02*
X125856762Y-77146128D01*
X125856762Y-77146128D02*
X125904381Y-77193747D01*
X125904381Y-77193747D02*
X125999619Y-77241366D01*
X125999619Y-77241366D02*
X126190095Y-77241366D01*
X126190095Y-77241366D02*
X126285333Y-77193747D01*
X126285333Y-77193747D02*
X126332952Y-77146128D01*
X126332952Y-77146128D02*
X126380571Y-77050890D01*
X138430095Y-95974819D02*
X138430095Y-96784342D01*
X138430095Y-96784342D02*
X138477714Y-96879580D01*
X138477714Y-96879580D02*
X138525333Y-96927200D01*
X138525333Y-96927200D02*
X138620571Y-96974819D01*
X138620571Y-96974819D02*
X138811047Y-96974819D01*
X138811047Y-96974819D02*
X138906285Y-96927200D01*
X138906285Y-96927200D02*
X138953904Y-96879580D01*
X138953904Y-96879580D02*
X139001523Y-96784342D01*
X139001523Y-96784342D02*
X139001523Y-95974819D01*
X139430095Y-96070057D02*
X139477714Y-96022438D01*
X139477714Y-96022438D02*
X139572952Y-95974819D01*
X139572952Y-95974819D02*
X139811047Y-95974819D01*
X139811047Y-95974819D02*
X139906285Y-96022438D01*
X139906285Y-96022438D02*
X139953904Y-96070057D01*
X139953904Y-96070057D02*
X140001523Y-96165295D01*
X140001523Y-96165295D02*
X140001523Y-96260533D01*
X140001523Y-96260533D02*
X139953904Y-96403390D01*
X139953904Y-96403390D02*
X139382476Y-96974819D01*
X139382476Y-96974819D02*
X140001523Y-96974819D01*
X136152190Y-100800819D02*
X135676000Y-100800819D01*
X135676000Y-100800819D02*
X135628381Y-101277009D01*
X135628381Y-101277009D02*
X135676000Y-101229390D01*
X135676000Y-101229390D02*
X135771238Y-101181771D01*
X135771238Y-101181771D02*
X136009333Y-101181771D01*
X136009333Y-101181771D02*
X136104571Y-101229390D01*
X136104571Y-101229390D02*
X136152190Y-101277009D01*
X136152190Y-101277009D02*
X136199809Y-101372247D01*
X136199809Y-101372247D02*
X136199809Y-101610342D01*
X136199809Y-101610342D02*
X136152190Y-101705580D01*
X136152190Y-101705580D02*
X136104571Y-101753200D01*
X136104571Y-101753200D02*
X136009333Y-101800819D01*
X136009333Y-101800819D02*
X135771238Y-101800819D01*
X135771238Y-101800819D02*
X135676000Y-101753200D01*
X135676000Y-101753200D02*
X135628381Y-101705580D01*
X136485524Y-100800819D02*
X136818857Y-101800819D01*
X136818857Y-101800819D02*
X137152190Y-100800819D01*
X137247429Y-101896057D02*
X138009333Y-101896057D01*
X138818857Y-101800819D02*
X138485524Y-101324628D01*
X138247429Y-101800819D02*
X138247429Y-100800819D01*
X138247429Y-100800819D02*
X138628381Y-100800819D01*
X138628381Y-100800819D02*
X138723619Y-100848438D01*
X138723619Y-100848438D02*
X138771238Y-100896057D01*
X138771238Y-100896057D02*
X138818857Y-100991295D01*
X138818857Y-100991295D02*
X138818857Y-101134152D01*
X138818857Y-101134152D02*
X138771238Y-101229390D01*
X138771238Y-101229390D02*
X138723619Y-101277009D01*
X138723619Y-101277009D02*
X138628381Y-101324628D01*
X138628381Y-101324628D02*
X138247429Y-101324628D01*
X139247429Y-101277009D02*
X139580762Y-101277009D01*
X139723619Y-101800819D02*
X139247429Y-101800819D01*
X139247429Y-101800819D02*
X139247429Y-100800819D01*
X139247429Y-100800819D02*
X139723619Y-100800819D01*
X140676000Y-100848438D02*
X140580762Y-100800819D01*
X140580762Y-100800819D02*
X140437905Y-100800819D01*
X140437905Y-100800819D02*
X140295048Y-100848438D01*
X140295048Y-100848438D02*
X140199810Y-100943676D01*
X140199810Y-100943676D02*
X140152191Y-101038914D01*
X140152191Y-101038914D02*
X140104572Y-101229390D01*
X140104572Y-101229390D02*
X140104572Y-101372247D01*
X140104572Y-101372247D02*
X140152191Y-101562723D01*
X140152191Y-101562723D02*
X140199810Y-101657961D01*
X140199810Y-101657961D02*
X140295048Y-101753200D01*
X140295048Y-101753200D02*
X140437905Y-101800819D01*
X140437905Y-101800819D02*
X140533143Y-101800819D01*
X140533143Y-101800819D02*
X140676000Y-101753200D01*
X140676000Y-101753200D02*
X140723619Y-101705580D01*
X140723619Y-101705580D02*
X140723619Y-101372247D01*
X140723619Y-101372247D02*
X140533143Y-101372247D01*
X136993333Y-106023580D02*
X136945714Y-106071200D01*
X136945714Y-106071200D02*
X136802857Y-106118819D01*
X136802857Y-106118819D02*
X136707619Y-106118819D01*
X136707619Y-106118819D02*
X136564762Y-106071200D01*
X136564762Y-106071200D02*
X136469524Y-105975961D01*
X136469524Y-105975961D02*
X136421905Y-105880723D01*
X136421905Y-105880723D02*
X136374286Y-105690247D01*
X136374286Y-105690247D02*
X136374286Y-105547390D01*
X136374286Y-105547390D02*
X136421905Y-105356914D01*
X136421905Y-105356914D02*
X136469524Y-105261676D01*
X136469524Y-105261676D02*
X136564762Y-105166438D01*
X136564762Y-105166438D02*
X136707619Y-105118819D01*
X136707619Y-105118819D02*
X136802857Y-105118819D01*
X136802857Y-105118819D02*
X136945714Y-105166438D01*
X136945714Y-105166438D02*
X136993333Y-105214057D01*
X137850476Y-105452152D02*
X137850476Y-106118819D01*
X137612381Y-105071200D02*
X137374286Y-105785485D01*
X137374286Y-105785485D02*
X137993333Y-105785485D01*
X135810857Y-89370819D02*
X136001333Y-89370819D01*
X136001333Y-89370819D02*
X136096571Y-89418438D01*
X136096571Y-89418438D02*
X136191809Y-89513676D01*
X136191809Y-89513676D02*
X136239428Y-89704152D01*
X136239428Y-89704152D02*
X136239428Y-90037485D01*
X136239428Y-90037485D02*
X136191809Y-90227961D01*
X136191809Y-90227961D02*
X136096571Y-90323200D01*
X136096571Y-90323200D02*
X136001333Y-90370819D01*
X136001333Y-90370819D02*
X135810857Y-90370819D01*
X135810857Y-90370819D02*
X135715619Y-90323200D01*
X135715619Y-90323200D02*
X135620381Y-90227961D01*
X135620381Y-90227961D02*
X135572762Y-90037485D01*
X135572762Y-90037485D02*
X135572762Y-89704152D01*
X135572762Y-89704152D02*
X135620381Y-89513676D01*
X135620381Y-89513676D02*
X135715619Y-89418438D01*
X135715619Y-89418438D02*
X135810857Y-89370819D01*
X136668000Y-89370819D02*
X136668000Y-90180342D01*
X136668000Y-90180342D02*
X136715619Y-90275580D01*
X136715619Y-90275580D02*
X136763238Y-90323200D01*
X136763238Y-90323200D02*
X136858476Y-90370819D01*
X136858476Y-90370819D02*
X137048952Y-90370819D01*
X137048952Y-90370819D02*
X137144190Y-90323200D01*
X137144190Y-90323200D02*
X137191809Y-90275580D01*
X137191809Y-90275580D02*
X137239428Y-90180342D01*
X137239428Y-90180342D02*
X137239428Y-89370819D01*
X137572762Y-89370819D02*
X138144190Y-89370819D01*
X137858476Y-90370819D02*
X137858476Y-89370819D01*
X138239429Y-90466057D02*
X139001333Y-90466057D01*
X139763238Y-90370819D02*
X139191810Y-90370819D01*
X139477524Y-90370819D02*
X139477524Y-89370819D01*
X139477524Y-89370819D02*
X139382286Y-89513676D01*
X139382286Y-89513676D02*
X139287048Y-89608914D01*
X139287048Y-89608914D02*
X139191810Y-89656533D01*
X136795048Y-82496819D02*
X136795048Y-81496819D01*
X137271238Y-82496819D02*
X137271238Y-81496819D01*
X137271238Y-81496819D02*
X137842666Y-82496819D01*
X137842666Y-82496819D02*
X137842666Y-81496819D01*
X138080762Y-82592057D02*
X138842666Y-82592057D01*
X139604571Y-82496819D02*
X139033143Y-82496819D01*
X139318857Y-82496819D02*
X139318857Y-81496819D01*
X139318857Y-81496819D02*
X139223619Y-81639676D01*
X139223619Y-81639676D02*
X139128381Y-81734914D01*
X139128381Y-81734914D02*
X139033143Y-81782533D01*
X110577333Y-81734819D02*
X110244000Y-81258628D01*
X110005905Y-81734819D02*
X110005905Y-80734819D01*
X110005905Y-80734819D02*
X110386857Y-80734819D01*
X110386857Y-80734819D02*
X110482095Y-80782438D01*
X110482095Y-80782438D02*
X110529714Y-80830057D01*
X110529714Y-80830057D02*
X110577333Y-80925295D01*
X110577333Y-80925295D02*
X110577333Y-81068152D01*
X110577333Y-81068152D02*
X110529714Y-81163390D01*
X110529714Y-81163390D02*
X110482095Y-81211009D01*
X110482095Y-81211009D02*
X110386857Y-81258628D01*
X110386857Y-81258628D02*
X110005905Y-81258628D01*
X111053524Y-81734819D02*
X111244000Y-81734819D01*
X111244000Y-81734819D02*
X111339238Y-81687200D01*
X111339238Y-81687200D02*
X111386857Y-81639580D01*
X111386857Y-81639580D02*
X111482095Y-81496723D01*
X111482095Y-81496723D02*
X111529714Y-81306247D01*
X111529714Y-81306247D02*
X111529714Y-80925295D01*
X111529714Y-80925295D02*
X111482095Y-80830057D01*
X111482095Y-80830057D02*
X111434476Y-80782438D01*
X111434476Y-80782438D02*
X111339238Y-80734819D01*
X111339238Y-80734819D02*
X111148762Y-80734819D01*
X111148762Y-80734819D02*
X111053524Y-80782438D01*
X111053524Y-80782438D02*
X111005905Y-80830057D01*
X111005905Y-80830057D02*
X110958286Y-80925295D01*
X110958286Y-80925295D02*
X110958286Y-81163390D01*
X110958286Y-81163390D02*
X111005905Y-81258628D01*
X111005905Y-81258628D02*
X111053524Y-81306247D01*
X111053524Y-81306247D02*
X111148762Y-81353866D01*
X111148762Y-81353866D02*
X111339238Y-81353866D01*
X111339238Y-81353866D02*
X111434476Y-81306247D01*
X111434476Y-81306247D02*
X111482095Y-81258628D01*
X111482095Y-81258628D02*
X111529714Y-81163390D01*
X136993333Y-112214819D02*
X136660000Y-111738628D01*
X136421905Y-112214819D02*
X136421905Y-111214819D01*
X136421905Y-111214819D02*
X136802857Y-111214819D01*
X136802857Y-111214819D02*
X136898095Y-111262438D01*
X136898095Y-111262438D02*
X136945714Y-111310057D01*
X136945714Y-111310057D02*
X136993333Y-111405295D01*
X136993333Y-111405295D02*
X136993333Y-111548152D01*
X136993333Y-111548152D02*
X136945714Y-111643390D01*
X136945714Y-111643390D02*
X136898095Y-111691009D01*
X136898095Y-111691009D02*
X136802857Y-111738628D01*
X136802857Y-111738628D02*
X136421905Y-111738628D01*
X137326667Y-111214819D02*
X137993333Y-111214819D01*
X137993333Y-111214819D02*
X137564762Y-112214819D01*
X136993333Y-114659580D02*
X136945714Y-114707200D01*
X136945714Y-114707200D02*
X136802857Y-114754819D01*
X136802857Y-114754819D02*
X136707619Y-114754819D01*
X136707619Y-114754819D02*
X136564762Y-114707200D01*
X136564762Y-114707200D02*
X136469524Y-114611961D01*
X136469524Y-114611961D02*
X136421905Y-114516723D01*
X136421905Y-114516723D02*
X136374286Y-114326247D01*
X136374286Y-114326247D02*
X136374286Y-114183390D01*
X136374286Y-114183390D02*
X136421905Y-113992914D01*
X136421905Y-113992914D02*
X136469524Y-113897676D01*
X136469524Y-113897676D02*
X136564762Y-113802438D01*
X136564762Y-113802438D02*
X136707619Y-113754819D01*
X136707619Y-113754819D02*
X136802857Y-113754819D01*
X136802857Y-113754819D02*
X136945714Y-113802438D01*
X136945714Y-113802438D02*
X136993333Y-113850057D01*
X137945714Y-114754819D02*
X137374286Y-114754819D01*
X137660000Y-114754819D02*
X137660000Y-113754819D01*
X137660000Y-113754819D02*
X137564762Y-113897676D01*
X137564762Y-113897676D02*
X137469524Y-113992914D01*
X137469524Y-113992914D02*
X137374286Y-114040533D01*
X108386819Y-121193333D02*
X109101104Y-121193333D01*
X109101104Y-121193333D02*
X109243961Y-121240952D01*
X109243961Y-121240952D02*
X109339200Y-121336190D01*
X109339200Y-121336190D02*
X109386819Y-121479047D01*
X109386819Y-121479047D02*
X109386819Y-121574285D01*
X109386819Y-120193333D02*
X109386819Y-120764761D01*
X109386819Y-120479047D02*
X108386819Y-120479047D01*
X108386819Y-120479047D02*
X108529676Y-120574285D01*
X108529676Y-120574285D02*
X108624914Y-120669523D01*
X108624914Y-120669523D02*
X108672533Y-120764761D01*
X108164570Y-113723009D02*
X108307427Y-113770628D01*
X108307427Y-113770628D02*
X108355046Y-113818247D01*
X108355046Y-113818247D02*
X108402665Y-113913485D01*
X108402665Y-113913485D02*
X108402665Y-114056342D01*
X108402665Y-114056342D02*
X108355046Y-114151580D01*
X108355046Y-114151580D02*
X108307427Y-114199200D01*
X108307427Y-114199200D02*
X108212189Y-114246819D01*
X108212189Y-114246819D02*
X107831237Y-114246819D01*
X107831237Y-114246819D02*
X107831237Y-113246819D01*
X107831237Y-113246819D02*
X108164570Y-113246819D01*
X108164570Y-113246819D02*
X108259808Y-113294438D01*
X108259808Y-113294438D02*
X108307427Y-113342057D01*
X108307427Y-113342057D02*
X108355046Y-113437295D01*
X108355046Y-113437295D02*
X108355046Y-113532533D01*
X108355046Y-113532533D02*
X108307427Y-113627771D01*
X108307427Y-113627771D02*
X108259808Y-113675390D01*
X108259808Y-113675390D02*
X108164570Y-113723009D01*
X108164570Y-113723009D02*
X107831237Y-113723009D01*
X109259808Y-114246819D02*
X109259808Y-113723009D01*
X109259808Y-113723009D02*
X109212189Y-113627771D01*
X109212189Y-113627771D02*
X109116951Y-113580152D01*
X109116951Y-113580152D02*
X108926475Y-113580152D01*
X108926475Y-113580152D02*
X108831237Y-113627771D01*
X109259808Y-114199200D02*
X109164570Y-114246819D01*
X109164570Y-114246819D02*
X108926475Y-114246819D01*
X108926475Y-114246819D02*
X108831237Y-114199200D01*
X108831237Y-114199200D02*
X108783618Y-114103961D01*
X108783618Y-114103961D02*
X108783618Y-114008723D01*
X108783618Y-114008723D02*
X108831237Y-113913485D01*
X108831237Y-113913485D02*
X108926475Y-113865866D01*
X108926475Y-113865866D02*
X109164570Y-113865866D01*
X109164570Y-113865866D02*
X109259808Y-113818247D01*
X109593142Y-113580152D02*
X109974094Y-113580152D01*
X109735999Y-113246819D02*
X109735999Y-114103961D01*
X109735999Y-114103961D02*
X109783618Y-114199200D01*
X109783618Y-114199200D02*
X109878856Y-114246819D01*
X109878856Y-114246819D02*
X109974094Y-114246819D01*
X110164571Y-113580152D02*
X110545523Y-113580152D01*
X110307428Y-113246819D02*
X110307428Y-114103961D01*
X110307428Y-114103961D02*
X110355047Y-114199200D01*
X110355047Y-114199200D02*
X110450285Y-114246819D01*
X110450285Y-114246819D02*
X110545523Y-114246819D01*
X111259809Y-114199200D02*
X111164571Y-114246819D01*
X111164571Y-114246819D02*
X110974095Y-114246819D01*
X110974095Y-114246819D02*
X110878857Y-114199200D01*
X110878857Y-114199200D02*
X110831238Y-114103961D01*
X110831238Y-114103961D02*
X110831238Y-113723009D01*
X110831238Y-113723009D02*
X110878857Y-113627771D01*
X110878857Y-113627771D02*
X110974095Y-113580152D01*
X110974095Y-113580152D02*
X111164571Y-113580152D01*
X111164571Y-113580152D02*
X111259809Y-113627771D01*
X111259809Y-113627771D02*
X111307428Y-113723009D01*
X111307428Y-113723009D02*
X111307428Y-113818247D01*
X111307428Y-113818247D02*
X110831238Y-113913485D01*
X111736000Y-114246819D02*
X111736000Y-113580152D01*
X111736000Y-113770628D02*
X111783619Y-113675390D01*
X111783619Y-113675390D02*
X111831238Y-113627771D01*
X111831238Y-113627771D02*
X111926476Y-113580152D01*
X111926476Y-113580152D02*
X112021714Y-113580152D01*
X112259810Y-113580152D02*
X112497905Y-114246819D01*
X112736000Y-113580152D02*
X112497905Y-114246819D01*
X112497905Y-114246819D02*
X112402667Y-114484914D01*
X112402667Y-114484914D02*
X112355048Y-114532533D01*
X112355048Y-114532533D02*
X112259810Y-114580152D01*
X138710200Y-68373095D02*
X138757819Y-68230238D01*
X138757819Y-68230238D02*
X138757819Y-67992143D01*
X138757819Y-67992143D02*
X138710200Y-67896905D01*
X138710200Y-67896905D02*
X138662580Y-67849286D01*
X138662580Y-67849286D02*
X138567342Y-67801667D01*
X138567342Y-67801667D02*
X138472104Y-67801667D01*
X138472104Y-67801667D02*
X138376866Y-67849286D01*
X138376866Y-67849286D02*
X138329247Y-67896905D01*
X138329247Y-67896905D02*
X138281628Y-67992143D01*
X138281628Y-67992143D02*
X138234009Y-68182619D01*
X138234009Y-68182619D02*
X138186390Y-68277857D01*
X138186390Y-68277857D02*
X138138771Y-68325476D01*
X138138771Y-68325476D02*
X138043533Y-68373095D01*
X138043533Y-68373095D02*
X137948295Y-68373095D01*
X137948295Y-68373095D02*
X137853057Y-68325476D01*
X137853057Y-68325476D02*
X137805438Y-68277857D01*
X137805438Y-68277857D02*
X137757819Y-68182619D01*
X137757819Y-68182619D02*
X137757819Y-67944524D01*
X137757819Y-67944524D02*
X137805438Y-67801667D01*
X138757819Y-67230238D02*
X138710200Y-67325476D01*
X138710200Y-67325476D02*
X138662580Y-67373095D01*
X138662580Y-67373095D02*
X138567342Y-67420714D01*
X138567342Y-67420714D02*
X138281628Y-67420714D01*
X138281628Y-67420714D02*
X138186390Y-67373095D01*
X138186390Y-67373095D02*
X138138771Y-67325476D01*
X138138771Y-67325476D02*
X138091152Y-67230238D01*
X138091152Y-67230238D02*
X138091152Y-67087381D01*
X138091152Y-67087381D02*
X138138771Y-66992143D01*
X138138771Y-66992143D02*
X138186390Y-66944524D01*
X138186390Y-66944524D02*
X138281628Y-66896905D01*
X138281628Y-66896905D02*
X138567342Y-66896905D01*
X138567342Y-66896905D02*
X138662580Y-66944524D01*
X138662580Y-66944524D02*
X138710200Y-66992143D01*
X138710200Y-66992143D02*
X138757819Y-67087381D01*
X138757819Y-67087381D02*
X138757819Y-67230238D01*
X138757819Y-66325476D02*
X138710200Y-66420714D01*
X138710200Y-66420714D02*
X138614961Y-66468333D01*
X138614961Y-66468333D02*
X137757819Y-66468333D01*
X138757819Y-65515952D02*
X138234009Y-65515952D01*
X138234009Y-65515952D02*
X138138771Y-65563571D01*
X138138771Y-65563571D02*
X138091152Y-65658809D01*
X138091152Y-65658809D02*
X138091152Y-65849285D01*
X138091152Y-65849285D02*
X138138771Y-65944523D01*
X138710200Y-65515952D02*
X138757819Y-65611190D01*
X138757819Y-65611190D02*
X138757819Y-65849285D01*
X138757819Y-65849285D02*
X138710200Y-65944523D01*
X138710200Y-65944523D02*
X138614961Y-65992142D01*
X138614961Y-65992142D02*
X138519723Y-65992142D01*
X138519723Y-65992142D02*
X138424485Y-65944523D01*
X138424485Y-65944523D02*
X138376866Y-65849285D01*
X138376866Y-65849285D02*
X138376866Y-65611190D01*
X138376866Y-65611190D02*
X138329247Y-65515952D01*
X138757819Y-65039761D02*
X138091152Y-65039761D01*
X138281628Y-65039761D02*
X138186390Y-64992142D01*
X138186390Y-64992142D02*
X138138771Y-64944523D01*
X138138771Y-64944523D02*
X138091152Y-64849285D01*
X138091152Y-64849285D02*
X138091152Y-64754047D01*
X138757819Y-63658808D02*
X137757819Y-63658808D01*
X137757819Y-63658808D02*
X137757819Y-63277856D01*
X137757819Y-63277856D02*
X137805438Y-63182618D01*
X137805438Y-63182618D02*
X137853057Y-63134999D01*
X137853057Y-63134999D02*
X137948295Y-63087380D01*
X137948295Y-63087380D02*
X138091152Y-63087380D01*
X138091152Y-63087380D02*
X138186390Y-63134999D01*
X138186390Y-63134999D02*
X138234009Y-63182618D01*
X138234009Y-63182618D02*
X138281628Y-63277856D01*
X138281628Y-63277856D02*
X138281628Y-63658808D01*
X138757819Y-62230237D02*
X138234009Y-62230237D01*
X138234009Y-62230237D02*
X138138771Y-62277856D01*
X138138771Y-62277856D02*
X138091152Y-62373094D01*
X138091152Y-62373094D02*
X138091152Y-62563570D01*
X138091152Y-62563570D02*
X138138771Y-62658808D01*
X138710200Y-62230237D02*
X138757819Y-62325475D01*
X138757819Y-62325475D02*
X138757819Y-62563570D01*
X138757819Y-62563570D02*
X138710200Y-62658808D01*
X138710200Y-62658808D02*
X138614961Y-62706427D01*
X138614961Y-62706427D02*
X138519723Y-62706427D01*
X138519723Y-62706427D02*
X138424485Y-62658808D01*
X138424485Y-62658808D02*
X138376866Y-62563570D01*
X138376866Y-62563570D02*
X138376866Y-62325475D01*
X138376866Y-62325475D02*
X138329247Y-62230237D01*
X138091152Y-61754046D02*
X138757819Y-61754046D01*
X138186390Y-61754046D02*
X138138771Y-61706427D01*
X138138771Y-61706427D02*
X138091152Y-61611189D01*
X138091152Y-61611189D02*
X138091152Y-61468332D01*
X138091152Y-61468332D02*
X138138771Y-61373094D01*
X138138771Y-61373094D02*
X138234009Y-61325475D01*
X138234009Y-61325475D02*
X138757819Y-61325475D01*
X138710200Y-60468332D02*
X138757819Y-60563570D01*
X138757819Y-60563570D02*
X138757819Y-60754046D01*
X138757819Y-60754046D02*
X138710200Y-60849284D01*
X138710200Y-60849284D02*
X138614961Y-60896903D01*
X138614961Y-60896903D02*
X138234009Y-60896903D01*
X138234009Y-60896903D02*
X138138771Y-60849284D01*
X138138771Y-60849284D02*
X138091152Y-60754046D01*
X138091152Y-60754046D02*
X138091152Y-60563570D01*
X138091152Y-60563570D02*
X138138771Y-60468332D01*
X138138771Y-60468332D02*
X138234009Y-60420713D01*
X138234009Y-60420713D02*
X138329247Y-60420713D01*
X138329247Y-60420713D02*
X138424485Y-60896903D01*
X138757819Y-59849284D02*
X138710200Y-59944522D01*
X138710200Y-59944522D02*
X138614961Y-59992141D01*
X138614961Y-59992141D02*
X137757819Y-59992141D01*
X106402571Y-97092819D02*
X107021618Y-97092819D01*
X107021618Y-97092819D02*
X106688285Y-97473771D01*
X106688285Y-97473771D02*
X106831142Y-97473771D01*
X106831142Y-97473771D02*
X106926380Y-97521390D01*
X106926380Y-97521390D02*
X106973999Y-97569009D01*
X106973999Y-97569009D02*
X107021618Y-97664247D01*
X107021618Y-97664247D02*
X107021618Y-97902342D01*
X107021618Y-97902342D02*
X106973999Y-97997580D01*
X106973999Y-97997580D02*
X106926380Y-98045200D01*
X106926380Y-98045200D02*
X106831142Y-98092819D01*
X106831142Y-98092819D02*
X106545428Y-98092819D01*
X106545428Y-98092819D02*
X106450190Y-98045200D01*
X106450190Y-98045200D02*
X106402571Y-97997580D01*
X107307333Y-97092819D02*
X107640666Y-98092819D01*
X107640666Y-98092819D02*
X107973999Y-97092819D01*
X108212095Y-97092819D02*
X108831142Y-97092819D01*
X108831142Y-97092819D02*
X108497809Y-97473771D01*
X108497809Y-97473771D02*
X108640666Y-97473771D01*
X108640666Y-97473771D02*
X108735904Y-97521390D01*
X108735904Y-97521390D02*
X108783523Y-97569009D01*
X108783523Y-97569009D02*
X108831142Y-97664247D01*
X108831142Y-97664247D02*
X108831142Y-97902342D01*
X108831142Y-97902342D02*
X108783523Y-97997580D01*
X108783523Y-97997580D02*
X108735904Y-98045200D01*
X108735904Y-98045200D02*
X108640666Y-98092819D01*
X108640666Y-98092819D02*
X108354952Y-98092819D01*
X108354952Y-98092819D02*
X108259714Y-98045200D01*
X108259714Y-98045200D02*
X108212095Y-97997580D01*
X109021619Y-98188057D02*
X109783523Y-98188057D01*
X110593047Y-98092819D02*
X110259714Y-97616628D01*
X110021619Y-98092819D02*
X110021619Y-97092819D01*
X110021619Y-97092819D02*
X110402571Y-97092819D01*
X110402571Y-97092819D02*
X110497809Y-97140438D01*
X110497809Y-97140438D02*
X110545428Y-97188057D01*
X110545428Y-97188057D02*
X110593047Y-97283295D01*
X110593047Y-97283295D02*
X110593047Y-97426152D01*
X110593047Y-97426152D02*
X110545428Y-97521390D01*
X110545428Y-97521390D02*
X110497809Y-97569009D01*
X110497809Y-97569009D02*
X110402571Y-97616628D01*
X110402571Y-97616628D02*
X110021619Y-97616628D01*
X111021619Y-97569009D02*
X111354952Y-97569009D01*
X111497809Y-98092819D02*
X111021619Y-98092819D01*
X111021619Y-98092819D02*
X111021619Y-97092819D01*
X111021619Y-97092819D02*
X111497809Y-97092819D01*
X112450190Y-97140438D02*
X112354952Y-97092819D01*
X112354952Y-97092819D02*
X112212095Y-97092819D01*
X112212095Y-97092819D02*
X112069238Y-97140438D01*
X112069238Y-97140438D02*
X111974000Y-97235676D01*
X111974000Y-97235676D02*
X111926381Y-97330914D01*
X111926381Y-97330914D02*
X111878762Y-97521390D01*
X111878762Y-97521390D02*
X111878762Y-97664247D01*
X111878762Y-97664247D02*
X111926381Y-97854723D01*
X111926381Y-97854723D02*
X111974000Y-97949961D01*
X111974000Y-97949961D02*
X112069238Y-98045200D01*
X112069238Y-98045200D02*
X112212095Y-98092819D01*
X112212095Y-98092819D02*
X112307333Y-98092819D01*
X112307333Y-98092819D02*
X112450190Y-98045200D01*
X112450190Y-98045200D02*
X112497809Y-97997580D01*
X112497809Y-97997580D02*
X112497809Y-97664247D01*
X112497809Y-97664247D02*
X112307333Y-97664247D01*
X106955333Y-112529580D02*
X106907714Y-112577200D01*
X106907714Y-112577200D02*
X106764857Y-112624819D01*
X106764857Y-112624819D02*
X106669619Y-112624819D01*
X106669619Y-112624819D02*
X106526762Y-112577200D01*
X106526762Y-112577200D02*
X106431524Y-112481961D01*
X106431524Y-112481961D02*
X106383905Y-112386723D01*
X106383905Y-112386723D02*
X106336286Y-112196247D01*
X106336286Y-112196247D02*
X106336286Y-112053390D01*
X106336286Y-112053390D02*
X106383905Y-111862914D01*
X106383905Y-111862914D02*
X106431524Y-111767676D01*
X106431524Y-111767676D02*
X106526762Y-111672438D01*
X106526762Y-111672438D02*
X106669619Y-111624819D01*
X106669619Y-111624819D02*
X106764857Y-111624819D01*
X106764857Y-111624819D02*
X106907714Y-111672438D01*
X106907714Y-111672438D02*
X106955333Y-111720057D01*
X107288667Y-111624819D02*
X107907714Y-111624819D01*
X107907714Y-111624819D02*
X107574381Y-112005771D01*
X107574381Y-112005771D02*
X107717238Y-112005771D01*
X107717238Y-112005771D02*
X107812476Y-112053390D01*
X107812476Y-112053390D02*
X107860095Y-112101009D01*
X107860095Y-112101009D02*
X107907714Y-112196247D01*
X107907714Y-112196247D02*
X107907714Y-112434342D01*
X107907714Y-112434342D02*
X107860095Y-112529580D01*
X107860095Y-112529580D02*
X107812476Y-112577200D01*
X107812476Y-112577200D02*
X107717238Y-112624819D01*
X107717238Y-112624819D02*
X107431524Y-112624819D01*
X107431524Y-112624819D02*
X107336286Y-112577200D01*
X107336286Y-112577200D02*
X107288667Y-112529580D01*
X136993333Y-103483580D02*
X136945714Y-103531200D01*
X136945714Y-103531200D02*
X136802857Y-103578819D01*
X136802857Y-103578819D02*
X136707619Y-103578819D01*
X136707619Y-103578819D02*
X136564762Y-103531200D01*
X136564762Y-103531200D02*
X136469524Y-103435961D01*
X136469524Y-103435961D02*
X136421905Y-103340723D01*
X136421905Y-103340723D02*
X136374286Y-103150247D01*
X136374286Y-103150247D02*
X136374286Y-103007390D01*
X136374286Y-103007390D02*
X136421905Y-102816914D01*
X136421905Y-102816914D02*
X136469524Y-102721676D01*
X136469524Y-102721676D02*
X136564762Y-102626438D01*
X136564762Y-102626438D02*
X136707619Y-102578819D01*
X136707619Y-102578819D02*
X136802857Y-102578819D01*
X136802857Y-102578819D02*
X136945714Y-102626438D01*
X136945714Y-102626438D02*
X136993333Y-102674057D01*
X137898095Y-102578819D02*
X137421905Y-102578819D01*
X137421905Y-102578819D02*
X137374286Y-103055009D01*
X137374286Y-103055009D02*
X137421905Y-103007390D01*
X137421905Y-103007390D02*
X137517143Y-102959771D01*
X137517143Y-102959771D02*
X137755238Y-102959771D01*
X137755238Y-102959771D02*
X137850476Y-103007390D01*
X137850476Y-103007390D02*
X137898095Y-103055009D01*
X137898095Y-103055009D02*
X137945714Y-103150247D01*
X137945714Y-103150247D02*
X137945714Y-103388342D01*
X137945714Y-103388342D02*
X137898095Y-103483580D01*
X137898095Y-103483580D02*
X137850476Y-103531200D01*
X137850476Y-103531200D02*
X137755238Y-103578819D01*
X137755238Y-103578819D02*
X137517143Y-103578819D01*
X137517143Y-103578819D02*
X137421905Y-103531200D01*
X137421905Y-103531200D02*
X137374286Y-103483580D01*
X136795048Y-78813819D02*
X136795048Y-77813819D01*
X137271238Y-78813819D02*
X137271238Y-77813819D01*
X137271238Y-77813819D02*
X137842666Y-78813819D01*
X137842666Y-78813819D02*
X137842666Y-77813819D01*
X138080762Y-78909057D02*
X138842666Y-78909057D01*
X139271238Y-77813819D02*
X139366476Y-77813819D01*
X139366476Y-77813819D02*
X139461714Y-77861438D01*
X139461714Y-77861438D02*
X139509333Y-77909057D01*
X139509333Y-77909057D02*
X139556952Y-78004295D01*
X139556952Y-78004295D02*
X139604571Y-78194771D01*
X139604571Y-78194771D02*
X139604571Y-78432866D01*
X139604571Y-78432866D02*
X139556952Y-78623342D01*
X139556952Y-78623342D02*
X139509333Y-78718580D01*
X139509333Y-78718580D02*
X139461714Y-78766200D01*
X139461714Y-78766200D02*
X139366476Y-78813819D01*
X139366476Y-78813819D02*
X139271238Y-78813819D01*
X139271238Y-78813819D02*
X139176000Y-78766200D01*
X139176000Y-78766200D02*
X139128381Y-78718580D01*
X139128381Y-78718580D02*
X139080762Y-78623342D01*
X139080762Y-78623342D02*
X139033143Y-78432866D01*
X139033143Y-78432866D02*
X139033143Y-78194771D01*
X139033143Y-78194771D02*
X139080762Y-78004295D01*
X139080762Y-78004295D02*
X139128381Y-77909057D01*
X139128381Y-77909057D02*
X139176000Y-77861438D01*
X139176000Y-77861438D02*
X139271238Y-77813819D01*
X146764476Y-101547819D02*
X146764476Y-102262104D01*
X146764476Y-102262104D02*
X146716857Y-102404961D01*
X146716857Y-102404961D02*
X146621619Y-102500200D01*
X146621619Y-102500200D02*
X146478762Y-102547819D01*
X146478762Y-102547819D02*
X146383524Y-102547819D01*
X147764476Y-102547819D02*
X147193048Y-102547819D01*
X147478762Y-102547819D02*
X147478762Y-101547819D01*
X147478762Y-101547819D02*
X147383524Y-101690676D01*
X147383524Y-101690676D02*
X147288286Y-101785914D01*
X147288286Y-101785914D02*
X147193048Y-101833533D01*
X148716857Y-102547819D02*
X148145429Y-102547819D01*
X148431143Y-102547819D02*
X148431143Y-101547819D01*
X148431143Y-101547819D02*
X148335905Y-101690676D01*
X148335905Y-101690676D02*
X148240667Y-101785914D01*
X148240667Y-101785914D02*
X148145429Y-101833533D01*
X146089810Y-112722819D02*
X146089810Y-111722819D01*
X146518381Y-111818057D02*
X146566000Y-111770438D01*
X146566000Y-111770438D02*
X146661238Y-111722819D01*
X146661238Y-111722819D02*
X146899333Y-111722819D01*
X146899333Y-111722819D02*
X146994571Y-111770438D01*
X146994571Y-111770438D02*
X147042190Y-111818057D01*
X147042190Y-111818057D02*
X147089809Y-111913295D01*
X147089809Y-111913295D02*
X147089809Y-112008533D01*
X147089809Y-112008533D02*
X147042190Y-112151390D01*
X147042190Y-112151390D02*
X146470762Y-112722819D01*
X146470762Y-112722819D02*
X147089809Y-112722819D01*
X148089809Y-112627580D02*
X148042190Y-112675200D01*
X148042190Y-112675200D02*
X147899333Y-112722819D01*
X147899333Y-112722819D02*
X147804095Y-112722819D01*
X147804095Y-112722819D02*
X147661238Y-112675200D01*
X147661238Y-112675200D02*
X147566000Y-112579961D01*
X147566000Y-112579961D02*
X147518381Y-112484723D01*
X147518381Y-112484723D02*
X147470762Y-112294247D01*
X147470762Y-112294247D02*
X147470762Y-112151390D01*
X147470762Y-112151390D02*
X147518381Y-111960914D01*
X147518381Y-111960914D02*
X147566000Y-111865676D01*
X147566000Y-111865676D02*
X147661238Y-111770438D01*
X147661238Y-111770438D02*
X147804095Y-111722819D01*
X147804095Y-111722819D02*
X147899333Y-111722819D01*
X147899333Y-111722819D02*
X148042190Y-111770438D01*
X148042190Y-111770438D02*
X148089809Y-111818057D01*
X135302857Y-85306819D02*
X135493333Y-85306819D01*
X135493333Y-85306819D02*
X135588571Y-85354438D01*
X135588571Y-85354438D02*
X135683809Y-85449676D01*
X135683809Y-85449676D02*
X135731428Y-85640152D01*
X135731428Y-85640152D02*
X135731428Y-85973485D01*
X135731428Y-85973485D02*
X135683809Y-86163961D01*
X135683809Y-86163961D02*
X135588571Y-86259200D01*
X135588571Y-86259200D02*
X135493333Y-86306819D01*
X135493333Y-86306819D02*
X135302857Y-86306819D01*
X135302857Y-86306819D02*
X135207619Y-86259200D01*
X135207619Y-86259200D02*
X135112381Y-86163961D01*
X135112381Y-86163961D02*
X135064762Y-85973485D01*
X135064762Y-85973485D02*
X135064762Y-85640152D01*
X135064762Y-85640152D02*
X135112381Y-85449676D01*
X135112381Y-85449676D02*
X135207619Y-85354438D01*
X135207619Y-85354438D02*
X135302857Y-85306819D01*
X136160000Y-85306819D02*
X136160000Y-86116342D01*
X136160000Y-86116342D02*
X136207619Y-86211580D01*
X136207619Y-86211580D02*
X136255238Y-86259200D01*
X136255238Y-86259200D02*
X136350476Y-86306819D01*
X136350476Y-86306819D02*
X136540952Y-86306819D01*
X136540952Y-86306819D02*
X136636190Y-86259200D01*
X136636190Y-86259200D02*
X136683809Y-86211580D01*
X136683809Y-86211580D02*
X136731428Y-86116342D01*
X136731428Y-86116342D02*
X136731428Y-85306819D01*
X137064762Y-85306819D02*
X137636190Y-85306819D01*
X137350476Y-86306819D02*
X137350476Y-85306819D01*
X137731429Y-86402057D02*
X138493333Y-86402057D01*
X138921905Y-85306819D02*
X139017143Y-85306819D01*
X139017143Y-85306819D02*
X139112381Y-85354438D01*
X139112381Y-85354438D02*
X139160000Y-85402057D01*
X139160000Y-85402057D02*
X139207619Y-85497295D01*
X139207619Y-85497295D02*
X139255238Y-85687771D01*
X139255238Y-85687771D02*
X139255238Y-85925866D01*
X139255238Y-85925866D02*
X139207619Y-86116342D01*
X139207619Y-86116342D02*
X139160000Y-86211580D01*
X139160000Y-86211580D02*
X139112381Y-86259200D01*
X139112381Y-86259200D02*
X139017143Y-86306819D01*
X139017143Y-86306819D02*
X138921905Y-86306819D01*
X138921905Y-86306819D02*
X138826667Y-86259200D01*
X138826667Y-86259200D02*
X138779048Y-86211580D01*
X138779048Y-86211580D02*
X138731429Y-86116342D01*
X138731429Y-86116342D02*
X138683810Y-85925866D01*
X138683810Y-85925866D02*
X138683810Y-85687771D01*
X138683810Y-85687771D02*
X138731429Y-85497295D01*
X138731429Y-85497295D02*
X138779048Y-85402057D01*
X138779048Y-85402057D02*
X138826667Y-85354438D01*
X138826667Y-85354438D02*
X138921905Y-85306819D01*
X143708476Y-128455009D02*
X143851333Y-128502628D01*
X143851333Y-128502628D02*
X143898952Y-128550247D01*
X143898952Y-128550247D02*
X143946571Y-128645485D01*
X143946571Y-128645485D02*
X143946571Y-128788342D01*
X143946571Y-128788342D02*
X143898952Y-128883580D01*
X143898952Y-128883580D02*
X143851333Y-128931200D01*
X143851333Y-128931200D02*
X143756095Y-128978819D01*
X143756095Y-128978819D02*
X143375143Y-128978819D01*
X143375143Y-128978819D02*
X143375143Y-127978819D01*
X143375143Y-127978819D02*
X143708476Y-127978819D01*
X143708476Y-127978819D02*
X143803714Y-128026438D01*
X143803714Y-128026438D02*
X143851333Y-128074057D01*
X143851333Y-128074057D02*
X143898952Y-128169295D01*
X143898952Y-128169295D02*
X143898952Y-128264533D01*
X143898952Y-128264533D02*
X143851333Y-128359771D01*
X143851333Y-128359771D02*
X143803714Y-128407390D01*
X143803714Y-128407390D02*
X143708476Y-128455009D01*
X143708476Y-128455009D02*
X143375143Y-128455009D01*
X144232286Y-127978819D02*
X144803714Y-127978819D01*
X144518000Y-128978819D02*
X144518000Y-127978819D01*
X109486819Y-66813333D02*
X108486819Y-66813333D01*
X108486819Y-66813333D02*
X109201104Y-66480000D01*
X109201104Y-66480000D02*
X108486819Y-66146667D01*
X108486819Y-66146667D02*
X109486819Y-66146667D01*
X109486819Y-65527619D02*
X109439200Y-65622857D01*
X109439200Y-65622857D02*
X109391580Y-65670476D01*
X109391580Y-65670476D02*
X109296342Y-65718095D01*
X109296342Y-65718095D02*
X109010628Y-65718095D01*
X109010628Y-65718095D02*
X108915390Y-65670476D01*
X108915390Y-65670476D02*
X108867771Y-65622857D01*
X108867771Y-65622857D02*
X108820152Y-65527619D01*
X108820152Y-65527619D02*
X108820152Y-65384762D01*
X108820152Y-65384762D02*
X108867771Y-65289524D01*
X108867771Y-65289524D02*
X108915390Y-65241905D01*
X108915390Y-65241905D02*
X109010628Y-65194286D01*
X109010628Y-65194286D02*
X109296342Y-65194286D01*
X109296342Y-65194286D02*
X109391580Y-65241905D01*
X109391580Y-65241905D02*
X109439200Y-65289524D01*
X109439200Y-65289524D02*
X109486819Y-65384762D01*
X109486819Y-65384762D02*
X109486819Y-65527619D01*
X108820152Y-64908571D02*
X108820152Y-64527619D01*
X108486819Y-64765714D02*
X109343961Y-64765714D01*
X109343961Y-64765714D02*
X109439200Y-64718095D01*
X109439200Y-64718095D02*
X109486819Y-64622857D01*
X109486819Y-64622857D02*
X109486819Y-64527619D01*
X109486819Y-64051428D02*
X109439200Y-64146666D01*
X109439200Y-64146666D02*
X109391580Y-64194285D01*
X109391580Y-64194285D02*
X109296342Y-64241904D01*
X109296342Y-64241904D02*
X109010628Y-64241904D01*
X109010628Y-64241904D02*
X108915390Y-64194285D01*
X108915390Y-64194285D02*
X108867771Y-64146666D01*
X108867771Y-64146666D02*
X108820152Y-64051428D01*
X108820152Y-64051428D02*
X108820152Y-63908571D01*
X108820152Y-63908571D02*
X108867771Y-63813333D01*
X108867771Y-63813333D02*
X108915390Y-63765714D01*
X108915390Y-63765714D02*
X109010628Y-63718095D01*
X109010628Y-63718095D02*
X109296342Y-63718095D01*
X109296342Y-63718095D02*
X109391580Y-63765714D01*
X109391580Y-63765714D02*
X109439200Y-63813333D01*
X109439200Y-63813333D02*
X109486819Y-63908571D01*
X109486819Y-63908571D02*
X109486819Y-64051428D01*
X109486819Y-63289523D02*
X108820152Y-63289523D01*
X109010628Y-63289523D02*
X108915390Y-63241904D01*
X108915390Y-63241904D02*
X108867771Y-63194285D01*
X108867771Y-63194285D02*
X108820152Y-63099047D01*
X108820152Y-63099047D02*
X108820152Y-63003809D01*
X101623905Y-76654819D02*
X101623905Y-75654819D01*
X101623905Y-75654819D02*
X101862000Y-75654819D01*
X101862000Y-75654819D02*
X102004857Y-75702438D01*
X102004857Y-75702438D02*
X102100095Y-75797676D01*
X102100095Y-75797676D02*
X102147714Y-75892914D01*
X102147714Y-75892914D02*
X102195333Y-76083390D01*
X102195333Y-76083390D02*
X102195333Y-76226247D01*
X102195333Y-76226247D02*
X102147714Y-76416723D01*
X102147714Y-76416723D02*
X102100095Y-76511961D01*
X102100095Y-76511961D02*
X102004857Y-76607200D01*
X102004857Y-76607200D02*
X101862000Y-76654819D01*
X101862000Y-76654819D02*
X101623905Y-76654819D01*
X103147714Y-76654819D02*
X102576286Y-76654819D01*
X102862000Y-76654819D02*
X102862000Y-75654819D01*
X102862000Y-75654819D02*
X102766762Y-75797676D01*
X102766762Y-75797676D02*
X102671524Y-75892914D01*
X102671524Y-75892914D02*
X102576286Y-75940533D01*
X99703809Y-79194819D02*
X99227619Y-79194819D01*
X99227619Y-79194819D02*
X99227619Y-78194819D01*
X100037143Y-78671009D02*
X100370476Y-78671009D01*
X100513333Y-79194819D02*
X100037143Y-79194819D01*
X100037143Y-79194819D02*
X100037143Y-78194819D01*
X100037143Y-78194819D02*
X100513333Y-78194819D01*
X100941905Y-79194819D02*
X100941905Y-78194819D01*
X100941905Y-78194819D02*
X101180000Y-78194819D01*
X101180000Y-78194819D02*
X101322857Y-78242438D01*
X101322857Y-78242438D02*
X101418095Y-78337676D01*
X101418095Y-78337676D02*
X101465714Y-78432914D01*
X101465714Y-78432914D02*
X101513333Y-78623390D01*
X101513333Y-78623390D02*
X101513333Y-78766247D01*
X101513333Y-78766247D02*
X101465714Y-78956723D01*
X101465714Y-78956723D02*
X101418095Y-79051961D01*
X101418095Y-79051961D02*
X101322857Y-79147200D01*
X101322857Y-79147200D02*
X101180000Y-79194819D01*
X101180000Y-79194819D02*
X100941905Y-79194819D01*
X103275238Y-79194819D02*
X102941905Y-78718628D01*
X102703810Y-79194819D02*
X102703810Y-78194819D01*
X102703810Y-78194819D02*
X103084762Y-78194819D01*
X103084762Y-78194819D02*
X103180000Y-78242438D01*
X103180000Y-78242438D02*
X103227619Y-78290057D01*
X103227619Y-78290057D02*
X103275238Y-78385295D01*
X103275238Y-78385295D02*
X103275238Y-78528152D01*
X103275238Y-78528152D02*
X103227619Y-78623390D01*
X103227619Y-78623390D02*
X103180000Y-78671009D01*
X103180000Y-78671009D02*
X103084762Y-78718628D01*
X103084762Y-78718628D02*
X102703810Y-78718628D01*
X103703810Y-78671009D02*
X104037143Y-78671009D01*
X104180000Y-79194819D02*
X103703810Y-79194819D01*
X103703810Y-79194819D02*
X103703810Y-78194819D01*
X103703810Y-78194819D02*
X104180000Y-78194819D01*
X104608572Y-79194819D02*
X104608572Y-78194819D01*
X104608572Y-78194819D02*
X104846667Y-78194819D01*
X104846667Y-78194819D02*
X104989524Y-78242438D01*
X104989524Y-78242438D02*
X105084762Y-78337676D01*
X105084762Y-78337676D02*
X105132381Y-78432914D01*
X105132381Y-78432914D02*
X105180000Y-78623390D01*
X105180000Y-78623390D02*
X105180000Y-78766247D01*
X105180000Y-78766247D02*
X105132381Y-78956723D01*
X105132381Y-78956723D02*
X105084762Y-79051961D01*
X105084762Y-79051961D02*
X104989524Y-79147200D01*
X104989524Y-79147200D02*
X104846667Y-79194819D01*
X104846667Y-79194819D02*
X104608572Y-79194819D01*
X146510476Y-100014819D02*
X146510476Y-100729104D01*
X146510476Y-100729104D02*
X146462857Y-100871961D01*
X146462857Y-100871961D02*
X146367619Y-100967200D01*
X146367619Y-100967200D02*
X146224762Y-101014819D01*
X146224762Y-101014819D02*
X146129524Y-101014819D01*
X147510476Y-101014819D02*
X146939048Y-101014819D01*
X147224762Y-101014819D02*
X147224762Y-100014819D01*
X147224762Y-100014819D02*
X147129524Y-100157676D01*
X147129524Y-100157676D02*
X147034286Y-100252914D01*
X147034286Y-100252914D02*
X146939048Y-100300533D01*
X147891429Y-100110057D02*
X147939048Y-100062438D01*
X147939048Y-100062438D02*
X148034286Y-100014819D01*
X148034286Y-100014819D02*
X148272381Y-100014819D01*
X148272381Y-100014819D02*
X148367619Y-100062438D01*
X148367619Y-100062438D02*
X148415238Y-100110057D01*
X148415238Y-100110057D02*
X148462857Y-100205295D01*
X148462857Y-100205295D02*
X148462857Y-100300533D01*
X148462857Y-100300533D02*
X148415238Y-100443390D01*
X148415238Y-100443390D02*
X147843810Y-101014819D01*
X147843810Y-101014819D02*
X148462857Y-101014819D01*
X145234819Y-101361286D02*
X144234819Y-101361286D01*
X144234819Y-101361286D02*
X144949104Y-101027953D01*
X144949104Y-101027953D02*
X144234819Y-100694620D01*
X144234819Y-100694620D02*
X145234819Y-100694620D01*
X145234819Y-100075572D02*
X145187200Y-100170810D01*
X145187200Y-100170810D02*
X145139580Y-100218429D01*
X145139580Y-100218429D02*
X145044342Y-100266048D01*
X145044342Y-100266048D02*
X144758628Y-100266048D01*
X144758628Y-100266048D02*
X144663390Y-100218429D01*
X144663390Y-100218429D02*
X144615771Y-100170810D01*
X144615771Y-100170810D02*
X144568152Y-100075572D01*
X144568152Y-100075572D02*
X144568152Y-99932715D01*
X144568152Y-99932715D02*
X144615771Y-99837477D01*
X144615771Y-99837477D02*
X144663390Y-99789858D01*
X144663390Y-99789858D02*
X144758628Y-99742239D01*
X144758628Y-99742239D02*
X145044342Y-99742239D01*
X145044342Y-99742239D02*
X145139580Y-99789858D01*
X145139580Y-99789858D02*
X145187200Y-99837477D01*
X145187200Y-99837477D02*
X145234819Y-99932715D01*
X145234819Y-99932715D02*
X145234819Y-100075572D01*
X144568152Y-99456524D02*
X144568152Y-99075572D01*
X144234819Y-99313667D02*
X145091961Y-99313667D01*
X145091961Y-99313667D02*
X145187200Y-99266048D01*
X145187200Y-99266048D02*
X145234819Y-99170810D01*
X145234819Y-99170810D02*
X145234819Y-99075572D01*
X145234819Y-98599381D02*
X145187200Y-98694619D01*
X145187200Y-98694619D02*
X145139580Y-98742238D01*
X145139580Y-98742238D02*
X145044342Y-98789857D01*
X145044342Y-98789857D02*
X144758628Y-98789857D01*
X144758628Y-98789857D02*
X144663390Y-98742238D01*
X144663390Y-98742238D02*
X144615771Y-98694619D01*
X144615771Y-98694619D02*
X144568152Y-98599381D01*
X144568152Y-98599381D02*
X144568152Y-98456524D01*
X144568152Y-98456524D02*
X144615771Y-98361286D01*
X144615771Y-98361286D02*
X144663390Y-98313667D01*
X144663390Y-98313667D02*
X144758628Y-98266048D01*
X144758628Y-98266048D02*
X145044342Y-98266048D01*
X145044342Y-98266048D02*
X145139580Y-98313667D01*
X145139580Y-98313667D02*
X145187200Y-98361286D01*
X145187200Y-98361286D02*
X145234819Y-98456524D01*
X145234819Y-98456524D02*
X145234819Y-98599381D01*
X145234819Y-97837476D02*
X144568152Y-97837476D01*
X144758628Y-97837476D02*
X144663390Y-97789857D01*
X144663390Y-97789857D02*
X144615771Y-97742238D01*
X144615771Y-97742238D02*
X144568152Y-97647000D01*
X144568152Y-97647000D02*
X144568152Y-97551762D01*
X144711009Y-96456523D02*
X144711009Y-96123190D01*
X145234819Y-95980333D02*
X145234819Y-96456523D01*
X145234819Y-96456523D02*
X144234819Y-96456523D01*
X144234819Y-96456523D02*
X144234819Y-95980333D01*
X144568152Y-95551761D02*
X145234819Y-95551761D01*
X144663390Y-95551761D02*
X144615771Y-95504142D01*
X144615771Y-95504142D02*
X144568152Y-95408904D01*
X144568152Y-95408904D02*
X144568152Y-95266047D01*
X144568152Y-95266047D02*
X144615771Y-95170809D01*
X144615771Y-95170809D02*
X144711009Y-95123190D01*
X144711009Y-95123190D02*
X145234819Y-95123190D01*
X145234819Y-94218428D02*
X144711009Y-94218428D01*
X144711009Y-94218428D02*
X144615771Y-94266047D01*
X144615771Y-94266047D02*
X144568152Y-94361285D01*
X144568152Y-94361285D02*
X144568152Y-94551761D01*
X144568152Y-94551761D02*
X144615771Y-94646999D01*
X145187200Y-94218428D02*
X145234819Y-94313666D01*
X145234819Y-94313666D02*
X145234819Y-94551761D01*
X145234819Y-94551761D02*
X145187200Y-94646999D01*
X145187200Y-94646999D02*
X145091961Y-94694618D01*
X145091961Y-94694618D02*
X144996723Y-94694618D01*
X144996723Y-94694618D02*
X144901485Y-94646999D01*
X144901485Y-94646999D02*
X144853866Y-94551761D01*
X144853866Y-94551761D02*
X144853866Y-94313666D01*
X144853866Y-94313666D02*
X144806247Y-94218428D01*
X145234819Y-93742237D02*
X144234819Y-93742237D01*
X144615771Y-93742237D02*
X144568152Y-93646999D01*
X144568152Y-93646999D02*
X144568152Y-93456523D01*
X144568152Y-93456523D02*
X144615771Y-93361285D01*
X144615771Y-93361285D02*
X144663390Y-93313666D01*
X144663390Y-93313666D02*
X144758628Y-93266047D01*
X144758628Y-93266047D02*
X145044342Y-93266047D01*
X145044342Y-93266047D02*
X145139580Y-93313666D01*
X145139580Y-93313666D02*
X145187200Y-93361285D01*
X145187200Y-93361285D02*
X145234819Y-93456523D01*
X145234819Y-93456523D02*
X145234819Y-93646999D01*
X145234819Y-93646999D02*
X145187200Y-93742237D01*
X145234819Y-92694618D02*
X145187200Y-92789856D01*
X145187200Y-92789856D02*
X145091961Y-92837475D01*
X145091961Y-92837475D02*
X144234819Y-92837475D01*
X145187200Y-91932713D02*
X145234819Y-92027951D01*
X145234819Y-92027951D02*
X145234819Y-92218427D01*
X145234819Y-92218427D02*
X145187200Y-92313665D01*
X145187200Y-92313665D02*
X145091961Y-92361284D01*
X145091961Y-92361284D02*
X144711009Y-92361284D01*
X144711009Y-92361284D02*
X144615771Y-92313665D01*
X144615771Y-92313665D02*
X144568152Y-92218427D01*
X144568152Y-92218427D02*
X144568152Y-92027951D01*
X144568152Y-92027951D02*
X144615771Y-91932713D01*
X144615771Y-91932713D02*
X144711009Y-91885094D01*
X144711009Y-91885094D02*
X144806247Y-91885094D01*
X144806247Y-91885094D02*
X144901485Y-92361284D01*
X101369905Y-81734819D02*
X101369905Y-80734819D01*
X101369905Y-80734819D02*
X101608000Y-80734819D01*
X101608000Y-80734819D02*
X101750857Y-80782438D01*
X101750857Y-80782438D02*
X101846095Y-80877676D01*
X101846095Y-80877676D02*
X101893714Y-80972914D01*
X101893714Y-80972914D02*
X101941333Y-81163390D01*
X101941333Y-81163390D02*
X101941333Y-81306247D01*
X101941333Y-81306247D02*
X101893714Y-81496723D01*
X101893714Y-81496723D02*
X101846095Y-81591961D01*
X101846095Y-81591961D02*
X101750857Y-81687200D01*
X101750857Y-81687200D02*
X101608000Y-81734819D01*
X101608000Y-81734819D02*
X101369905Y-81734819D01*
X102322286Y-80830057D02*
X102369905Y-80782438D01*
X102369905Y-80782438D02*
X102465143Y-80734819D01*
X102465143Y-80734819D02*
X102703238Y-80734819D01*
X102703238Y-80734819D02*
X102798476Y-80782438D01*
X102798476Y-80782438D02*
X102846095Y-80830057D01*
X102846095Y-80830057D02*
X102893714Y-80925295D01*
X102893714Y-80925295D02*
X102893714Y-81020533D01*
X102893714Y-81020533D02*
X102846095Y-81163390D01*
X102846095Y-81163390D02*
X102274667Y-81734819D01*
X102274667Y-81734819D02*
X102893714Y-81734819D01*
X99417618Y-84014819D02*
X98941428Y-84014819D01*
X98941428Y-84014819D02*
X98941428Y-83014819D01*
X99750952Y-83491009D02*
X100084285Y-83491009D01*
X100227142Y-84014819D02*
X99750952Y-84014819D01*
X99750952Y-84014819D02*
X99750952Y-83014819D01*
X99750952Y-83014819D02*
X100227142Y-83014819D01*
X100655714Y-84014819D02*
X100655714Y-83014819D01*
X100655714Y-83014819D02*
X100893809Y-83014819D01*
X100893809Y-83014819D02*
X101036666Y-83062438D01*
X101036666Y-83062438D02*
X101131904Y-83157676D01*
X101131904Y-83157676D02*
X101179523Y-83252914D01*
X101179523Y-83252914D02*
X101227142Y-83443390D01*
X101227142Y-83443390D02*
X101227142Y-83586247D01*
X101227142Y-83586247D02*
X101179523Y-83776723D01*
X101179523Y-83776723D02*
X101131904Y-83871961D01*
X101131904Y-83871961D02*
X101036666Y-83967200D01*
X101036666Y-83967200D02*
X100893809Y-84014819D01*
X100893809Y-84014819D02*
X100655714Y-84014819D01*
X102941428Y-83062438D02*
X102846190Y-83014819D01*
X102846190Y-83014819D02*
X102703333Y-83014819D01*
X102703333Y-83014819D02*
X102560476Y-83062438D01*
X102560476Y-83062438D02*
X102465238Y-83157676D01*
X102465238Y-83157676D02*
X102417619Y-83252914D01*
X102417619Y-83252914D02*
X102370000Y-83443390D01*
X102370000Y-83443390D02*
X102370000Y-83586247D01*
X102370000Y-83586247D02*
X102417619Y-83776723D01*
X102417619Y-83776723D02*
X102465238Y-83871961D01*
X102465238Y-83871961D02*
X102560476Y-83967200D01*
X102560476Y-83967200D02*
X102703333Y-84014819D01*
X102703333Y-84014819D02*
X102798571Y-84014819D01*
X102798571Y-84014819D02*
X102941428Y-83967200D01*
X102941428Y-83967200D02*
X102989047Y-83919580D01*
X102989047Y-83919580D02*
X102989047Y-83586247D01*
X102989047Y-83586247D02*
X102798571Y-83586247D01*
X103989047Y-84014819D02*
X103655714Y-83538628D01*
X103417619Y-84014819D02*
X103417619Y-83014819D01*
X103417619Y-83014819D02*
X103798571Y-83014819D01*
X103798571Y-83014819D02*
X103893809Y-83062438D01*
X103893809Y-83062438D02*
X103941428Y-83110057D01*
X103941428Y-83110057D02*
X103989047Y-83205295D01*
X103989047Y-83205295D02*
X103989047Y-83348152D01*
X103989047Y-83348152D02*
X103941428Y-83443390D01*
X103941428Y-83443390D02*
X103893809Y-83491009D01*
X103893809Y-83491009D02*
X103798571Y-83538628D01*
X103798571Y-83538628D02*
X103417619Y-83538628D01*
X104417619Y-83491009D02*
X104750952Y-83491009D01*
X104893809Y-84014819D02*
X104417619Y-84014819D01*
X104417619Y-84014819D02*
X104417619Y-83014819D01*
X104417619Y-83014819D02*
X104893809Y-83014819D01*
X105322381Y-83491009D02*
X105655714Y-83491009D01*
X105798571Y-84014819D02*
X105322381Y-84014819D01*
X105322381Y-84014819D02*
X105322381Y-83014819D01*
X105322381Y-83014819D02*
X105798571Y-83014819D01*
X106227143Y-84014819D02*
X106227143Y-83014819D01*
X106227143Y-83014819D02*
X106798571Y-84014819D01*
X106798571Y-84014819D02*
X106798571Y-83014819D01*
X110831333Y-76654819D02*
X110498000Y-76178628D01*
X110259905Y-76654819D02*
X110259905Y-75654819D01*
X110259905Y-75654819D02*
X110640857Y-75654819D01*
X110640857Y-75654819D02*
X110736095Y-75702438D01*
X110736095Y-75702438D02*
X110783714Y-75750057D01*
X110783714Y-75750057D02*
X110831333Y-75845295D01*
X110831333Y-75845295D02*
X110831333Y-75988152D01*
X110831333Y-75988152D02*
X110783714Y-76083390D01*
X110783714Y-76083390D02*
X110736095Y-76131009D01*
X110736095Y-76131009D02*
X110640857Y-76178628D01*
X110640857Y-76178628D02*
X110259905Y-76178628D01*
X111402762Y-76083390D02*
X111307524Y-76035771D01*
X111307524Y-76035771D02*
X111259905Y-75988152D01*
X111259905Y-75988152D02*
X111212286Y-75892914D01*
X111212286Y-75892914D02*
X111212286Y-75845295D01*
X111212286Y-75845295D02*
X111259905Y-75750057D01*
X111259905Y-75750057D02*
X111307524Y-75702438D01*
X111307524Y-75702438D02*
X111402762Y-75654819D01*
X111402762Y-75654819D02*
X111593238Y-75654819D01*
X111593238Y-75654819D02*
X111688476Y-75702438D01*
X111688476Y-75702438D02*
X111736095Y-75750057D01*
X111736095Y-75750057D02*
X111783714Y-75845295D01*
X111783714Y-75845295D02*
X111783714Y-75892914D01*
X111783714Y-75892914D02*
X111736095Y-75988152D01*
X111736095Y-75988152D02*
X111688476Y-76035771D01*
X111688476Y-76035771D02*
X111593238Y-76083390D01*
X111593238Y-76083390D02*
X111402762Y-76083390D01*
X111402762Y-76083390D02*
X111307524Y-76131009D01*
X111307524Y-76131009D02*
X111259905Y-76178628D01*
X111259905Y-76178628D02*
X111212286Y-76273866D01*
X111212286Y-76273866D02*
X111212286Y-76464342D01*
X111212286Y-76464342D02*
X111259905Y-76559580D01*
X111259905Y-76559580D02*
X111307524Y-76607200D01*
X111307524Y-76607200D02*
X111402762Y-76654819D01*
X111402762Y-76654819D02*
X111593238Y-76654819D01*
X111593238Y-76654819D02*
X111688476Y-76607200D01*
X111688476Y-76607200D02*
X111736095Y-76559580D01*
X111736095Y-76559580D02*
X111783714Y-76464342D01*
X111783714Y-76464342D02*
X111783714Y-76273866D01*
X111783714Y-76273866D02*
X111736095Y-76178628D01*
X111736095Y-76178628D02*
X111688476Y-76131009D01*
X111688476Y-76131009D02*
X111593238Y-76083390D01*
X111405333Y-112529580D02*
X111357714Y-112577200D01*
X111357714Y-112577200D02*
X111214857Y-112624819D01*
X111214857Y-112624819D02*
X111119619Y-112624819D01*
X111119619Y-112624819D02*
X110976762Y-112577200D01*
X110976762Y-112577200D02*
X110881524Y-112481961D01*
X110881524Y-112481961D02*
X110833905Y-112386723D01*
X110833905Y-112386723D02*
X110786286Y-112196247D01*
X110786286Y-112196247D02*
X110786286Y-112053390D01*
X110786286Y-112053390D02*
X110833905Y-111862914D01*
X110833905Y-111862914D02*
X110881524Y-111767676D01*
X110881524Y-111767676D02*
X110976762Y-111672438D01*
X110976762Y-111672438D02*
X111119619Y-111624819D01*
X111119619Y-111624819D02*
X111214857Y-111624819D01*
X111214857Y-111624819D02*
X111357714Y-111672438D01*
X111357714Y-111672438D02*
X111405333Y-111720057D01*
X111786286Y-111720057D02*
X111833905Y-111672438D01*
X111833905Y-111672438D02*
X111929143Y-111624819D01*
X111929143Y-111624819D02*
X112167238Y-111624819D01*
X112167238Y-111624819D02*
X112262476Y-111672438D01*
X112262476Y-111672438D02*
X112310095Y-111720057D01*
X112310095Y-111720057D02*
X112357714Y-111815295D01*
X112357714Y-111815295D02*
X112357714Y-111910533D01*
X112357714Y-111910533D02*
X112310095Y-112053390D01*
X112310095Y-112053390D02*
X111738667Y-112624819D01*
X111738667Y-112624819D02*
X112357714Y-112624819D01*
X136993333Y-109674819D02*
X136660000Y-109198628D01*
X136421905Y-109674819D02*
X136421905Y-108674819D01*
X136421905Y-108674819D02*
X136802857Y-108674819D01*
X136802857Y-108674819D02*
X136898095Y-108722438D01*
X136898095Y-108722438D02*
X136945714Y-108770057D01*
X136945714Y-108770057D02*
X136993333Y-108865295D01*
X136993333Y-108865295D02*
X136993333Y-109008152D01*
X136993333Y-109008152D02*
X136945714Y-109103390D01*
X136945714Y-109103390D02*
X136898095Y-109151009D01*
X136898095Y-109151009D02*
X136802857Y-109198628D01*
X136802857Y-109198628D02*
X136421905Y-109198628D01*
X137850476Y-108674819D02*
X137660000Y-108674819D01*
X137660000Y-108674819D02*
X137564762Y-108722438D01*
X137564762Y-108722438D02*
X137517143Y-108770057D01*
X137517143Y-108770057D02*
X137421905Y-108912914D01*
X137421905Y-108912914D02*
X137374286Y-109103390D01*
X137374286Y-109103390D02*
X137374286Y-109484342D01*
X137374286Y-109484342D02*
X137421905Y-109579580D01*
X137421905Y-109579580D02*
X137469524Y-109627200D01*
X137469524Y-109627200D02*
X137564762Y-109674819D01*
X137564762Y-109674819D02*
X137755238Y-109674819D01*
X137755238Y-109674819D02*
X137850476Y-109627200D01*
X137850476Y-109627200D02*
X137898095Y-109579580D01*
X137898095Y-109579580D02*
X137945714Y-109484342D01*
X137945714Y-109484342D02*
X137945714Y-109246247D01*
X137945714Y-109246247D02*
X137898095Y-109151009D01*
X137898095Y-109151009D02*
X137850476Y-109103390D01*
X137850476Y-109103390D02*
X137755238Y-109055771D01*
X137755238Y-109055771D02*
X137564762Y-109055771D01*
X137564762Y-109055771D02*
X137469524Y-109103390D01*
X137469524Y-109103390D02*
X137421905Y-109151009D01*
X137421905Y-109151009D02*
X137374286Y-109246247D01*
D11*
%TO.C,J9*%
X113598000Y-128457000D02*
X112268000Y-128457000D01*
X113598000Y-127127000D02*
X113598000Y-128457000D01*
X113598000Y-125857000D02*
X113598000Y-120717000D01*
X113598000Y-125857000D02*
X110938000Y-125857000D01*
X113598000Y-120717000D02*
X110938000Y-120717000D01*
X110938000Y-125857000D02*
X110938000Y-120717000D01*
%TO.C,BUTTON1*%
X141152000Y-118774000D02*
X141152000Y-125234000D01*
X141122000Y-118774000D02*
X141152000Y-118774000D01*
X139222000Y-118774000D02*
X136622000Y-118774000D01*
X134692000Y-118774000D02*
X134722000Y-118774000D01*
X134692000Y-118774000D02*
X134692000Y-125234000D01*
X141152000Y-125234000D02*
X141122000Y-125234000D01*
X139222000Y-125234000D02*
X136622000Y-125234000D01*
X134692000Y-125234000D02*
X134722000Y-125234000D01*
D12*
%TO.C,U5*%
X133222000Y-128310000D02*
X114682000Y-128310000D01*
X133222000Y-78020000D02*
X133222000Y-128310000D01*
X114682000Y-128310000D02*
X114682000Y-78020000D01*
X114682000Y-78020000D02*
X133222000Y-78020000D01*
D13*
X134052000Y-119665000D02*
G75*
G03*
X133852000Y-119665000I-100000J0D01*
G01*
X133852000Y-119665000D02*
G75*
G03*
X134052000Y-119665000I100000J0D01*
G01*
D12*
%TO.C,U1*%
X111252000Y-58117500D02*
X111252000Y-73357500D01*
X113792000Y-75897500D02*
X134112000Y-75897500D01*
X134112000Y-55577500D02*
X113792000Y-55577500D01*
X136652000Y-73357500D02*
X136652000Y-58117500D01*
X113792000Y-55577500D02*
G75*
G03*
X111252000Y-58117500I0J-2540000D01*
G01*
X111252000Y-73357500D02*
G75*
G03*
X113792000Y-75897500I2540000J0D01*
G01*
X136652000Y-58117500D02*
G75*
G03*
X134112000Y-55577500I-2540000J0D01*
G01*
X134112000Y-75897500D02*
G75*
G03*
X136652000Y-73357500I0J2540000D01*
G01*
D13*
X118252000Y-76577500D02*
G75*
G03*
X118052000Y-76577500I-100000J0D01*
G01*
X118052000Y-76577500D02*
G75*
G03*
X118252000Y-76577500I100000J0D01*
G01*
%TO.C,U2*%
D11*
X142562000Y-100160000D02*
X142082000Y-100160000D01*
X142322000Y-99830000D01*
X142562000Y-100160000D01*
G36*
X142562000Y-100160000D02*
G01*
X142082000Y-100160000D01*
X142322000Y-99830000D01*
X142562000Y-100160000D01*
G37*
X137282000Y-93110000D02*
X137282000Y-94370000D01*
X137282000Y-99930000D02*
X137282000Y-98670000D01*
X141042000Y-93110000D02*
X137282000Y-93110000D01*
X141042000Y-99930000D02*
X137282000Y-99930000D01*
%TO.C,C4*%
X140403252Y-104929000D02*
X139880748Y-104929000D01*
X140403252Y-106399000D02*
X139880748Y-106399000D01*
%TO.C,J5*%
X148142000Y-88586000D02*
X148142000Y-89916000D01*
X146812000Y-88586000D02*
X148142000Y-88586000D01*
X145542000Y-88586000D02*
X140402000Y-88586000D01*
X145542000Y-88586000D02*
X145542000Y-91246000D01*
X140402000Y-88586000D02*
X140402000Y-91246000D01*
X145542000Y-91246000D02*
X140402000Y-91246000D01*
%TO.C,J6*%
X99762000Y-107950000D02*
X99762000Y-85030000D01*
X99762000Y-110550000D02*
X99762000Y-109220000D01*
X101092000Y-110550000D02*
X99762000Y-110550000D01*
X102422000Y-85030000D02*
X99762000Y-85030000D01*
X102422000Y-107950000D02*
X99762000Y-107950000D01*
X102422000Y-107950000D02*
X102422000Y-85030000D01*
%TO.C,J3*%
X148157000Y-80712000D02*
X148157000Y-82042000D01*
X146827000Y-80712000D02*
X148157000Y-80712000D01*
X145557000Y-80712000D02*
X140417000Y-80712000D01*
X145557000Y-80712000D02*
X145557000Y-83372000D01*
X140417000Y-80712000D02*
X140417000Y-83372000D01*
X145557000Y-83372000D02*
X140417000Y-83372000D01*
%TO.C,R9*%
X107873436Y-80545000D02*
X108327564Y-80545000D01*
X107873436Y-82015000D02*
X108327564Y-82015000D01*
%TO.C,R7*%
X139877436Y-111025000D02*
X140331564Y-111025000D01*
X139877436Y-112495000D02*
X140331564Y-112495000D01*
%TO.C,C1*%
X140469252Y-115035000D02*
X139946748Y-115035000D01*
X140469252Y-113565000D02*
X139946748Y-113565000D01*
%TO.C,J1*%
X105232000Y-113010000D02*
X102082000Y-113010000D01*
X102082000Y-113010000D02*
X99482000Y-115860000D01*
X107782000Y-115860000D02*
X105232000Y-113010000D01*
X99482000Y-115860000D02*
X99482000Y-128710000D01*
X107782000Y-128710000D02*
X107782000Y-115860000D01*
X99482000Y-128710000D02*
X107782000Y-128710000D01*
%TO.C,J7*%
X142672000Y-72410000D02*
X145822000Y-72410000D01*
X145822000Y-72410000D02*
X148422000Y-69560000D01*
X140122000Y-69560000D02*
X142672000Y-72410000D01*
X148422000Y-69560000D02*
X148422000Y-56710000D01*
X140122000Y-56710000D02*
X140122000Y-69560000D01*
X148422000Y-56710000D02*
X140122000Y-56710000D01*
%TO.C,U3*%
X106318000Y-105076000D02*
X106318000Y-101316000D01*
X113138000Y-105076000D02*
X113138000Y-101316000D01*
X106318000Y-101316000D02*
X107578000Y-101316000D01*
X113138000Y-101316000D02*
X111878000Y-101316000D01*
X106418000Y-106356000D02*
X106088000Y-106596000D01*
X106088000Y-106116000D01*
X106418000Y-106356000D01*
G36*
X106418000Y-106356000D02*
G01*
X106088000Y-106596000D01*
X106088000Y-106116000D01*
X106418000Y-106356000D01*
G37*
%TO.C,C3*%
X107383252Y-109755000D02*
X106860748Y-109755000D01*
X107383252Y-111225000D02*
X106860748Y-111225000D01*
%TO.C,C5*%
X140535252Y-103859000D02*
X140012748Y-103859000D01*
X140535252Y-102389000D02*
X140012748Y-102389000D01*
%TO.C,J2*%
X145557000Y-79562000D02*
X140417000Y-79562000D01*
X140417000Y-76902000D02*
X140417000Y-79562000D01*
X145557000Y-76902000D02*
X145557000Y-79562000D01*
X145557000Y-76902000D02*
X140417000Y-76902000D01*
X146827000Y-76902000D02*
X148157000Y-76902000D01*
X148157000Y-76902000D02*
X148157000Y-78232000D01*
%TO.C,J11*%
X145990000Y-107935000D02*
X145990000Y-102795000D01*
X148650000Y-102795000D02*
X145990000Y-102795000D01*
X148650000Y-107935000D02*
X145990000Y-107935000D01*
X148650000Y-107935000D02*
X148650000Y-102795000D01*
X148650000Y-109205000D02*
X148650000Y-110535000D01*
X148650000Y-110535000D02*
X147320000Y-110535000D01*
%TO.C,J4*%
X148142000Y-84522000D02*
X148142000Y-85852000D01*
X146812000Y-84522000D02*
X148142000Y-84522000D01*
X145542000Y-84522000D02*
X140402000Y-84522000D01*
X145542000Y-84522000D02*
X145542000Y-87182000D01*
X140402000Y-84522000D02*
X140402000Y-87182000D01*
X145542000Y-87182000D02*
X140402000Y-87182000D01*
%TO.C,J10*%
X145990000Y-116078000D02*
X145990000Y-128838000D01*
X145990000Y-116078000D02*
X148650000Y-116078000D01*
X145990000Y-128838000D02*
X148650000Y-128838000D01*
X147320000Y-113478000D02*
X148650000Y-113478000D01*
X148650000Y-113478000D02*
X148650000Y-114808000D01*
X148650000Y-116078000D02*
X148650000Y-128838000D01*
%TO.C,J8*%
X102032000Y-72830000D02*
X105182000Y-72830000D01*
X105182000Y-72830000D02*
X107782000Y-69980000D01*
X99482000Y-69980000D02*
X102032000Y-72830000D01*
X107782000Y-69980000D02*
X107782000Y-57130000D01*
X99482000Y-57130000D02*
X99482000Y-69980000D01*
X107782000Y-57130000D02*
X99482000Y-57130000D01*
%TO.C,D1*%
X105152000Y-74615000D02*
X99467000Y-74615000D01*
X99467000Y-77785000D02*
X105152000Y-77785000D01*
X99467000Y-74615000D02*
X99467000Y-77785000D01*
%TO.C,J12*%
X148650000Y-96520000D02*
X148650000Y-93920000D01*
X148650000Y-96520000D02*
X145990000Y-96520000D01*
X148650000Y-93920000D02*
X145990000Y-93920000D01*
X147320000Y-99120000D02*
X145990000Y-99120000D01*
X145990000Y-99120000D02*
X145990000Y-97790000D01*
X145990000Y-96520000D02*
X145990000Y-93920000D01*
%TO.C,D2*%
X99177000Y-79695000D02*
X99177000Y-82865000D01*
X99177000Y-82865000D02*
X104862000Y-82865000D01*
X104862000Y-79695000D02*
X99177000Y-79695000D01*
%TO.C,R8*%
X108127436Y-75465000D02*
X108581564Y-75465000D01*
X108127436Y-76935000D02*
X108581564Y-76935000D01*
%TO.C,C2*%
X111833252Y-111225000D02*
X111310748Y-111225000D01*
X111833252Y-109755000D02*
X111310748Y-109755000D01*
%TO.C,R6*%
X140331564Y-108485000D02*
X139877436Y-108485000D01*
X140331564Y-109955000D02*
X139877436Y-109955000D01*
%TD*%
M02*
